<svg xmlns="http://www.w3.org/2000/svg" xmlns:xlink="http://www.w3.org/1999/xlink" xmlns:lucid="lucid" width="1620" height="1048"><g transform="translate(0 -12)" lucid:page-tab-id="0_0"><path d="M0 0h1760v1360H0z" fill="#fff"/><path d="M240 37c0-2.76 2.24-5 5-5h1350c2.76 0 5 2.24 5 5v58c0 2.76-2.24 5-5 5H245c-2.76 0-5-2.24-5-5z" fill="none"/><use xlink:href="#a" transform="matrix(1,0,0,1,240,32) translate(447.22222222222223 42)"/><use xlink:href="#b" transform="matrix(1,0,0,1,240,32) translate(620.1111111111111 42)"/><use xlink:href="#c" transform="matrix(1,0,0,1,240,32) translate(775.3333333333333 42)"/><path d="M80 565c0-2.76 2.24-5 5-5h350c2.76 0 5 2.24 5 5v150c0 2.76-2.24 5-5 5H85c-2.76 0-5-2.24-5-5z" stroke="#000" stroke-width="2" fill="#fff"/><path d="M80 619h360" stroke="#000" stroke-width="2" fill="none"/><use xlink:href="#d" transform="matrix(1,0,0,1,88,560) translate(113.57499999999999 22.799999999999997)"/><use xlink:href="#e" transform="matrix(1,0,0,1,88,560) translate(125.07499999999999 44.4)"/><use xlink:href="#f" transform="matrix(1,0,0,1,92,627.2) translate(0 35.3)"/><use xlink:href="#g" transform="matrix(1,0,0,1,92,627.2) translate(15.5 35.3)"/><use xlink:href="#h" transform="matrix(1,0,0,1,92,627.2) translate(127.20000000000002 35.3)"/><use xlink:href="#i" transform="matrix(1,0,0,1,92,627.2) translate(137.20000000000002 35.3)"/><use xlink:href="#f" transform="matrix(1,0,0,1,92,627.2) translate(0 56.9)"/><use xlink:href="#j" transform="matrix(1,0,0,1,92,627.2) translate(15.5 56.9)"/><use xlink:href="#h" transform="matrix(1,0,0,1,92,627.2) translate(128.35000000000002 56.9)"/><use xlink:href="#k" transform="matrix(1,0,0,1,92,627.2) translate(138.35000000000002 56.9)"/><path d="M870 685c0-2.76 2.24-5 5-5h170c2.76 0 5 2.24 5 5v130c0 2.76-2.24 5-5 5H875c-2.76 0-5-2.24-5-5z" stroke="#000" stroke-width="2" fill="#fff"/><path d="M870 718h180m-180 59h180" stroke="#000" stroke-width="2" fill="none"/><use xlink:href="#l" transform="matrix(1,0,0,1,878,680) translate(23.025 22.6)"/><path d="M680 925c0-2.76 2.24-5 5-5h150c2.76 0 5 2.24 5 5v110c0 2.76-2.24 5-5 5H685c-2.76 0-5-2.24-5-5z" stroke="#000" stroke-width="2" fill="#fff"/><path d="M680 958h160m-160 41h160" stroke="#000" stroke-width="2" fill="none"/><use xlink:href="#m" transform="matrix(1,0,0,1,688,920) translate(9.575000000000003 22.6)"/><path d="M880 925c0-2.76 2.24-5 5-5h150c2.76 0 5 2.24 5 5v110c0 2.76-2.24 5-5 5H885c-2.76 0-5-2.24-5-5z" stroke="#000" stroke-width="2" fill="#fff"/><path d="M880 958h160m-160 41h160" stroke="#000" stroke-width="2" fill="none"/><use xlink:href="#n" transform="matrix(1,0,0,1,888,920) translate(29.025 22.6)"/><path d="M760 919v-44c0-2.76 2.24-5 5-5h190c2.76 0 5-2.24 5-5v-25.76" stroke="#000" stroke-width="2" fill="none"/><path d="M761 920h-2v-1h2zM964.64 838.5h-9.28l4.64-14.26z"/><path d="M966 839.5h-12l6-18.5zm-9.26-2h6.52L960 827.47z"/><path d="M960 919v-79.76" stroke="#000" stroke-width="2" fill="none"/><path d="M961 920h-2v-1h2zM964.64 838.5h-9.28l4.64-14.26z"/><path d="M966 839.5h-12l6-18.5zm-9.26-2h6.52L960 827.47z"/><path d="M1080 925c0-2.76 2.24-5 5-5h150c2.76 0 5 2.24 5 5v110c0 2.76-2.24 5-5 5h-150c-2.76 0-5-2.24-5-5z" stroke="#000" stroke-width="2" fill="#fff"/><path d="M1080 958h160m-160 41h160" stroke="#000" stroke-width="2" fill="none"/><use xlink:href="#o" transform="matrix(1,0,0,1,1088,920) translate(24.525 22.6)"/><path d="M1160 919v-44c0-2.76-2.24-5-5-5H965c-2.76 0-5-2.24-5-5v-25.76" stroke="#000" stroke-width="2" fill="none"/><path d="M1161 920h-2v-1h2zM964.64 838.5h-9.28l4.64-14.26z"/><path d="M966 839.5h-12l6-18.5zm-9.26-2h6.52L960 827.47z"/><path d="M870 245c0-2.76 2.24-5 5-5h170c2.76 0 5 2.24 5 5v190c0 2.76-2.24 5-5 5H875c-2.76 0-5-2.24-5-5z" stroke="#000" stroke-width="2" fill="#fff"/><path d="M870 278h180m-180 81h180" stroke="#000" stroke-width="2" fill="none"/><use xlink:href="#p" transform="matrix(1,0,0,1,878,240) translate(23.599999999999994 22.6)"/><path d="M680 485c0-2.76 2.24-5 5-5h150c2.76 0 5 2.24 5 5v110c0 2.76-2.24 5-5 5H685c-2.76 0-5-2.24-5-5z" stroke="#000" stroke-width="2" fill="#fff"/><path d="M680 518h160m-160 41h160" stroke="#000" stroke-width="2" fill="none"/><use xlink:href="#q" transform="matrix(1,0,0,1,688,480) translate(10.149999999999999 22.6)"/><path d="M880 485c0-2.76 2.24-5 5-5h150c2.76 0 5 2.24 5 5v110c0 2.76-2.24 5-5 5H885c-2.76 0-5-2.24-5-5z" stroke="#000" stroke-width="2" fill="#fff"/><path d="M880 518h160m-160 41h160" stroke="#000" stroke-width="2" fill="none"/><use xlink:href="#r" transform="matrix(1,0,0,1,888,480) translate(29.599999999999994 22.6)"/><path d="M760 479v-14c0-2.76 2.24-5 5-5h194.62c.2 0 .38-.17.38-.38v-.38" stroke="#000" stroke-width="2" fill="none"/><path d="M761 480h-2v-1h2zM964.64 458.5h-9.28l4.64-14.26z"/><path d="M966 459.5h-12l6-18.5zm-9.26-2h6.52L960 447.47z"/><path d="M960 479v-19.76" stroke="#000" stroke-width="2" fill="none"/><path d="M961 480h-2v-1h2zM964.64 458.5h-9.28l4.64-14.26z"/><path d="M966 459.5h-12l6-18.5zm-9.26-2h6.52L960 447.47z"/><path d="M1080 485c0-2.76 2.24-5 5-5h150c2.76 0 5 2.24 5 5v110c0 2.76-2.24 5-5 5h-150c-2.76 0-5-2.24-5-5z" stroke="#000" stroke-width="2" fill="#fff"/><path d="M1080 518h160m-160 41h160" stroke="#000" stroke-width="2" fill="none"/><use xlink:href="#s" transform="matrix(1,0,0,1,1088,480) translate(25.099999999999994 22.6)"/><path d="M1160 479v-14c0-2.76-2.24-5-5-5H960.38c-.2 0-.38-.17-.38-.38v-.38" stroke="#000" stroke-width="2" fill="none"/><path d="M1161 480h-2v-1h2zM964.64 458.5h-9.28l4.64-14.26z"/><path d="M966 459.5h-12l6-18.5zm-9.26-2h6.52L960 447.47z"/><path d="M441 662.67h209c2.76 0 5-2.24 5-5V345c0-2.76 2.24-5 5-5h190.76" stroke="#000" stroke-width="2" fill="none"/><path d="M441 663.67h-1v-2h1zM865.76 340l-14.26 4.64v-9.28z"/><path d="M869 340l-18.5 6v-12zm-16.5 3.26l10.03-3.26-10.03-3.26z"/><path d="M441 688h409.76" stroke="#000" stroke-width="2" fill="none"/><path d="M441 689h-1v-2h1zM865.76 688l-14.26 4.64v-9.28z"/><path d="M869 688l-18.5 6v-12zm-16.5 3.26l10.03-3.26-10.03-3.26z"/><path d="M20 825c0-2.76 2.24-5 5-5h150c2.76 0 5 2.24 5 5v190c0 2.76-2.24 5-5 5H25c-2.76 0-5-2.24-5-5z" stroke="#000" stroke-width="2" fill="#fff"/><path d="M20 858h160M20 921h160" stroke="#000" stroke-width="2" fill="none"/><use xlink:href="#t" transform="matrix(1,0,0,1,28,820) translate(5.625 22.6)"/><use xlink:href="#f" transform="matrix(1,0,0,1,32,928.6809917355372) translate(0 34.8)"/><use xlink:href="#u" transform="matrix(1,0,0,1,32,928.6809917355372) translate(15.5 34.8)"/><use xlink:href="#f" transform="matrix(1,0,0,1,32,928.6809917355372) translate(0 56.4)"/><use xlink:href="#v" transform="matrix(1,0,0,1,32,928.6809917355372) translate(15.5 56.4)"/><path d="M220 825c0-2.76 2.24-5 5-5h150c2.76 0 5 2.24 5 5v190c0 2.76-2.24 5-5 5H225c-2.76 0-5-2.24-5-5z" stroke="#000" stroke-width="2" fill="#fff"/><path d="M220 858h160m-160 63h160" stroke="#000" stroke-width="2" fill="none"/><use xlink:href="#w" transform="matrix(1,0,0,1,228,820) translate(25.074999999999996 22.6)"/><use xlink:href="#f" transform="matrix(1,0,0,1,232,928.6809917355372) translate(0 34.8)"/><use xlink:href="#u" transform="matrix(1,0,0,1,232,928.6809917355372) translate(15.5 34.8)"/><use xlink:href="#f" transform="matrix(1,0,0,1,232,928.6809917355372) translate(0 56.4)"/><use xlink:href="#v" transform="matrix(1,0,0,1,232,928.6809917355372) translate(15.5 56.4)"/><path d="M420 825c0-2.76 2.24-5 5-5h150c2.76 0 5 2.24 5 5v190c0 2.76-2.24 5-5 5H425c-2.76 0-5-2.24-5-5z" stroke="#000" stroke-width="2" fill="#fff"/><path d="M420 858h160m-160 63h160" stroke="#000" stroke-width="2" fill="none"/><g><use xlink:href="#x" transform="matrix(1,0,0,1,428,820) translate(20.574999999999996 22.6)"/></g><g><use xlink:href="#f" transform="matrix(1,0,0,1,432,928.6809917355372) translate(0 34.8)"/><use xlink:href="#u" transform="matrix(1,0,0,1,432,928.6809917355372) translate(15.5 34.8)"/><use xlink:href="#f" transform="matrix(1,0,0,1,432,928.6809917355372) translate(0 56.4)"/><use xlink:href="#v" transform="matrix(1,0,0,1,432,928.6809917355372) translate(15.5 56.4)"/></g><path d="M100 819v-44c0-2.76 2.24-5 5-5h150c2.76 0 5-2.24 5-5v-25.76" stroke="#000" stroke-width="2" fill="none"/><path d="M101 820h-2v-1h2zM264.64 738.5h-9.28l4.64-14.26z"/><path d="M266 739.5h-12l6-18.5zm-9.26-2h6.52L260 727.47z"/><path d="M300 819v-44c0-2.76-2.24-5-5-5h-30c-2.76 0-5-2.24-5-5v-25.76" stroke="#000" stroke-width="2" fill="none"/><path d="M301 820h-2v-1h2zM264.64 738.5h-9.28l4.64-14.26z"/><path d="M266 739.5h-12l6-18.5zm-9.26-2h6.52L260 727.47z"/><path d="M500 819v-44c0-2.76-2.24-5-5-5H265c-2.76 0-5-2.24-5-5v-25.76" stroke="#000" stroke-width="2" fill="none"/><path d="M501 820h-2v-1h2zM264.64 738.5h-9.28l4.64-14.26z"/><path d="M266 739.5h-12l6-18.5zm-9.26-2h6.52L260 727.47z"/><defs><path d="M199 0l-22-63H83L61 0H9l90-248h61L250 0h-51zm-33-102l-36-108c-10 38-24 72-36 108h72" id="y"/><path d="M135-194c52 0 70 43 70 98 0 56-19 99-73 100-30 1-46-15-58-35L72 0H24l1-261h50v104c11-23 29-37 60-37zM114-30c31 0 40-27 40-66 0-37-7-63-39-63s-41 28-41 65c0 36 8 64 40 64" id="z"/><path d="M137-138c1-29-70-34-71-4 15 46 118 7 119 86 1 83-164 76-172 9l43-7c4 19 20 25 44 25 33 8 57-30 24-41C81-84 22-81 20-136c-2-80 154-74 161-7" id="A"/><path d="M115-3C79 11 28 4 28-45v-112H4v-33h27l15-45h31v45h36v33H77v99c-1 23 16 31 38 25v30" id="B"/><path d="M135-150c-39-12-60 13-60 57V0H25l-1-190h47c2 13-1 29 3 40 6-28 27-53 61-41v41" id="C"/><path d="M133-34C117-15 103 5 69 4 32 3 11-16 11-54c-1-60 55-63 116-61 1-26-3-47-28-47-18 1-26 9-28 27l-52-2c7-38 36-58 82-57s74 22 75 68l1 82c-1 14 12 18 25 15v27c-30 8-71 5-69-32zm-48 3c29 0 43-24 42-57-32 0-66-3-65 30 0 17 8 27 23 27" id="D"/><path d="M190-63c-7 42-38 67-86 67-59 0-84-38-90-98-12-110 154-137 174-36l-49 2c-2-19-15-32-35-32-30 0-35 28-38 64-6 74 65 87 74 30" id="E"/><g id="a"><use transform="matrix(0.1111111111111111,0,0,0.1111111111111111,0,0)" xlink:href="#y"/><use transform="matrix(0.1111111111111111,0,0,0.1111111111111111,28.777777777777775,0)" xlink:href="#z"/><use transform="matrix(0.1111111111111111,0,0,0.1111111111111111,53.11111111111111,0)" xlink:href="#A"/><use transform="matrix(0.1111111111111111,0,0,0.1111111111111111,75.33333333333333,0)" xlink:href="#B"/><use transform="matrix(0.1111111111111111,0,0,0.1111111111111111,88.55555555555554,0)" xlink:href="#C"/><use transform="matrix(0.1111111111111111,0,0,0.1111111111111111,104.1111111111111,0)" xlink:href="#D"/><use transform="matrix(0.1111111111111111,0,0,0.1111111111111111,126.33333333333333,0)" xlink:href="#E"/><use transform="matrix(0.1111111111111111,0,0,0.1111111111111111,148.55555555555554,0)" xlink:href="#B"/></g><path d="M76-208v77h127v40H76V0H24v-248h183v40H76" id="F"/><path d="M110-194c64 0 96 36 96 99 0 64-35 99-97 99-61 0-95-36-95-99 0-62 34-99 96-99zm-1 164c35 0 45-28 45-65 0-40-10-65-43-65-34 0-45 26-45 65 0 36 10 65 43 65" id="G"/><path d="M123 10C108 53 80 86 19 72V37c35 8 53-11 59-39L3-190h52l48 148c12-52 28-100 44-148h51" id="H"/><g id="b"><use transform="matrix(0.1111111111111111,0,0,0.1111111111111111,0,0)" xlink:href="#F"/><use transform="matrix(0.1111111111111111,0,0,0.1111111111111111,24.333333333333332,0)" xlink:href="#D"/><use transform="matrix(0.1111111111111111,0,0,0.1111111111111111,46.55555555555556,0)" xlink:href="#E"/><use transform="matrix(0.1111111111111111,0,0,0.1111111111111111,68.77777777777777,0)" xlink:href="#B"/><use transform="matrix(0.1111111111111111,0,0,0.1111111111111111,82,0)" xlink:href="#G"/><use transform="matrix(0.1111111111111111,0,0,0.1111111111111111,106.33333333333333,0)" xlink:href="#C"/><use transform="matrix(0.1111111111111111,0,0,0.1111111111111111,121.88888888888889,0)" xlink:href="#H"/></g><path d="M24-248c93 1 206-16 204 79-1 75-69 88-152 82V0H24v-248zm52 121c47 0 100 7 100-41 0-47-54-39-100-39v80" id="I"/><path d="M185-48c-13 30-37 53-82 52C43 2 14-33 14-96s30-98 90-98c62 0 83 45 84 108H66c0 31 8 55 39 56 18 0 30-7 34-22zm-45-69c5-46-57-63-70-21-2 6-4 13-4 21h74" id="J"/><path d="M135-194c87-1 58 113 63 194h-50c-7-57 23-157-34-157-59 0-34 97-39 157H25l-1-190h47c2 12-1 28 3 38 12-26 28-41 61-42" id="K"/><g id="c"><use transform="matrix(0.1111111111111111,0,0,0.1111111111111111,0,0)" xlink:href="#I"/><use transform="matrix(0.1111111111111111,0,0,0.1111111111111111,26.666666666666664,0)" xlink:href="#D"/><use transform="matrix(0.1111111111111111,0,0,0.1111111111111111,48.888888888888886,0)" xlink:href="#B"/><use transform="matrix(0.1111111111111111,0,0,0.1111111111111111,62.11111111111111,0)" xlink:href="#B"/><use transform="matrix(0.1111111111111111,0,0,0.1111111111111111,75.33333333333333,0)" xlink:href="#J"/><use transform="matrix(0.1111111111111111,0,0,0.1111111111111111,97.55555555555554,0)" xlink:href="#C"/><use transform="matrix(0.1111111111111111,0,0,0.1111111111111111,113.1111111111111,0)" xlink:href="#K"/></g><path d="M15-91v-56l181-69v40L49-119l147 57v40" id="L"/><path d="M25-224v-37h50v37H25zM25 0v-190h50V0H25" id="M"/><path d="M121-226c-27-7-43 5-38 36h38v33H83V0H34v-157H6v-33h28c-9-59 32-81 87-68v32" id="N"/><path d="M15-22v-40l146-57-146-57v-40l181 69v56" id="O"/><g id="d"><use transform="matrix(0.05,0,0,0.05,0,0)" xlink:href="#L"/><use transform="matrix(0.05,0,0,0.05,10.5,0)" xlink:href="#L"/><use transform="matrix(0.05,0,0,0.05,21,0)" xlink:href="#M"/><use transform="matrix(0.05,0,0,0.05,26,0)" xlink:href="#K"/><use transform="matrix(0.05,0,0,0.05,36.95,0)" xlink:href="#B"/><use transform="matrix(0.05,0,0,0.05,42.900000000000006,0)" xlink:href="#J"/><use transform="matrix(0.05,0,0,0.05,52.900000000000006,0)" xlink:href="#C"/><use transform="matrix(0.05,0,0,0.05,59.900000000000006,0)" xlink:href="#N"/><use transform="matrix(0.05,0,0,0.05,65.85000000000001,0)" xlink:href="#D"/><use transform="matrix(0.05,0,0,0.05,75.85000000000001,0)" xlink:href="#E"/><use transform="matrix(0.05,0,0,0.05,85.85000000000001,0)" xlink:href="#J"/><use transform="matrix(0.05,0,0,0.05,95.85000000000001,0)" xlink:href="#O"/><use transform="matrix(0.05,0,0,0.05,106.35000000000001,0)" xlink:href="#O"/></g><path d="M24 0v-248h52V0H24" id="P"/><path d="M140-251c80 0 125 45 125 126S219 4 139 4C58 4 15-44 15-125s44-126 125-126zm-1 214c52 0 73-35 73-88 0-50-21-86-72-86-52 0-73 35-73 86s22 88 72 88" id="Q"/><g id="e"><use transform="matrix(0.05,0,0,0.05,0,0)" xlink:href="#P"/><use transform="matrix(0.05,0,0,0.05,5,0)" xlink:href="#Q"/><use transform="matrix(0.05,0,0,0.05,19,0)" xlink:href="#A"/><use transform="matrix(0.05,0,0,0.05,29,0)" xlink:href="#F"/><use transform="matrix(0.05,0,0,0.05,39.95,0)" xlink:href="#D"/><use transform="matrix(0.05,0,0,0.05,49.95,0)" xlink:href="#E"/><use transform="matrix(0.05,0,0,0.05,59.95,0)" xlink:href="#B"/><use transform="matrix(0.05,0,0,0.05,65.9,0)" xlink:href="#G"/><use transform="matrix(0.05,0,0,0.05,76.85000000000001,0)" xlink:href="#C"/><use transform="matrix(0.05,0,0,0.05,83.85000000000001,0)" xlink:href="#H"/></g><path d="M118-107v75H92v-75H18v-26h74v-75h26v75h74v26h-74" id="R"/><use transform="matrix(0.05,0,0,0.05,0,0)" xlink:href="#R" id="f"/><path d="M210-169c-67 3-38 105-44 169h-31v-121c0-29-5-50-35-48C34-165 62-65 56 0H25l-1-190h30c1 10-1 24 2 32 10-44 99-50 107 0 11-21 27-35 58-36 85-2 47 119 55 194h-31v-121c0-29-5-49-35-48" id="S"/><path d="M141-36C126-15 110 5 73 4 37 3 15-17 15-53c-1-64 63-63 125-63 3-35-9-54-41-54-24 1-41 7-42 31l-33-3c5-37 33-52 76-52 45 0 72 20 72 64v82c-1 20 7 32 28 27v20c-31 9-61-2-59-35zM48-53c0 20 12 33 32 33 41-3 63-29 60-74-43 2-92-5-92 41" id="T"/><path d="M143 0L79-87 56-68V0H24v-261h32v163l83-92h37l-77 82L181 0h-38" id="U"/><path d="M100-194c63 0 86 42 84 106H49c0 40 14 67 53 68 26 1 43-12 49-29l28 8c-11 28-37 45-77 45C44 4 14-33 15-96c1-61 26-98 85-98zm52 81c6-60-76-77-97-28-3 7-6 17-6 28h103" id="V"/><path d="M30-248c118-7 216 8 213 122C240-48 200 0 122 0H30v-248zM63-27c89 8 146-16 146-99s-60-101-146-95v194" id="W"/><path d="M24-231v-30h32v30H24zM24 0v-190h32V0H24" id="X"/><path d="M24 0v-261h32V0H24" id="Y"/><path d="M100-194c62-1 85 37 85 99 1 63-27 99-86 99S16-35 15-95c0-66 28-99 85-99zM99-20c44 1 53-31 53-75 0-43-8-75-51-75s-53 32-53 75 10 74 51 75" id="Z"/><path d="M177-190C167-65 218 103 67 71c-23-6-38-20-44-43l32-5c15 47 100 32 89-28v-30C133-14 115 1 83 1 29 1 15-40 15-95c0-56 16-97 71-98 29-1 48 16 59 35 1-10 0-23 2-32h30zM94-22c36 0 50-32 50-73 0-42-14-75-50-75-39 0-46 34-46 75s6 73 46 73" id="aa"/><path d="M87 75C49 33 22-17 22-94c0-76 28-126 65-167h31c-38 41-64 92-64 168S80 34 118 75H87" id="ab"/><path d="M33-261c38 41 65 92 65 168S71 34 33 75H2C39 34 66-17 66-93S39-220 2-261h31" id="ac"/><g id="g"><use transform="matrix(0.05,0,0,0.05,0,0)" xlink:href="#S"/><use transform="matrix(0.05,0,0,0.05,14.950000000000001,0)" xlink:href="#T"/><use transform="matrix(0.05,0,0,0.05,24.950000000000003,0)" xlink:href="#U"/><use transform="matrix(0.05,0,0,0.05,33.95,0)" xlink:href="#V"/><use transform="matrix(0.05,0,0,0.05,43.95,0)" xlink:href="#W"/><use transform="matrix(0.05,0,0,0.05,56.900000000000006,0)" xlink:href="#X"/><use transform="matrix(0.05,0,0,0.05,60.85,0)" xlink:href="#T"/><use transform="matrix(0.05,0,0,0.05,70.85000000000001,0)" xlink:href="#Y"/><use transform="matrix(0.05,0,0,0.05,74.80000000000001,0)" xlink:href="#Z"/><use transform="matrix(0.05,0,0,0.05,84.80000000000001,0)" xlink:href="#aa"/><use transform="matrix(0.05,0,0,0.05,94.80000000000001,0)" xlink:href="#ab"/><use transform="matrix(0.05,0,0,0.05,100.75000000000001,0)" xlink:href="#ac"/></g><path d="M33-154v-36h34v36H33zM33 0v-36h34V0H33" id="ad"/><use transform="matrix(0.05,0,0,0.05,0,0)" xlink:href="#ad" id="h"/><path d="M205 0l-28-72H64L36 0H1l101-248h38L239 0h-34zm-38-99l-47-123c-12 45-31 82-46 123h93" id="ae"/><path d="M115-194c53 0 69 39 70 98 0 66-23 100-70 100C84 3 66-7 56-30L54 0H23l1-261h32v101c10-23 28-34 59-34zm-8 174c40 0 45-34 45-75 0-40-5-75-45-74-42 0-51 32-51 76 0 43 10 73 51 73" id="af"/><path d="M135-143c-3-34-86-38-87 0 15 53 115 12 119 90S17 21 10-45l28-5c4 36 97 45 98 0-10-56-113-15-118-90-4-57 82-63 122-42 12 7 21 19 24 35" id="ag"/><path d="M59-47c-2 24 18 29 38 22v24C64 9 27 4 27-40v-127H5v-23h24l9-43h21v43h35v23H59v120" id="ah"/><path d="M114-163C36-179 61-72 57 0H25l-1-190h30c1 12-1 29 2 39 6-27 23-49 58-41v29" id="ai"/><path d="M96-169c-40 0-48 33-48 73s9 75 48 75c24 0 41-14 43-38l32 2c-6 37-31 61-74 61-59 0-76-41-82-99-10-93 101-131 147-64 4 7 5 14 7 22l-32 3c-4-21-16-35-41-35" id="aj"/><path d="M212-179c-10-28-35-45-73-45-59 0-87 40-87 99 0 60 29 101 89 101 43 0 62-24 78-52l27 14C228-24 195 4 139 4 59 4 22-46 18-125c-6-104 99-153 187-111 19 9 31 26 39 46" id="ak"/><path d="M84 4C-5 8 30-112 23-190h32v120c0 31 7 50 39 49 72-2 45-101 50-169h31l1 190h-30c-1-10 1-25-2-33-11 22-28 36-60 37" id="al"/><g id="i"><use transform="matrix(0.05,0,0,0.05,0,0)" xlink:href="#ae"/><use transform="matrix(0.05,0,0,0.05,12,0)" xlink:href="#af"/><use transform="matrix(0.05,0,0,0.05,22,0)" xlink:href="#ag"/><use transform="matrix(0.05,0,0,0.05,31,0)" xlink:href="#ah"/><use transform="matrix(0.05,0,0,0.05,36,0)" xlink:href="#ai"/><use transform="matrix(0.05,0,0,0.05,41.95,0)" xlink:href="#T"/><use transform="matrix(0.05,0,0,0.05,51.95,0)" xlink:href="#aj"/><use transform="matrix(0.05,0,0,0.05,60.95,0)" xlink:href="#ah"/><use transform="matrix(0.05,0,0,0.05,65.95,0)" xlink:href="#ak"/><use transform="matrix(0.05,0,0,0.05,78.9,0)" xlink:href="#Z"/><use transform="matrix(0.05,0,0,0.05,88.9,0)" xlink:href="#al"/><use transform="matrix(0.05,0,0,0.05,98.9,0)" xlink:href="#ai"/><use transform="matrix(0.05,0,0,0.05,104.85000000000001,0)" xlink:href="#X"/><use transform="matrix(0.05,0,0,0.05,108.80000000000001,0)" xlink:href="#V"/><use transform="matrix(0.05,0,0,0.05,118.80000000000001,0)" xlink:href="#ai"/></g><path d="M160-131c35 5 61 23 61 61C221 17 115-2 30 0v-248c76 3 177-17 177 60 0 33-19 50-47 57zm-97-11c50-1 110 9 110-42 0-47-63-36-110-37v79zm0 115c55-2 124 14 124-45 0-56-70-42-124-44v89" id="am"/><path d="M117-194c89-4 53 116 60 194h-32v-121c0-31-8-49-39-48C34-167 62-67 57 0H25l-1-190h30c1 10-1 24 2 32 11-22 29-35 61-36" id="an"/><g id="j"><use transform="matrix(0.05,0,0,0.05,0,0)" xlink:href="#S"/><use transform="matrix(0.05,0,0,0.05,14.950000000000001,0)" xlink:href="#T"/><use transform="matrix(0.05,0,0,0.05,24.950000000000003,0)" xlink:href="#U"/><use transform="matrix(0.05,0,0,0.05,33.95,0)" xlink:href="#V"/><use transform="matrix(0.05,0,0,0.05,43.95,0)" xlink:href="#am"/><use transform="matrix(0.05,0,0,0.05,55.95,0)" xlink:href="#al"/><use transform="matrix(0.05,0,0,0.05,65.95,0)" xlink:href="#ah"/><use transform="matrix(0.05,0,0,0.05,70.95,0)" xlink:href="#ah"/><use transform="matrix(0.05,0,0,0.05,75.95,0)" xlink:href="#Z"/><use transform="matrix(0.05,0,0,0.05,85.95,0)" xlink:href="#an"/><use transform="matrix(0.05,0,0,0.05,95.95,0)" xlink:href="#ab"/><use transform="matrix(0.05,0,0,0.05,101.9,0)" xlink:href="#ac"/></g><g id="k"><use transform="matrix(0.05,0,0,0.05,0,0)" xlink:href="#ae"/><use transform="matrix(0.05,0,0,0.05,12,0)" xlink:href="#af"/><use transform="matrix(0.05,0,0,0.05,22,0)" xlink:href="#ag"/><use transform="matrix(0.05,0,0,0.05,31,0)" xlink:href="#ah"/><use transform="matrix(0.05,0,0,0.05,36,0)" xlink:href="#ai"/><use transform="matrix(0.05,0,0,0.05,41.95,0)" xlink:href="#T"/><use transform="matrix(0.05,0,0,0.05,51.95,0)" xlink:href="#aj"/><use transform="matrix(0.05,0,0,0.05,60.95,0)" xlink:href="#ah"/><use transform="matrix(0.05,0,0,0.05,65.95,0)" xlink:href="#ak"/><use transform="matrix(0.05,0,0,0.05,78.9,0)" xlink:href="#Z"/><use transform="matrix(0.05,0,0,0.05,88.9,0)" xlink:href="#al"/><use transform="matrix(0.05,0,0,0.05,98.9,0)" xlink:href="#ai"/><use transform="matrix(0.05,0,0,0.05,104.85000000000001,0)" xlink:href="#X"/><use transform="matrix(0.05,0,0,0.05,108.80000000000001,0)" xlink:href="#V"/><use transform="matrix(0.05,0,0,0.05,118.80000000000001,0)" xlink:href="#ai"/></g><path d="M187 0l-14-72H61L19 0h-37l149-248h38L221 0h-34zm-19-99l-22-123L76-99h92" id="ao"/><path d="M68-162c25-46 127-43 121 31C183-60 169 1 98 4 69 5 53-11 43-31L36 0H5l52-261h31zm88 36c2-27-9-43-34-43-55 0-70 51-70 103 0 29 15 45 43 46 52 0 58-58 61-106" id="ap"/><path d="M55-144c13 50 104 24 104 88C159 21 15 23 1-39l26-10c6 40 102 42 102-4-13-50-104-23-104-87 0-71 143-71 148-8l-29 4c-5-35-85-37-89 0" id="aq"/><path d="M51-54c-9 22 5 41 31 30L79-1C43 14 10-4 19-52l22-115H19l5-23h22l19-43h21l-9 43h35l-4 23H73" id="ar"/><path d="M66-151c12-25 30-51 66-40l-6 26C45-176 58-65 38 0H6l36-190h30" id="as"/><path d="M165-48c-4 18 1 34 23 27l-3 20c-29 8-62 0-52-35h-2C116-14 99 4 63 4 30 4 8-16 8-49c0-68 71-67 138-67 10-26 0-56-31-54-26 1-42 9-47 31l-32-5c8-67 160-71 144 15-5 28-9 54-15 81zM42-50c3 52 80 24 89-6 7-12 7-24 11-38-47 1-103-4-100 44" id="at"/><path d="M44-68c0 29 11 47 38 47 30 0 42-19 51-41l28 9C148-21 126 4 82 4 31 4 10-29 12-85c3-77 74-140 146-93 12 8 15 23 18 40l-31 5c-1-22-13-36-36-36-52 0-65 49-65 101" id="au"/><path d="M219-77C219 17 104-2 11 0l48-248c73 2 169-15 169 57 0 38-24 54-60 60 29 5 51 21 51 54zm-26-111c0-44-62-31-105-33l-16 79c55 0 121 9 121-46zm-7 110c-1-49-69-36-119-38L50-27c61-1 137 12 136-51" id="av"/><path d="M67 3c-93-2-31-127-26-193h32L48-50c-3 39 53 32 70 12 30-34 30-101 43-152h32L157 0h-30c1-10 6-24 4-33-14 20-29 37-64 36" id="aw"/><path d="M30-147c31-64 166-65 159 27C183-49 158 1 86 4 9 8 1-88 30-147zM88-20c53 0 68-48 68-100 0-31-11-51-44-50-52 1-68 46-68 97 0 32 13 53 44 53" id="ax"/><path d="M67-158c22-48 132-52 116 29L158 0h-32l25-140c3-38-53-32-70-12C52-117 51-52 38 0H6l36-190h30" id="ay"/><g id="l"><use transform="matrix(0.05,0,0,0.05,0,0)" xlink:href="#ao"/><use transform="matrix(0.05,0,0,0.05,12,0)" xlink:href="#ap"/><use transform="matrix(0.05,0,0,0.05,22,0)" xlink:href="#aq"/><use transform="matrix(0.05,0,0,0.05,31,0)" xlink:href="#ar"/><use transform="matrix(0.05,0,0,0.05,36,0)" xlink:href="#as"/><use transform="matrix(0.05,0,0,0.05,41.95,0)" xlink:href="#at"/><use transform="matrix(0.05,0,0,0.05,51.95,0)" xlink:href="#au"/><use transform="matrix(0.05,0,0,0.05,60.95,0)" xlink:href="#ar"/><use transform="matrix(0.05,0,0,0.05,65.95,0)" xlink:href="#av"/><use transform="matrix(0.05,0,0,0.05,77.95,0)" xlink:href="#aw"/><use transform="matrix(0.05,0,0,0.05,87.95,0)" xlink:href="#ar"/><use transform="matrix(0.05,0,0,0.05,92.95,0)" xlink:href="#ar"/><use transform="matrix(0.05,0,0,0.05,97.95,0)" xlink:href="#ax"/><use transform="matrix(0.05,0,0,0.05,107.95,0)" xlink:href="#ay"/></g><path d="M266 0h-40l-56-210L115 0H75L2-248h35L96-30l15-64 43-154h32l59 218 59-218h35" id="az"/><path d="M85-194c31 0 48 13 60 33l-1-100h32l1 261h-30c-2-10 0-23-3-31C134-8 116 4 85 4 32 4 16-35 15-94c0-66 23-100 70-100zm9 24c-40 0-46 34-46 75 0 40 6 74 45 74 42 0 51-32 51-76 0-42-9-74-50-73" id="aA"/><path d="M206 0h-36l-40-164L89 0H53L-1-190h32L70-26l43-164h34l41 164 42-164h31" id="aB"/><g id="m"><use transform="matrix(0.05,0,0,0.05,0,0)" xlink:href="#az"/><use transform="matrix(0.05,0,0,0.05,16.95,0)" xlink:href="#X"/><use transform="matrix(0.05,0,0,0.05,20.9,0)" xlink:href="#an"/><use transform="matrix(0.05,0,0,0.05,30.899999999999995,0)" xlink:href="#aA"/><use transform="matrix(0.05,0,0,0.05,40.9,0)" xlink:href="#Z"/><use transform="matrix(0.05,0,0,0.05,50.9,0)" xlink:href="#aB"/><use transform="matrix(0.05,0,0,0.05,63.85,0)" xlink:href="#ag"/><use transform="matrix(0.05,0,0,0.05,72.85,0)" xlink:href="#am"/><use transform="matrix(0.05,0,0,0.05,84.85,0)" xlink:href="#al"/><use transform="matrix(0.05,0,0,0.05,94.85,0)" xlink:href="#ah"/><use transform="matrix(0.05,0,0,0.05,99.85,0)" xlink:href="#ah"/><use transform="matrix(0.05,0,0,0.05,104.84999999999998,0)" xlink:href="#Z"/><use transform="matrix(0.05,0,0,0.05,114.84999999999998,0)" xlink:href="#an"/></g><path d="M240 0l2-218c-23 76-54 145-80 218h-23L58-218 59 0H30v-248h44l77 211c21-75 51-140 76-211h43V0h-30" id="aC"/><g id="n"><use transform="matrix(0.05,0,0,0.05,0,0)" xlink:href="#aC"/><use transform="matrix(0.05,0,0,0.05,14.950000000000001,0)" xlink:href="#T"/><use transform="matrix(0.05,0,0,0.05,24.950000000000003,0)" xlink:href="#aj"/><use transform="matrix(0.05,0,0,0.05,33.95,0)" xlink:href="#am"/><use transform="matrix(0.05,0,0,0.05,45.95,0)" xlink:href="#al"/><use transform="matrix(0.05,0,0,0.05,55.95,0)" xlink:href="#ah"/><use transform="matrix(0.05,0,0,0.05,60.95,0)" xlink:href="#ah"/><use transform="matrix(0.05,0,0,0.05,65.95,0)" xlink:href="#Z"/><use transform="matrix(0.05,0,0,0.05,75.95,0)" xlink:href="#an"/></g><path d="M30 0v-248h33v221h125V0H30" id="aD"/><path d="M141 0L90-78 38 0H4l68-98-65-92h35l48 74 47-74h35l-64 92 68 98h-35" id="aE"/><g id="o"><use transform="matrix(0.05,0,0,0.05,0,0)" xlink:href="#aD"/><use transform="matrix(0.05,0,0,0.05,10,0)" xlink:href="#X"/><use transform="matrix(0.05,0,0,0.05,13.949999999999998,0)" xlink:href="#an"/><use transform="matrix(0.05,0,0,0.05,23.95,0)" xlink:href="#al"/><use transform="matrix(0.05,0,0,0.05,33.95,0)" xlink:href="#aE"/><use transform="matrix(0.05,0,0,0.05,42.95,0)" xlink:href="#am"/><use transform="matrix(0.05,0,0,0.05,54.95,0)" xlink:href="#al"/><use transform="matrix(0.05,0,0,0.05,64.95,0)" xlink:href="#ah"/><use transform="matrix(0.05,0,0,0.05,69.95,0)" xlink:href="#ah"/><use transform="matrix(0.05,0,0,0.05,74.95,0)" xlink:href="#Z"/><use transform="matrix(0.05,0,0,0.05,84.95,0)" xlink:href="#an"/></g><path d="M248-139C247-14 144 9 11 0l48-248c105-6 190 8 189 109zm-34 0c1-70-52-87-126-82L50-27c98 7 163-21 164-112" id="aF"/><path d="M50-231l6-30h32l-6 30H50zM6 0l37-190h31L37 0H6" id="aG"/><path d="M6 0l50-261h32L37 0H6" id="aH"/><path d="M103-194c29 0 47 14 56 36 2-11 5-23 8-32h30L160-5C157 61 82 97 21 62 9 55 4 45 1 30l28-7c7 42 83 31 92-3 4-16 9-38 13-55-13 20-29 36-62 36-40 0-60-25-60-64 0-71 23-131 91-131zm4 24c-53 0-58 54-61 104-2 27 10 44 36 44 49 0 65-50 67-102 1-29-15-46-42-46" id="aI"/><g id="p"><use transform="matrix(0.05,0,0,0.05,0,0)" xlink:href="#ao"/><use transform="matrix(0.05,0,0,0.05,12,0)" xlink:href="#ap"/><use transform="matrix(0.05,0,0,0.05,22,0)" xlink:href="#aq"/><use transform="matrix(0.05,0,0,0.05,31,0)" xlink:href="#ar"/><use transform="matrix(0.05,0,0,0.05,36,0)" xlink:href="#as"/><use transform="matrix(0.05,0,0,0.05,41.95,0)" xlink:href="#at"/><use transform="matrix(0.05,0,0,0.05,51.95,0)" xlink:href="#au"/><use transform="matrix(0.05,0,0,0.05,60.95,0)" xlink:href="#ar"/><use transform="matrix(0.05,0,0,0.05,65.95,0)" xlink:href="#aF"/><use transform="matrix(0.05,0,0,0.05,78.9,0)" xlink:href="#aG"/><use transform="matrix(0.05,0,0,0.05,82.85000000000001,0)" xlink:href="#at"/><use transform="matrix(0.05,0,0,0.05,92.85000000000001,0)" xlink:href="#aH"/><use transform="matrix(0.05,0,0,0.05,96.80000000000001,0)" xlink:href="#ax"/><use transform="matrix(0.05,0,0,0.05,106.80000000000001,0)" xlink:href="#aI"/></g><g id="q"><use transform="matrix(0.05,0,0,0.05,0,0)" xlink:href="#az"/><use transform="matrix(0.05,0,0,0.05,16.95,0)" xlink:href="#X"/><use transform="matrix(0.05,0,0,0.05,20.9,0)" xlink:href="#an"/><use transform="matrix(0.05,0,0,0.05,30.899999999999995,0)" xlink:href="#aA"/><use transform="matrix(0.05,0,0,0.05,40.9,0)" xlink:href="#Z"/><use transform="matrix(0.05,0,0,0.05,50.9,0)" xlink:href="#aB"/><use transform="matrix(0.05,0,0,0.05,63.85,0)" xlink:href="#ag"/><use transform="matrix(0.05,0,0,0.05,72.85,0)" xlink:href="#W"/><use transform="matrix(0.05,0,0,0.05,85.8,0)" xlink:href="#X"/><use transform="matrix(0.05,0,0,0.05,89.75,0)" xlink:href="#T"/><use transform="matrix(0.05,0,0,0.05,99.75,0)" xlink:href="#Y"/><use transform="matrix(0.05,0,0,0.05,103.7,0)" xlink:href="#Z"/><use transform="matrix(0.05,0,0,0.05,113.7,0)" xlink:href="#aa"/></g><g id="r"><use transform="matrix(0.05,0,0,0.05,0,0)" xlink:href="#aC"/><use transform="matrix(0.05,0,0,0.05,14.950000000000001,0)" xlink:href="#T"/><use transform="matrix(0.05,0,0,0.05,24.950000000000003,0)" xlink:href="#aj"/><use transform="matrix(0.05,0,0,0.05,33.95,0)" xlink:href="#W"/><use transform="matrix(0.05,0,0,0.05,46.900000000000006,0)" xlink:href="#X"/><use transform="matrix(0.05,0,0,0.05,50.85000000000001,0)" xlink:href="#T"/><use transform="matrix(0.05,0,0,0.05,60.85,0)" xlink:href="#Y"/><use transform="matrix(0.05,0,0,0.05,64.80000000000001,0)" xlink:href="#Z"/><use transform="matrix(0.05,0,0,0.05,74.80000000000001,0)" xlink:href="#aa"/></g><g id="s"><use transform="matrix(0.05,0,0,0.05,0,0)" xlink:href="#aD"/><use transform="matrix(0.05,0,0,0.05,10,0)" xlink:href="#X"/><use transform="matrix(0.05,0,0,0.05,13.949999999999998,0)" xlink:href="#an"/><use transform="matrix(0.05,0,0,0.05,23.95,0)" xlink:href="#al"/><use transform="matrix(0.05,0,0,0.05,33.95,0)" xlink:href="#aE"/><use transform="matrix(0.05,0,0,0.05,42.95,0)" xlink:href="#W"/><use transform="matrix(0.05,0,0,0.05,55.900000000000006,0)" xlink:href="#X"/><use transform="matrix(0.05,0,0,0.05,59.85,0)" xlink:href="#T"/><use transform="matrix(0.05,0,0,0.05,69.85000000000001,0)" xlink:href="#Y"/><use transform="matrix(0.05,0,0,0.05,73.80000000000001,0)" xlink:href="#Z"/><use transform="matrix(0.05,0,0,0.05,83.80000000000001,0)" xlink:href="#aa"/></g><path d="M63-220v92h138v28H63V0H30v-248h175v28H63" id="aJ"/><path d="M179-190L93 31C79 59 56 82 12 73V49c39 6 53-20 64-50L1-190h34L92-34l54-156h33" id="aK"/><g id="t"><use transform="matrix(0.05,0,0,0.05,0,0)" xlink:href="#az"/><use transform="matrix(0.05,0,0,0.05,16.95,0)" xlink:href="#X"/><use transform="matrix(0.05,0,0,0.05,20.9,0)" xlink:href="#an"/><use transform="matrix(0.05,0,0,0.05,30.899999999999995,0)" xlink:href="#aA"/><use transform="matrix(0.05,0,0,0.05,40.9,0)" xlink:href="#Z"/><use transform="matrix(0.05,0,0,0.05,50.9,0)" xlink:href="#aB"/><use transform="matrix(0.05,0,0,0.05,63.85,0)" xlink:href="#ag"/><use transform="matrix(0.05,0,0,0.05,72.85,0)" xlink:href="#aJ"/><use transform="matrix(0.05,0,0,0.05,83.8,0)" xlink:href="#T"/><use transform="matrix(0.05,0,0,0.05,93.8,0)" xlink:href="#aj"/><use transform="matrix(0.05,0,0,0.05,102.80000000000001,0)" xlink:href="#ah"/><use transform="matrix(0.05,0,0,0.05,107.80000000000001,0)" xlink:href="#Z"/><use transform="matrix(0.05,0,0,0.05,117.80000000000001,0)" xlink:href="#ai"/><use transform="matrix(0.05,0,0,0.05,123.75,0)" xlink:href="#aK"/></g><g id="u"><use transform="matrix(0.05,0,0,0.05,0,0)" xlink:href="#S"/><use transform="matrix(0.05,0,0,0.05,14.950000000000001,0)" xlink:href="#T"/><use transform="matrix(0.05,0,0,0.05,24.950000000000003,0)" xlink:href="#U"/><use transform="matrix(0.05,0,0,0.05,33.95,0)" xlink:href="#V"/><use transform="matrix(0.05,0,0,0.05,43.95,0)" xlink:href="#W"/><use transform="matrix(0.05,0,0,0.05,56.900000000000006,0)" xlink:href="#X"/><use transform="matrix(0.05,0,0,0.05,60.85,0)" xlink:href="#T"/><use transform="matrix(0.05,0,0,0.05,70.85000000000001,0)" xlink:href="#Y"/><use transform="matrix(0.05,0,0,0.05,74.80000000000001,0)" xlink:href="#Z"/><use transform="matrix(0.05,0,0,0.05,84.80000000000001,0)" xlink:href="#aa"/><use transform="matrix(0.05,0,0,0.05,94.80000000000001,0)" xlink:href="#ab"/><use transform="matrix(0.05,0,0,0.05,100.75000000000001,0)" xlink:href="#ac"/></g><g id="v"><use transform="matrix(0.05,0,0,0.05,0,0)" xlink:href="#S"/><use transform="matrix(0.05,0,0,0.05,14.950000000000001,0)" xlink:href="#T"/><use transform="matrix(0.05,0,0,0.05,24.950000000000003,0)" xlink:href="#U"/><use transform="matrix(0.05,0,0,0.05,33.95,0)" xlink:href="#V"/><use transform="matrix(0.05,0,0,0.05,43.95,0)" xlink:href="#am"/><use transform="matrix(0.05,0,0,0.05,55.95,0)" xlink:href="#al"/><use transform="matrix(0.05,0,0,0.05,65.95,0)" xlink:href="#ah"/><use transform="matrix(0.05,0,0,0.05,70.95,0)" xlink:href="#ah"/><use transform="matrix(0.05,0,0,0.05,75.95,0)" xlink:href="#Z"/><use transform="matrix(0.05,0,0,0.05,85.95,0)" xlink:href="#an"/><use transform="matrix(0.05,0,0,0.05,95.95,0)" xlink:href="#ab"/><use transform="matrix(0.05,0,0,0.05,101.9,0)" xlink:href="#ac"/></g><g id="w"><use transform="matrix(0.05,0,0,0.05,0,0)" xlink:href="#aC"/><use transform="matrix(0.05,0,0,0.05,14.950000000000001,0)" xlink:href="#T"/><use transform="matrix(0.05,0,0,0.05,24.950000000000003,0)" xlink:href="#aj"/><use transform="matrix(0.05,0,0,0.05,33.95,0)" xlink:href="#aJ"/><use transform="matrix(0.05,0,0,0.05,44.900000000000006,0)" xlink:href="#T"/><use transform="matrix(0.05,0,0,0.05,54.900000000000006,0)" xlink:href="#aj"/><use transform="matrix(0.05,0,0,0.05,63.900000000000006,0)" xlink:href="#ah"/><use transform="matrix(0.05,0,0,0.05,68.9,0)" xlink:href="#Z"/><use transform="matrix(0.05,0,0,0.05,78.9,0)" xlink:href="#ai"/><use transform="matrix(0.05,0,0,0.05,84.85000000000001,0)" xlink:href="#aK"/></g><g id="x"><use transform="matrix(0.05,0,0,0.05,0,0)" xlink:href="#aD"/><use transform="matrix(0.05,0,0,0.05,10,0)" xlink:href="#X"/><use transform="matrix(0.05,0,0,0.05,13.949999999999998,0)" xlink:href="#an"/><use transform="matrix(0.05,0,0,0.05,23.95,0)" xlink:href="#al"/><use transform="matrix(0.05,0,0,0.05,33.95,0)" xlink:href="#aE"/><use transform="matrix(0.05,0,0,0.05,42.95,0)" xlink:href="#aJ"/><use transform="matrix(0.05,0,0,0.05,53.900000000000006,0)" xlink:href="#T"/><use transform="matrix(0.05,0,0,0.05,63.900000000000006,0)" xlink:href="#aj"/><use transform="matrix(0.05,0,0,0.05,72.9,0)" xlink:href="#ah"/><use transform="matrix(0.05,0,0,0.05,77.9,0)" xlink:href="#Z"/><use transform="matrix(0.05,0,0,0.05,87.9,0)" xlink:href="#ai"/><use transform="matrix(0.05,0,0,0.05,93.85000000000001,0)" xlink:href="#aK"/></g></defs></g></svg>