<svg xmlns="http://www.w3.org/2000/svg" xmlns:xlink="http://www.w3.org/1999/xlink" xmlns:lucid="lucid" width="1710" height="1165.83"><g transform="translate(-8 -20)" lucid:page-tab-id="0_0"><path d="M0 0h1760v1360H0z" fill="#fff"/><path d="M350 45c0-2.76 2.24-5 5-5h210c2.76 0 5 2.24 5 5v70c0 2.76-2.24 5-5 5H355c-2.76 0-5-2.24-5-5z" stroke="#000" stroke-width="2" fill="#fff"/><use xlink:href="#a" transform="matrix(1,0,0,1,350,40) translate(72.555 44.4)"/><use xlink:href="#b" transform="matrix(1,0,0,1,350,40) translate(109.555 44.4)"/><path d="M280 445c0-2.76 2.24-5 5-5h350c2.76 0 5 2.24 5 5v250c0 2.76-2.24 5-5 5H285c-2.76 0-5-2.24-5-5z" stroke="#000" stroke-width="2" fill="#fff"/><path d="M280 478h360m-360 40h360" stroke="#000" stroke-width="2" fill="none"/><use xlink:href="#c" transform="matrix(1,0,0,1,288,440) translate(114.3 22.6)"/><use xlink:href="#d" transform="matrix(1,0,0,1,288,440) translate(155.85 22.6)"/><use xlink:href="#e" transform="matrix(1,0,0,1,292,485.6) translate(0 16.1)"/><use xlink:href="#f" transform="matrix(1,0,0,1,292,485.6) translate(15 16.1)"/><use xlink:href="#g" transform="matrix(1,0,0,1,292,485.6) translate(154.67037037037036 16.1)"/><use xlink:href="#h" transform="matrix(1,0,0,1,292,485.6) translate(170.17037037037036 16.1)"/><use xlink:href="#i" transform="matrix(1,0,0,1,292,526.43125) translate(0 21.800000000000004)"/><use xlink:href="#j" transform="matrix(1,0,0,1,292,526.43125) translate(15.5 21.800000000000004)"/><use xlink:href="#k" transform="matrix(1,0,0,1,292,526.43125) translate(207.55 21.800000000000004)"/><use xlink:href="#l" transform="matrix(1,0,0,1,292,526.43125) translate(0 43.400000000000006)"/><use xlink:href="#m" transform="matrix(1,0,0,1,292,526.43125) translate(0 65.00000000000001)"/><use xlink:href="#n" transform="matrix(1,0,0,1,292,526.43125) translate(15.5 65.00000000000001)"/><use xlink:href="#i" transform="matrix(1,0,0,1,292,526.43125) translate(0 86.60000000000002)"/><use xlink:href="#o" transform="matrix(1,0,0,1,292,526.43125) translate(15.5 86.60000000000002)"/><use xlink:href="#i" transform="matrix(1,0,0,1,292,526.43125) translate(0 108.20000000000002)"/><use xlink:href="#p" transform="matrix(1,0,0,1,292,526.43125) translate(15.5 108.20000000000002)"/><use xlink:href="#i" transform="matrix(1,0,0,1,292,526.43125) translate(0 129.8)"/><use xlink:href="#q" transform="matrix(1,0,0,1,292,526.43125) translate(15.5 129.8)"/><use xlink:href="#r" transform="matrix(1,0,0,1,292,526.43125) translate(0 151.4)"/><path d="M280 205c0-2.76 2.24-5 5-5h350c2.76 0 5 2.24 5 5v150c0 2.76-2.24 5-5 5H285c-2.76 0-5-2.24-5-5z" stroke="#000" stroke-width="2" fill="#fff"/><path d="M280 238h360" stroke="#000" stroke-width="2" fill="none"/><use xlink:href="#s" transform="matrix(1,0,0,1,288,200) translate(99.35 22.6)"/><use xlink:href="#i" transform="matrix(1,0,0,1,292,245.6) translate(0 14.4)"/><use xlink:href="#n" transform="matrix(1,0,0,1,292,245.6) translate(15.5 14.4)"/><use xlink:href="#i" transform="matrix(1,0,0,1,292,245.6) translate(0 36)"/><use xlink:href="#o" transform="matrix(1,0,0,1,292,245.6) translate(15.5 36)"/><use xlink:href="#i" transform="matrix(1,0,0,1,292,245.6) translate(0 57.6)"/><use xlink:href="#p" transform="matrix(1,0,0,1,292,245.6) translate(15.5 57.6)"/><use xlink:href="#i" transform="matrix(1,0,0,1,292,245.6) translate(0 79.20000000000002)"/><use xlink:href="#q" transform="matrix(1,0,0,1,292,245.6) translate(15.5 79.20000000000002)"/><use xlink:href="#r" transform="matrix(1,0,0,1,292,245.6) translate(0 100.80000000000001)"/><path d="M460 121v59.76" stroke="#000" stroke-width="2" fill="none"/><path d="M461 121h-2v-1h2zM460 195.76l-4.64-14.26h9.28z"/><path d="M460 199l-6-18.5h12zm-3.26-16.5l3.26 10.03 3.26-10.03z"/><path d="M819 445c0-2.76 2.24-5 5-5h350c2.76 0 5 2.24 5 5v150c0 2.76-2.24 5-5 5H824c-2.76 0-5-2.24-5-5z" stroke="#000" stroke-width="2" fill="#fff"/><path d="M819 478h360" stroke="#000" stroke-width="2" fill="none"/><use xlink:href="#t" transform="matrix(1,0,0,1,827,440) translate(110.3 22.6)"/><use xlink:href="#i" transform="matrix(1,0,0,1,831,485.6) translate(0 57.1)"/><use xlink:href="#u" transform="matrix(1,0,0,1,831,485.6) translate(15.5 57.1)"/><path d="M641 497.33h158.76" stroke="#000" stroke-width="2" fill="none"/><path d="M641 498.33h-1v-2h1zM814.76 497.33l-14.26 4.64v-9.27z"/><path d="M818 497.33l-18.5 6.02v-12.03zm-16.5 3.26l10.03-3.27-10.03-3.26z"/><path d="M350 866.5c0-2.76 2.24-5 5-5h310c2.76 0 5 2.24 5 5v190c0 2.76-2.24 5-5 5H355c-2.76 0-5-2.24-5-5z" stroke="#000" stroke-width="2" fill="#fff"/><path d="M350 899h320m-320 44h320" stroke="#000" stroke-width="2" fill="none"/><use xlink:href="#v" transform="matrix(1,0,0,1,358,861.5) translate(121.07499999999999 22.6)"/><use xlink:href="#w" transform="matrix(1,0,0,1,362,907.1) translate(0 17.6)"/><use xlink:href="#x" transform="matrix(1,0,0,1,362,907.1) translate(15 17.6)"/><use xlink:href="#i" transform="matrix(1,0,0,1,362,950.716) translate(0 22.69999999999999)"/><use xlink:href="#n" transform="matrix(1,0,0,1,362,950.716) translate(15.5 22.69999999999999)"/><use xlink:href="#i" transform="matrix(1,0,0,1,362,950.716) translate(0 44.29999999999999)"/><use xlink:href="#o" transform="matrix(1,0,0,1,362,950.716) translate(15.5 44.29999999999999)"/><use xlink:href="#i" transform="matrix(1,0,0,1,362,950.716) translate(0 65.89999999999999)"/><use xlink:href="#p" transform="matrix(1,0,0,1,362,950.716) translate(15.5 65.89999999999999)"/><use xlink:href="#i" transform="matrix(1,0,0,1,362,950.716) translate(0 87.5)"/><use xlink:href="#y" transform="matrix(1,0,0,1,362,950.716) translate(15.5 87.5)"/><path d="M690 866.5c0-2.76 2.24-5 5-5h310c2.76 0 5 2.24 5 5v190c0 2.76-2.24 5-5 5H695c-2.76 0-5-2.24-5-5z" stroke="#000" stroke-width="2" fill="#fff"/><path d="M690 899h320m-320 44h320" stroke="#000" stroke-width="2" fill="none"/><use xlink:href="#z" transform="matrix(1,0,0,1,698,861.5) translate(116.57499999999999 22.6)"/><use xlink:href="#w" transform="matrix(1,0,0,1,702,907.1) translate(0 17.6)"/><use xlink:href="#x" transform="matrix(1,0,0,1,702,907.1) translate(15 17.6)"/><use xlink:href="#i" transform="matrix(1,0,0,1,702,950.716) translate(0 22.69999999999999)"/><use xlink:href="#n" transform="matrix(1,0,0,1,702,950.716) translate(15.5 22.69999999999999)"/><use xlink:href="#i" transform="matrix(1,0,0,1,702,950.716) translate(0 44.29999999999999)"/><use xlink:href="#o" transform="matrix(1,0,0,1,702,950.716) translate(15.5 44.29999999999999)"/><use xlink:href="#i" transform="matrix(1,0,0,1,702,950.716) translate(0 65.89999999999999)"/><use xlink:href="#p" transform="matrix(1,0,0,1,702,950.716) translate(15.5 65.89999999999999)"/><use xlink:href="#i" transform="matrix(1,0,0,1,702,950.716) translate(0 87.5)"/><use xlink:href="#y" transform="matrix(1,0,0,1,702,950.716) translate(15.5 87.5)"/><path d="M1030 866.5c0-2.76 2.24-5 5-5h310c2.76 0 5 2.24 5 5v190c0 2.76-2.24 5-5 5h-310c-2.76 0-5-2.24-5-5z" stroke="#000" stroke-width="2" fill="#fff"/><path d="M1030 899h320m-320 44h320" stroke="#000" stroke-width="2" fill="none"/><use xlink:href="#A" transform="matrix(1,0,0,1,1038,861.5) translate(109.6 22.6)"/><use xlink:href="#w" transform="matrix(1,0,0,1,1042,907.1) translate(0 17.6)"/><use xlink:href="#x" transform="matrix(1,0,0,1,1042,907.1) translate(15 17.6)"/><use xlink:href="#i" transform="matrix(1,0,0,1,1042,950.716) translate(0 22.69999999999999)"/><use xlink:href="#n" transform="matrix(1,0,0,1,1042,950.716) translate(15.5 22.69999999999999)"/><use xlink:href="#i" transform="matrix(1,0,0,1,1042,950.716) translate(0 44.29999999999999)"/><use xlink:href="#o" transform="matrix(1,0,0,1,1042,950.716) translate(15.5 44.29999999999999)"/><use xlink:href="#i" transform="matrix(1,0,0,1,1042,950.716) translate(0 65.89999999999999)"/><use xlink:href="#p" transform="matrix(1,0,0,1,1042,950.716) translate(15.5 65.89999999999999)"/><use xlink:href="#i" transform="matrix(1,0,0,1,1042,950.716) translate(0 87.5)"/><use xlink:href="#y" transform="matrix(1,0,0,1,1042,950.716) translate(15.5 87.5)"/><path d="M1378 866.5c0-2.76 2.24-5 5-5h310c2.76 0 5 2.24 5 5v190c0 2.76-2.24 5-5 5h-310c-2.76 0-5-2.24-5-5z" stroke="#000" stroke-width="2" fill="#fff"/><path d="M1378 899h320m-320 44h320" stroke="#000" stroke-width="2" fill="none"/><g><use xlink:href="#B" transform="matrix(1,0,0,1,1386,861.5) translate(101.025 22.6)"/></g><g><use xlink:href="#w" transform="matrix(1,0,0,1,1390,907.1) translate(0 17.6)"/><use xlink:href="#x" transform="matrix(1,0,0,1,1390,907.1) translate(15 17.6)"/></g><g><use xlink:href="#i" transform="matrix(1,0,0,1,1390,950.716) translate(0 22.69999999999999)"/><use xlink:href="#n" transform="matrix(1,0,0,1,1390,950.716) translate(15.5 22.69999999999999)"/><use xlink:href="#i" transform="matrix(1,0,0,1,1390,950.716) translate(0 44.29999999999999)"/><use xlink:href="#o" transform="matrix(1,0,0,1,1390,950.716) translate(15.5 44.29999999999999)"/><use xlink:href="#i" transform="matrix(1,0,0,1,1390,950.716) translate(0 65.89999999999999)"/><use xlink:href="#p" transform="matrix(1,0,0,1,1390,950.716) translate(15.5 65.89999999999999)"/><use xlink:href="#i" transform="matrix(1,0,0,1,1390,950.716) translate(0 87.5)"/><use xlink:href="#y" transform="matrix(1,0,0,1,1390,950.716) translate(15.5 87.5)"/></g><path d="M510 860.5V735.75c0-2.76 2.24-5 5-5h479c2.76 0 5-2.24 5-5v-106.5" stroke="#000" stroke-width="2" fill="none"/><path d="M511 861.5h-2v-1h2zM1003.64 618.5h-9.28l4.64-14.26z"/><path d="M1005 619.5h-12l6-18.5zm-9.26-2h6.52L999 607.47z"/><path d="M850 860.5V735.75c0-2.76 2.24-5 5-5h139c2.76 0 5-2.24 5-5v-106.5" stroke="#000" stroke-width="2" fill="none"/><path d="M851 861.5h-2v-1h2zM1003.64 618.5h-9.28l4.64-14.26z"/><path d="M1005 619.5h-12l6-18.5zm-9.26-2h6.52L999 607.47z"/><path d="M1190 860.5V735.75c0-2.76-2.24-5-5-5h-181c-2.76 0-5-2.24-5-5v-106.5" stroke="#000" stroke-width="2" fill="none"/><path d="M1191 861.5h-2v-1h2zM1003.64 618.5h-9.28l4.64-14.26z"/><path d="M1005 619.5h-12l6-18.5zm-9.26-2h6.52L999 607.47z"/><path d="M1538 860.5V735.75c0-2.76-2.24-5-5-5h-529c-2.76 0-5-2.24-5-5v-106.5" stroke="#000" stroke-width="2" fill="none"/><path d="M1539 861.5h-2v-1h2zM1003.64 618.5h-9.28l4.64-14.26z"/><path d="M1005 619.5h-12l6-18.5zm-9.26-2h6.52L999 607.47z"/><path d="M460 439v-59.76" stroke="#000" stroke-width="2" fill="none"/><path d="M461 440h-2v-1h2zM464.64 378.5h-9.28l4.64-14.26z"/><path d="M466 379.5h-12l6-18.5zm-9.26-2h6.52L460 367.47z"/><path d="M999 439V285c0-2.76-2.24-5-5-5H659.24" stroke="#000" stroke-width="2" fill="none"/><path d="M1000 440h-2v-1h2zM658.5 284.64L644.24 280l14.26-4.64z"/><path d="M659.5 286l-18.5-6 18.5-6zm-12.03-6l10.03 3.26v-6.52z"/><path d="M60 725c0-2.76 2.24-5 5-5h376.83c2.76 0 6.6 1.58 8.54 3.54l6.1 6.1c1.95 1.94 3.53 5.77 3.53 8.53v42.66c0 2.76-2.24 5-5 5H65c-2.76 0-5-2.24-5-5z" stroke="#000" stroke-width="2" fill="#fff"/><path d="M448.05 724.85c-.67-2.68.37-3.27 2.32-1.3l6.1 6.08c1.95 1.95 1.36 3-1.32 2.32l-.83-.2c-2.68-.67-5.4-3.4-6.07-6.07z" stroke="#000" stroke-width="2" fill="#b3b3b3"/><g><use xlink:href="#C" transform="matrix(1,0,0,1,60,720) translate(5.01 37.0875)"/></g><path d="M59 752.92H24c-2.76 0-5-2.24-5-5v-153.6c0-2.75 2.24-5 5-5h236.76" stroke="#000" stroke-width="2" fill="none"/><path d="M60 753.92h-1v-2h1zM275.76 589.33l-14.26 4.64v-9.27z"/><path d="M279 589.33l-18.5 6.02v-12.03zm-16.5 3.26l10.03-3.27-10.03-3.26z"/><path d="M60 1105c0-2.76 2.24-5 5-5h376.83c2.76 0 6.6 1.58 8.54 3.54l6.1 6.1c1.95 1.94 3.53 5.77 3.53 8.53v42.66c0 2.76-2.24 5-5 5H65c-2.76 0-5-2.24-5-5z" stroke="#000" stroke-width="2" fill="#fff"/><path d="M448.05 1104.85c-.67-2.68.37-3.27 2.32-1.3l6.1 6.08c1.95 1.95 1.36 3-1.32 2.32l-.83-.2c-2.68-.67-5.4-3.4-6.07-6.07z" stroke="#000" stroke-width="2" fill="#b3b3b3"/><g><use xlink:href="#D" transform="matrix(1,0,0,1,60,1100) translate(5.01 37.0875)"/></g><path d="M59 1132.92H24c-2.76 0-5-2.24-5-5V966.5c0-2.76 2.24-5 5-5h306.76" stroke="#000" stroke-width="2" fill="none"/><path d="M60 1133.92h-1v-2h1zM345.76 961.5l-14.26 4.64v-9.28z"/><path d="M349 961.5l-18.5 6v-12zm-16.5 3.26l10.03-3.26-10.03-3.26z"/><defs><path d="M30 0v-248h187v28H63v79h144v27H63v87h162V0H30" id="E"/><path d="M117-194c89-4 53 116 60 194h-32v-121c0-31-8-49-39-48C34-167 62-67 57 0H25l-1-190h30c1 10-1 24 2 32 11-22 29-35 61-36" id="F"/><path d="M85-194c31 0 48 13 60 33l-1-100h32l1 261h-30c-2-10 0-23-3-31C134-8 116 4 85 4 32 4 16-35 15-94c0-66 23-100 70-100zm9 24c-40 0-46 34-46 75 0 40 6 74 45 74 42 0 51-32 51-76 0-42-9-74-50-73" id="G"/><g id="a"><use transform="matrix(0.05,0,0,0.05,0,0)" xlink:href="#E"/><use transform="matrix(0.05,0,0,0.05,12,0)" xlink:href="#F"/><use transform="matrix(0.05,0,0,0.05,22,0)" xlink:href="#G"/></g><path d="M232-93c-1 65-40 97-104 97C67 4 28-28 28-90v-158h33c8 89-33 224 67 224 102 0 64-133 71-224h33v155" id="H"/><path d="M135-143c-3-34-86-38-87 0 15 53 115 12 119 90S17 21 10-45l28-5c4 36 97 45 98 0-10-56-113-15-118-90-4-57 82-63 122-42 12 7 21 19 24 35" id="I"/><path d="M100-194c63 0 86 42 84 106H49c0 40 14 67 53 68 26 1 43-12 49-29l28 8c-11 28-37 45-77 45C44 4 14-33 15-96c1-61 26-98 85-98zm52 81c6-60-76-77-97-28-3 7-6 17-6 28h103" id="J"/><path d="M114-163C36-179 61-72 57 0H25l-1-190h30c1 12-1 29 2 39 6-27 23-49 58-41v29" id="K"/><g id="b"><use transform="matrix(0.05,0,0,0.05,0,0)" xlink:href="#H"/><use transform="matrix(0.05,0,0,0.05,12.950000000000001,0)" xlink:href="#I"/><use transform="matrix(0.05,0,0,0.05,21.950000000000003,0)" xlink:href="#J"/><use transform="matrix(0.05,0,0,0.05,31.950000000000003,0)" xlink:href="#K"/></g><path d="M205 0l-28-72H64L36 0H1l101-248h38L239 0h-34zm-38-99l-47-123c-12 45-31 82-46 123h93" id="L"/><path d="M127-220V0H93v-220H8v-28h204v28h-85" id="M"/><path d="M240 0l2-218c-23 76-54 145-80 218h-23L58-218 59 0H30v-248h44l77 211c21-75 51-140 76-211h43V0h-30" id="N"/><g id="c"><use transform="matrix(0.05,0,0,0.05,0,0)" xlink:href="#L"/><use transform="matrix(0.05,0,0,0.05,10.65,0)" xlink:href="#M"/><use transform="matrix(0.05,0,0,0.05,21.6,0)" xlink:href="#N"/></g><path d="M87 75C49 33 22-17 22-94c0-76 28-126 65-167h31c-38 41-64 92-64 168S80 34 118 75H87" id="O"/><path d="M212-179c-10-28-35-45-73-45-59 0-87 40-87 99 0 60 29 101 89 101 43 0 62-24 78-52l27 14C228-24 195 4 139 4 59 4 22-46 18-125c-6-104 99-153 187-111 19 9 31 26 39 46" id="P"/><path d="M100-194c62-1 85 37 85 99 1 63-27 99-86 99S16-35 15-95c0-66 28-99 85-99zM99-20c44 1 53-31 53-75 0-43-8-75-51-75s-53 32-53 75 10 74 51 75" id="Q"/><path d="M59-47c-2 24 18 29 38 22v24C64 9 27 4 27-40v-127H5v-23h24l9-43h21v43h35v23H59v120" id="R"/><path d="M141 0L90-78 38 0H4l68-98-65-92h35l48 74 47-74h35l-64 92 68 98h-35" id="S"/><path d="M33-261c38 41 65 92 65 168S71 34 33 75H2C39 34 66-17 66-93S39-220 2-261h31" id="T"/><g id="d"><use transform="matrix(0.05,0,0,0.05,0,0)" xlink:href="#O"/><use transform="matrix(0.05,0,0,0.05,5.95,0)" xlink:href="#P"/><use transform="matrix(0.05,0,0,0.05,18.900000000000002,0)" xlink:href="#Q"/><use transform="matrix(0.05,0,0,0.05,28.900000000000002,0)" xlink:href="#F"/><use transform="matrix(0.05,0,0,0.05,38.900000000000006,0)" xlink:href="#R"/><use transform="matrix(0.05,0,0,0.05,43.900000000000006,0)" xlink:href="#J"/><use transform="matrix(0.05,0,0,0.05,53.900000000000006,0)" xlink:href="#S"/><use transform="matrix(0.05,0,0,0.05,62.900000000000006,0)" xlink:href="#R"/><use transform="matrix(0.05,0,0,0.05,67.9,0)" xlink:href="#T"/></g><path d="M158-156l-14 65h45v19h-49L124 0h-19l15-72H56L41 0H22l15-72H2v-19h39l14-65H11v-19h48l15-71h20l-16 71h64l16-71h19l-16 71h37v19h-40zm-83 0L61-91h63l14-65H75" id="U"/><use transform="matrix(0.05,0,0,0.05,0,0)" xlink:href="#U" id="e"/><path d="M194-70c0 46-34 64-81 66v29H91V-4C42-5 12-27 4-67l30-6c5 28 25 41 57 43v-87c-38-9-76-20-76-67 1-42 33-58 76-59v-23h22v23c45 0 67 20 76 56l-31 6c-5-23-18-35-45-37v78c41 10 81 20 81 70zm-81 41c51 7 71-66 19-77-6-2-12-4-19-6v83zM91-219c-47-6-63 57-18 69 6 2 12 3 18 5v-74" id="V"/><path d="M96-169c-40 0-48 33-48 73s9 75 48 75c24 0 41-14 43-38l32 2c-6 37-31 61-74 61-59 0-76-41-82-99-10-93 101-131 147-64 4 7 5 14 7 22l-32 3c-4-21-16-35-41-35" id="W"/><path d="M84 4C-5 8 30-112 23-190h32v120c0 31 7 50 39 49 72-2 45-101 50-169h31l1 190h-30c-1-10 1-25-2-33-11 22-28 36-60 37" id="X"/><path d="M210-169c-67 3-38 105-44 169h-31v-121c0-29-5-50-35-48C34-165 62-65 56 0H25l-1-190h30c1 10-1 24 2 32 10-44 99-50 107 0 11-21 27-35 58-36 85-2 47 119 55 194h-31v-121c0-29-5-49-35-48" id="Y"/><path d="M185-189c-5-48-123-54-124 2 14 75 158 14 163 119 3 78-121 87-175 55-17-10-28-26-33-46l33-7c5 56 141 63 141-1 0-78-155-14-162-118-5-82 145-84 179-34 5 7 8 16 11 25" id="Z"/><path d="M141-36C126-15 110 5 73 4 37 3 15-17 15-53c-1-64 63-63 125-63 3-35-9-54-41-54-24 1-41 7-42 31l-33-3c5-37 33-52 76-52 45 0 72 20 72 64v82c-1 20 7 32 28 27v20c-31 9-61-2-59-35zM48-53c0 20 12 33 32 33 41-3 63-29 60-74-43 2-92-5-92 41" id="aa"/><g id="f"><use transform="matrix(0.048148148148148155,0,0,0.048148148148148155,0,0)" xlink:href="#V"/><use transform="matrix(0.048148148148148155,0,0,0.048148148148148155,9.629629629629632,0)" xlink:href="#W"/><use transform="matrix(0.048148148148148155,0,0,0.048148148148148155,18.296296296296298,0)" xlink:href="#X"/><use transform="matrix(0.048148148148148155,0,0,0.048148148148148155,27.92592592592593,0)" xlink:href="#K"/><use transform="matrix(0.048148148148148155,0,0,0.048148148148148155,33.65555555555556,0)" xlink:href="#K"/><use transform="matrix(0.048148148148148155,0,0,0.048148148148148155,39.385185185185186,0)" xlink:href="#J"/><use transform="matrix(0.048148148148148155,0,0,0.048148148148148155,49.01481481481482,0)" xlink:href="#F"/><use transform="matrix(0.048148148148148155,0,0,0.048148148148148155,58.64444444444445,0)" xlink:href="#R"/><use transform="matrix(0.048148148148148155,0,0,0.048148148148148155,63.45925925925927,0)" xlink:href="#L"/><use transform="matrix(0.048148148148148155,0,0,0.048148148148148155,75.01481481481483,0)" xlink:href="#R"/><use transform="matrix(0.048148148148148155,0,0,0.048148148148148155,79.82962962962964,0)" xlink:href="#Y"/><use transform="matrix(0.048148148148148155,0,0,0.048148148148148155,94.22592592592594,0)" xlink:href="#Z"/><use transform="matrix(0.048148148148148155,0,0,0.048148148148148155,105.78148148148149,0)" xlink:href="#R"/><use transform="matrix(0.048148148148148155,0,0,0.048148148148148155,110.59629629629632,0)" xlink:href="#aa"/><use transform="matrix(0.048148148148148155,0,0,0.048148148148148155,120.22592592592595,0)" xlink:href="#R"/><use transform="matrix(0.048148148148148155,0,0,0.048148148148148155,125.04074074074073,0)" xlink:href="#J"/></g><path d="M18-150v-26h174v26H18zm0 90v-26h174v26H18" id="ab"/><use transform="matrix(0.05,0,0,0.05,0,0)" xlink:href="#ab" id="g"/><path d="M190 0L58-211 59 0H30v-248h39L202-35l-2-213h31V0h-41" id="ac"/><g id="h"><use transform="matrix(0.048148148148148155,0,0,0.048148148148148155,0,0)" xlink:href="#ac"/><use transform="matrix(0.048148148148148155,0,0,0.048148148148148155,12.470370370370372,0)" xlink:href="#Q"/><use transform="matrix(0.048148148148148155,0,0,0.048148148148148155,22.1,0)" xlink:href="#P"/><use transform="matrix(0.048148148148148155,0,0,0.048148148148148155,34.57037037037037,0)" xlink:href="#aa"/><use transform="matrix(0.048148148148148155,0,0,0.048148148148148155,44.2,0)" xlink:href="#K"/><use transform="matrix(0.048148148148148155,0,0,0.048148148148148155,49.92962962962962,0)" xlink:href="#G"/></g><path d="M118-107v75H92v-75H18v-26h74v-75h26v75h74v26h-74" id="ad"/><use transform="matrix(0.05,0,0,0.05,0,0)" xlink:href="#ad" id="i"/><g id="j"><use transform="matrix(0.05,0,0,0.05,0,0)" xlink:href="#I"/><use transform="matrix(0.05,0,0,0.05,9,0)" xlink:href="#J"/><use transform="matrix(0.05,0,0,0.05,19,0)" xlink:href="#R"/><use transform="matrix(0.05,0,0,0.05,24,0)" xlink:href="#L"/><use transform="matrix(0.05,0,0,0.05,34.65,0)" xlink:href="#M"/><use transform="matrix(0.05,0,0,0.05,45.6,0)" xlink:href="#N"/><use transform="matrix(0.05,0,0,0.05,60.550000000000004,0)" xlink:href="#Z"/><use transform="matrix(0.05,0,0,0.05,72.55000000000001,0)" xlink:href="#R"/><use transform="matrix(0.05,0,0,0.05,77.55000000000001,0)" xlink:href="#aa"/><use transform="matrix(0.05,0,0,0.05,87.55000000000001,0)" xlink:href="#R"/><use transform="matrix(0.05,0,0,0.05,92.55000000000001,0)" xlink:href="#J"/><use transform="matrix(0.05,0,0,0.05,102.55000000000001,0)" xlink:href="#O"/><use transform="matrix(0.05,0,0,0.05,108.5,0)" xlink:href="#L"/><use transform="matrix(0.05,0,0,0.05,119.15000000000003,0)" xlink:href="#M"/><use transform="matrix(0.05,0,0,0.05,130.10000000000002,0)" xlink:href="#N"/><use transform="matrix(0.05,0,0,0.05,145.05,0)" xlink:href="#Z"/><use transform="matrix(0.05,0,0,0.05,157.05,0)" xlink:href="#R"/><use transform="matrix(0.05,0,0,0.05,162.05,0)" xlink:href="#aa"/><use transform="matrix(0.05,0,0,0.05,172.05,0)" xlink:href="#R"/><use transform="matrix(0.05,0,0,0.05,177.05,0)" xlink:href="#J"/></g><g id="k"><use transform="matrix(0.05,0,0,0.05,0,0)" xlink:href="#V"/><use transform="matrix(0.05,0,0,0.05,10,0)" xlink:href="#aa"/><use transform="matrix(0.05,0,0,0.05,20,0)" xlink:href="#R"/><use transform="matrix(0.05,0,0,0.05,25,0)" xlink:href="#Y"/><use transform="matrix(0.05,0,0,0.05,39.95,0)" xlink:href="#Z"/><use transform="matrix(0.05,0,0,0.05,51.95,0)" xlink:href="#R"/><use transform="matrix(0.05,0,0,0.05,56.95,0)" xlink:href="#aa"/><use transform="matrix(0.05,0,0,0.05,66.95,0)" xlink:href="#R"/><use transform="matrix(0.05,0,0,0.05,71.95,0)" xlink:href="#J"/><use transform="matrix(0.05,0,0,0.05,81.95,0)" xlink:href="#T"/></g><use transform="matrix(0.05,0,0,0.05,0,0)" xlink:href="#ad" id="m"/><path d="M24-231v-30h32v30H24zM24 0v-190h32V0H24" id="ae"/><g id="n"><use transform="matrix(0.05,0,0,0.05,0,0)" xlink:href="#ae"/><use transform="matrix(0.05,0,0,0.05,3.95,0)" xlink:href="#F"/><use transform="matrix(0.05,0,0,0.05,13.949999999999998,0)" xlink:href="#I"/><use transform="matrix(0.05,0,0,0.05,22.95,0)" xlink:href="#J"/><use transform="matrix(0.05,0,0,0.05,32.95,0)" xlink:href="#K"/><use transform="matrix(0.05,0,0,0.05,38.900000000000006,0)" xlink:href="#R"/><use transform="matrix(0.05,0,0,0.05,43.900000000000006,0)" xlink:href="#P"/><use transform="matrix(0.05,0,0,0.05,56.85,0)" xlink:href="#aa"/><use transform="matrix(0.05,0,0,0.05,66.85000000000001,0)" xlink:href="#K"/><use transform="matrix(0.05,0,0,0.05,72.80000000000001,0)" xlink:href="#G"/><use transform="matrix(0.05,0,0,0.05,82.80000000000001,0)" xlink:href="#O"/><use transform="matrix(0.05,0,0,0.05,88.75000000000001,0)" xlink:href="#T"/></g><path d="M24-231v-30h32v30H24zM-9 49c24 4 33-6 33-30v-209h32V24c2 40-23 58-65 49V49" id="af"/><g id="o"><use transform="matrix(0.05,0,0,0.05,0,0)" xlink:href="#J"/><use transform="matrix(0.05,0,0,0.05,10,0)" xlink:href="#af"/><use transform="matrix(0.05,0,0,0.05,13.949999999999998,0)" xlink:href="#J"/><use transform="matrix(0.05,0,0,0.05,23.95,0)" xlink:href="#W"/><use transform="matrix(0.05,0,0,0.05,32.95,0)" xlink:href="#R"/><use transform="matrix(0.05,0,0,0.05,37.95,0)" xlink:href="#P"/><use transform="matrix(0.05,0,0,0.05,50.900000000000006,0)" xlink:href="#aa"/><use transform="matrix(0.05,0,0,0.05,60.900000000000006,0)" xlink:href="#K"/><use transform="matrix(0.05,0,0,0.05,66.85000000000001,0)" xlink:href="#G"/><use transform="matrix(0.05,0,0,0.05,76.85000000000001,0)" xlink:href="#O"/><use transform="matrix(0.05,0,0,0.05,82.80000000000001,0)" xlink:href="#T"/></g><path d="M30-248c87 1 191-15 191 75 0 78-77 80-158 76V0H30v-248zm33 125c57 0 124 11 124-50 0-59-68-47-124-48v98" id="ag"/><path d="M115-194c55 1 70 41 70 98S169 2 115 4C84 4 66-9 55-30l1 105H24l-1-265h31l2 30c10-21 28-34 59-34zm-8 174c40 0 45-34 45-75s-6-73-45-74c-42 0-51 32-51 76 0 43 10 73 51 73" id="ah"/><g id="p"><use transform="matrix(0.05,0,0,0.05,0,0)" xlink:href="#ae"/><use transform="matrix(0.05,0,0,0.05,3.95,0)" xlink:href="#F"/><use transform="matrix(0.05,0,0,0.05,13.949999999999998,0)" xlink:href="#I"/><use transform="matrix(0.05,0,0,0.05,22.95,0)" xlink:href="#J"/><use transform="matrix(0.05,0,0,0.05,32.95,0)" xlink:href="#K"/><use transform="matrix(0.05,0,0,0.05,38.900000000000006,0)" xlink:href="#R"/><use transform="matrix(0.05,0,0,0.05,43.900000000000006,0)" xlink:href="#ag"/><use transform="matrix(0.05,0,0,0.05,55.900000000000006,0)" xlink:href="#ae"/><use transform="matrix(0.05,0,0,0.05,59.85,0)" xlink:href="#F"/><use transform="matrix(0.05,0,0,0.05,69.85000000000001,0)" xlink:href="#O"/><use transform="matrix(0.05,0,0,0.05,75.80000000000001,0)" xlink:href="#V"/><use transform="matrix(0.05,0,0,0.05,85.80000000000001,0)" xlink:href="#ah"/><use transform="matrix(0.05,0,0,0.05,95.80000000000001,0)" xlink:href="#ae"/><use transform="matrix(0.05,0,0,0.05,99.75000000000001,0)" xlink:href="#F"/><use transform="matrix(0.05,0,0,0.05,109.75,0)" xlink:href="#E"/><use transform="matrix(0.05,0,0,0.05,121.75,0)" xlink:href="#F"/><use transform="matrix(0.05,0,0,0.05,131.75,0)" xlink:href="#R"/><use transform="matrix(0.05,0,0,0.05,136.75,0)" xlink:href="#J"/><use transform="matrix(0.05,0,0,0.05,146.75,0)" xlink:href="#K"/><use transform="matrix(0.05,0,0,0.05,152.7,0)" xlink:href="#J"/><use transform="matrix(0.05,0,0,0.05,162.7,0)" xlink:href="#G"/><use transform="matrix(0.05,0,0,0.05,172.7,0)" xlink:href="#T"/></g><path d="M145-31C134-9 116 4 85 4 32 4 16-35 15-94c0-59 17-99 70-100 32-1 48 14 60 33 0-11-1-24 2-32h30l-1 268h-32zM93-21c41 0 51-33 51-76s-8-73-50-73c-40 0-46 35-46 75s5 74 45 74" id="ai"/><path d="M106-169C34-169 62-67 57 0H25v-261h32l-1 103c12-21 28-36 61-36 89 0 53 116 60 194h-32v-121c2-32-8-49-39-48" id="aj"/><path d="M266 0h-40l-56-210L115 0H75L2-248h35L96-30l15-64 43-154h32l59 218 59-218h35" id="ak"/><path d="M206 0h-36l-40-164L89 0H53L-1-190h32L70-26l43-164h34l41 164 42-164h31" id="al"/><g id="q"><use transform="matrix(0.05,0,0,0.05,0,0)" xlink:href="#K"/><use transform="matrix(0.05,0,0,0.05,5.95,0)" xlink:href="#J"/><use transform="matrix(0.05,0,0,0.05,15.949999999999998,0)" xlink:href="#ai"/><use transform="matrix(0.05,0,0,0.05,25.950000000000003,0)" xlink:href="#X"/><use transform="matrix(0.05,0,0,0.05,35.95,0)" xlink:href="#J"/><use transform="matrix(0.05,0,0,0.05,45.95,0)" xlink:href="#I"/><use transform="matrix(0.05,0,0,0.05,54.95,0)" xlink:href="#R"/><use transform="matrix(0.05,0,0,0.05,59.95,0)" xlink:href="#P"/><use transform="matrix(0.05,0,0,0.05,72.9,0)" xlink:href="#aa"/><use transform="matrix(0.05,0,0,0.05,82.9,0)" xlink:href="#I"/><use transform="matrix(0.05,0,0,0.05,91.9,0)" xlink:href="#aj"/><use transform="matrix(0.05,0,0,0.05,101.9,0)" xlink:href="#O"/><use transform="matrix(0.05,0,0,0.05,107.85000000000001,0)" xlink:href="#V"/><use transform="matrix(0.05,0,0,0.05,117.85000000000001,0)" xlink:href="#W"/><use transform="matrix(0.05,0,0,0.05,126.85000000000001,0)" xlink:href="#aa"/><use transform="matrix(0.05,0,0,0.05,136.85000000000002,0)" xlink:href="#I"/><use transform="matrix(0.05,0,0,0.05,145.85000000000002,0)" xlink:href="#aj"/><use transform="matrix(0.05,0,0,0.05,155.85000000000002,0)" xlink:href="#M"/><use transform="matrix(0.05,0,0,0.05,164.8,0)" xlink:href="#Q"/><use transform="matrix(0.05,0,0,0.05,174.8,0)" xlink:href="#ak"/><use transform="matrix(0.05,0,0,0.05,191.75,0)" xlink:href="#ae"/><use transform="matrix(0.05,0,0,0.05,195.7,0)" xlink:href="#R"/><use transform="matrix(0.05,0,0,0.05,200.7,0)" xlink:href="#aj"/><use transform="matrix(0.05,0,0,0.05,210.69999999999996,0)" xlink:href="#G"/><use transform="matrix(0.05,0,0,0.05,220.69999999999996,0)" xlink:href="#K"/><use transform="matrix(0.05,0,0,0.05,226.64999999999998,0)" xlink:href="#aa"/><use transform="matrix(0.05,0,0,0.05,236.64999999999998,0)" xlink:href="#al"/><use transform="matrix(0.05,0,0,0.05,249.59999999999997,0)" xlink:href="#T"/></g><path d="M15-91v-56l181-69v40L49-119l147 57v40" id="am"/><path d="M199 0l-22-63H83L61 0H9l90-248h61L250 0h-51zm-33-102l-36-108c-10 38-24 72-36 108h72" id="an"/><path d="M136-208V0H84v-208H4v-40h212v40h-80" id="ao"/><path d="M230 0l2-204L168 0h-37L68-204 70 0H24v-248h70l56 185 57-185h69V0h-46" id="ap"/><path d="M190-63c-7 42-38 67-86 67-59 0-84-38-90-98-12-110 154-137 174-36l-49 2c-2-19-15-32-35-32-30 0-35 28-38 64-6 74 65 87 74 30" id="aq"/><path d="M115-3C79 11 28 4 28-45v-112H4v-33h27l15-45h31v45h36v33H77v99c-1 23 16 31 38 25v30" id="ar"/><path d="M25-224v-37h50v37H25zM25 0v-190h50V0H25" id="as"/><path d="M110-194c64 0 96 36 96 99 0 64-35 99-97 99-61 0-95-36-95-99 0-62 34-99 96-99zm-1 164c35 0 45-28 45-65 0-40-10-65-43-65-34 0-45 26-45 65 0 36 10 65 43 65" id="at"/><path d="M135-194c87-1 58 113 63 194h-50c-7-57 23-157-34-157-59 0-34 97-39 157H25l-1-190h47c2 12-1 28 3 38 12-26 28-41 61-42" id="au"/><path d="M137-138c1-29-70-34-71-4 15 46 118 7 119 86 1 83-164 76-172 9l43-7c4 19 20 25 44 25 33 8 57-30 24-41C81-84 22-81 20-136c-2-80 154-74 161-7" id="av"/><path d="M15-22v-40l146-57-146-57v-40l181 69v56" id="aw"/><g id="s"><use transform="matrix(0.05,0,0,0.05,0,0)" xlink:href="#am"/><use transform="matrix(0.05,0,0,0.05,10.5,0)" xlink:href="#am"/><use transform="matrix(0.05,0,0,0.05,21,0)" xlink:href="#an"/><use transform="matrix(0.05,0,0,0.05,32.6,0)" xlink:href="#ao"/><use transform="matrix(0.05,0,0,0.05,43.550000000000004,0)" xlink:href="#ap"/><use transform="matrix(0.05,0,0,0.05,58.5,0)" xlink:href="#an"/><use transform="matrix(0.05,0,0,0.05,71.45,0)" xlink:href="#aq"/><use transform="matrix(0.05,0,0,0.05,81.45,0)" xlink:href="#ar"/><use transform="matrix(0.05,0,0,0.05,87.4,0)" xlink:href="#as"/><use transform="matrix(0.05,0,0,0.05,92.4,0)" xlink:href="#at"/><use transform="matrix(0.05,0,0,0.05,103.35000000000001,0)" xlink:href="#au"/><use transform="matrix(0.05,0,0,0.05,114.30000000000001,0)" xlink:href="#av"/><use transform="matrix(0.05,0,0,0.05,124.30000000000001,0)" xlink:href="#aw"/><use transform="matrix(0.05,0,0,0.05,134.8,0)" xlink:href="#aw"/></g><path d="M169-182c-1-43-94-46-97-3 18 66 151 10 154 114 3 95-165 93-204 36-6-8-10-19-12-30l50-8c3 46 112 56 116 5-17-69-150-10-154-114-4-87 153-88 188-35 5 8 8 18 10 28" id="ax"/><path d="M133-34C117-15 103 5 69 4 32 3 11-16 11-54c-1-60 55-63 116-61 1-26-3-47-28-47-18 1-26 9-28 27l-52-2c7-38 36-58 82-57s74 22 75 68l1 82c-1 14 12 18 25 15v27c-30 8-71 5-69-32zm-48 3c29 0 43-24 42-57-32 0-66-3-65 30 0 17 8 27 23 27" id="ay"/><path d="M185-48c-13 30-37 53-82 52C43 2 14-33 14-96s30-98 90-98c62 0 83 45 84 108H66c0 31 8 55 39 56 18 0 30-7 34-22zm-45-69c5-46-57-63-70-21-2 6-4 13-4 21h74" id="az"/><g id="t"><use transform="matrix(0.05,0,0,0.05,0,0)" xlink:href="#am"/><use transform="matrix(0.05,0,0,0.05,10.5,0)" xlink:href="#am"/><use transform="matrix(0.05,0,0,0.05,21,0)" xlink:href="#an"/><use transform="matrix(0.05,0,0,0.05,32.6,0)" xlink:href="#ao"/><use transform="matrix(0.05,0,0,0.05,43.550000000000004,0)" xlink:href="#ap"/><use transform="matrix(0.05,0,0,0.05,58.5,0)" xlink:href="#ax"/><use transform="matrix(0.05,0,0,0.05,70.5,0)" xlink:href="#ar"/><use transform="matrix(0.05,0,0,0.05,76.45,0)" xlink:href="#ay"/><use transform="matrix(0.05,0,0,0.05,86.45,0)" xlink:href="#ar"/><use transform="matrix(0.05,0,0,0.05,92.4,0)" xlink:href="#az"/><use transform="matrix(0.05,0,0,0.05,102.4,0)" xlink:href="#aw"/><use transform="matrix(0.05,0,0,0.05,112.9,0)" xlink:href="#aw"/></g><path d="M-5 72V49h209v23H-5" id="aA"/><g id="u"><use transform="matrix(0.05,0,0,0.05,0,0)" xlink:href="#aA"/><use transform="matrix(0.05,0,0,0.05,10,0)" xlink:href="#aA"/><use transform="matrix(0.05,0,0,0.05,20,0)" xlink:href="#W"/><use transform="matrix(0.05,0,0,0.05,29,0)" xlink:href="#Q"/><use transform="matrix(0.05,0,0,0.05,39,0)" xlink:href="#F"/><use transform="matrix(0.05,0,0,0.05,49,0)" xlink:href="#I"/><use transform="matrix(0.05,0,0,0.05,58,0)" xlink:href="#R"/><use transform="matrix(0.05,0,0,0.05,63,0)" xlink:href="#K"/><use transform="matrix(0.05,0,0,0.05,68.95,0)" xlink:href="#X"/><use transform="matrix(0.05,0,0,0.05,78.95,0)" xlink:href="#W"/><use transform="matrix(0.05,0,0,0.05,87.95,0)" xlink:href="#R"/><use transform="matrix(0.05,0,0,0.05,92.95,0)" xlink:href="#O"/><use transform="matrix(0.05,0,0,0.05,98.9,0)" xlink:href="#V"/><use transform="matrix(0.05,0,0,0.05,108.9,0)" xlink:href="#aa"/><use transform="matrix(0.05,0,0,0.05,118.9,0)" xlink:href="#R"/><use transform="matrix(0.05,0,0,0.05,123.9,0)" xlink:href="#Y"/><use transform="matrix(0.05,0,0,0.05,138.85,0)" xlink:href="#N"/><use transform="matrix(0.05,0,0,0.05,153.79999999999998,0)" xlink:href="#aa"/><use transform="matrix(0.05,0,0,0.05,163.79999999999998,0)" xlink:href="#W"/><use transform="matrix(0.05,0,0,0.05,172.79999999999998,0)" xlink:href="#aj"/><use transform="matrix(0.05,0,0,0.05,182.79999999999998,0)" xlink:href="#ae"/><use transform="matrix(0.05,0,0,0.05,186.74999999999997,0)" xlink:href="#F"/><use transform="matrix(0.05,0,0,0.05,196.74999999999997,0)" xlink:href="#J"/><use transform="matrix(0.05,0,0,0.05,206.74999999999997,0)" xlink:href="#T"/></g><g id="v"><use transform="matrix(0.05,0,0,0.05,0,0)" xlink:href="#ac"/><use transform="matrix(0.05,0,0,0.05,12.950000000000001,0)" xlink:href="#Q"/><use transform="matrix(0.05,0,0,0.05,22.950000000000003,0)" xlink:href="#P"/><use transform="matrix(0.05,0,0,0.05,35.900000000000006,0)" xlink:href="#aa"/><use transform="matrix(0.05,0,0,0.05,45.900000000000006,0)" xlink:href="#K"/><use transform="matrix(0.05,0,0,0.05,51.85,0)" xlink:href="#G"/></g><use transform="matrix(0.05,0,0,0.05,0,0)" xlink:href="#U" id="w"/><g id="x"><use transform="matrix(0.05,0,0,0.05,0,0)" xlink:href="#V"/><use transform="matrix(0.05,0,0,0.05,10,0)" xlink:href="#aa"/><use transform="matrix(0.05,0,0,0.05,20,0)" xlink:href="#R"/><use transform="matrix(0.05,0,0,0.05,25,0)" xlink:href="#Y"/><use transform="matrix(0.05,0,0,0.05,39.95,0)" xlink:href="#N"/><use transform="matrix(0.05,0,0,0.05,54.900000000000006,0)" xlink:href="#aa"/><use transform="matrix(0.05,0,0,0.05,64.9,0)" xlink:href="#W"/><use transform="matrix(0.05,0,0,0.05,73.9,0)" xlink:href="#aj"/><use transform="matrix(0.05,0,0,0.05,83.9,0)" xlink:href="#ae"/><use transform="matrix(0.05,0,0,0.05,87.85000000000001,0)" xlink:href="#F"/><use transform="matrix(0.05,0,0,0.05,97.85000000000001,0)" xlink:href="#J"/></g><g id="y"><use transform="matrix(0.05,0,0,0.05,0,0)" xlink:href="#K"/><use transform="matrix(0.05,0,0,0.05,5.95,0)" xlink:href="#J"/><use transform="matrix(0.05,0,0,0.05,15.949999999999998,0)" xlink:href="#ai"/><use transform="matrix(0.05,0,0,0.05,25.950000000000003,0)" xlink:href="#X"/><use transform="matrix(0.05,0,0,0.05,35.95,0)" xlink:href="#J"/><use transform="matrix(0.05,0,0,0.05,45.95,0)" xlink:href="#I"/><use transform="matrix(0.05,0,0,0.05,54.95,0)" xlink:href="#R"/><use transform="matrix(0.05,0,0,0.05,59.95,0)" xlink:href="#P"/><use transform="matrix(0.05,0,0,0.05,72.9,0)" xlink:href="#aa"/><use transform="matrix(0.05,0,0,0.05,82.9,0)" xlink:href="#I"/><use transform="matrix(0.05,0,0,0.05,91.9,0)" xlink:href="#aj"/><use transform="matrix(0.05,0,0,0.05,101.9,0)" xlink:href="#O"/><use transform="matrix(0.05,0,0,0.05,107.85000000000001,0)" xlink:href="#V"/><use transform="matrix(0.05,0,0,0.05,117.85000000000001,0)" xlink:href="#W"/><use transform="matrix(0.05,0,0,0.05,126.85000000000001,0)" xlink:href="#aa"/><use transform="matrix(0.05,0,0,0.05,136.85000000000002,0)" xlink:href="#I"/><use transform="matrix(0.05,0,0,0.05,145.85000000000002,0)" xlink:href="#aj"/><use transform="matrix(0.05,0,0,0.05,155.85000000000002,0)" xlink:href="#M"/><use transform="matrix(0.05,0,0,0.05,164.8,0)" xlink:href="#Q"/><use transform="matrix(0.05,0,0,0.05,174.8,0)" xlink:href="#ak"/><use transform="matrix(0.05,0,0,0.05,191.75,0)" xlink:href="#ae"/><use transform="matrix(0.05,0,0,0.05,195.7,0)" xlink:href="#R"/><use transform="matrix(0.05,0,0,0.05,200.7,0)" xlink:href="#aj"/><use transform="matrix(0.05,0,0,0.05,210.69999999999996,0)" xlink:href="#G"/><use transform="matrix(0.05,0,0,0.05,220.69999999999996,0)" xlink:href="#K"/><use transform="matrix(0.05,0,0,0.05,226.64999999999998,0)" xlink:href="#aa"/><use transform="matrix(0.05,0,0,0.05,236.64999999999998,0)" xlink:href="#al"/><use transform="matrix(0.05,0,0,0.05,249.59999999999997,0)" xlink:href="#T"/></g><path d="M197 0v-115H63V0H30v-248h33v105h134v-105h34V0h-34" id="aB"/><g id="z"><use transform="matrix(0.05,0,0,0.05,0,0)" xlink:href="#aB"/><use transform="matrix(0.05,0,0,0.05,12.950000000000001,0)" xlink:href="#aa"/><use transform="matrix(0.05,0,0,0.05,22.950000000000003,0)" xlink:href="#I"/><use transform="matrix(0.05,0,0,0.05,31.950000000000003,0)" xlink:href="#P"/><use transform="matrix(0.05,0,0,0.05,44.900000000000006,0)" xlink:href="#aa"/><use transform="matrix(0.05,0,0,0.05,54.900000000000006,0)" xlink:href="#K"/><use transform="matrix(0.05,0,0,0.05,60.85,0)" xlink:href="#G"/></g><g id="A"><use transform="matrix(0.05,0,0,0.05,0,0)" xlink:href="#P"/><use transform="matrix(0.05,0,0,0.05,12.950000000000001,0)" xlink:href="#Q"/><use transform="matrix(0.05,0,0,0.05,22.950000000000003,0)" xlink:href="#K"/><use transform="matrix(0.05,0,0,0.05,28.900000000000002,0)" xlink:href="#K"/><use transform="matrix(0.05,0,0,0.05,34.85,0)" xlink:href="#J"/><use transform="matrix(0.05,0,0,0.05,44.85,0)" xlink:href="#W"/><use transform="matrix(0.05,0,0,0.05,53.85,0)" xlink:href="#R"/><use transform="matrix(0.05,0,0,0.05,58.85,0)" xlink:href="#ag"/><use transform="matrix(0.05,0,0,0.05,70.85,0)" xlink:href="#ae"/><use transform="matrix(0.05,0,0,0.05,74.8,0)" xlink:href="#F"/></g><path d="M140-251c81 0 123 46 123 126C263-46 219 4 140 4 59 4 17-45 17-125s42-126 123-126zm0 227c63 0 89-41 89-101s-29-99-89-99c-61 0-89 39-89 99S79-25 140-24" id="aC"/><path d="M101-234c-31-9-42 10-38 44h38v23H63V0H32v-167H5v-23h27c-7-52 17-82 69-68v24" id="aD"/><path d="M179-190L93 31C79 59 56 82 12 73V49c39 6 53-20 64-50L1-190h34L92-34l54-156h33" id="aE"/><g id="B"><use transform="matrix(0.05,0,0,0.05,0,0)" xlink:href="#aC"/><use transform="matrix(0.05,0,0,0.05,14,0)" xlink:href="#X"/><use transform="matrix(0.05,0,0,0.05,24,0)" xlink:href="#R"/><use transform="matrix(0.05,0,0,0.05,29,0)" xlink:href="#aC"/><use transform="matrix(0.05,0,0,0.05,43,0)" xlink:href="#aD"/><use transform="matrix(0.05,0,0,0.05,48,0)" xlink:href="#N"/><use transform="matrix(0.05,0,0,0.05,62.95,0)" xlink:href="#Q"/><use transform="matrix(0.05,0,0,0.05,72.95,0)" xlink:href="#F"/><use transform="matrix(0.05,0,0,0.05,82.95,0)" xlink:href="#J"/><use transform="matrix(0.05,0,0,0.05,92.95,0)" xlink:href="#aE"/></g><path d="M16-82v-28h88v28H16" id="aF"/><path d="M18-27v-27l151-64-151-65v-27l175 74v36" id="aG"/><g id="C"><use transform="matrix(0.05,0,0,0.05,0,0)" xlink:href="#V"/><use transform="matrix(0.05,0,0,0.05,10,0)" xlink:href="#R"/><use transform="matrix(0.05,0,0,0.05,15,0)" xlink:href="#aj"/><use transform="matrix(0.05,0,0,0.05,25,0)" xlink:href="#ae"/><use transform="matrix(0.05,0,0,0.05,28.950000000000003,0)" xlink:href="#I"/><use transform="matrix(0.05,0,0,0.05,37.95,0)" xlink:href="#aF"/><use transform="matrix(0.05,0,0,0.05,43.900000000000006,0)" xlink:href="#aG"/><use transform="matrix(0.05,0,0,0.05,54.400000000000006,0)" xlink:href="#W"/><use transform="matrix(0.05,0,0,0.05,63.400000000000006,0)" xlink:href="#X"/><use transform="matrix(0.05,0,0,0.05,73.4,0)" xlink:href="#K"/><use transform="matrix(0.05,0,0,0.05,79.35000000000001,0)" xlink:href="#K"/><use transform="matrix(0.05,0,0,0.05,85.30000000000001,0)" xlink:href="#J"/><use transform="matrix(0.05,0,0,0.05,95.30000000000001,0)" xlink:href="#F"/><use transform="matrix(0.05,0,0,0.05,105.30000000000001,0)" xlink:href="#R"/><use transform="matrix(0.05,0,0,0.05,110.30000000000001,0)" xlink:href="#L"/><use transform="matrix(0.05,0,0,0.05,122.30000000000001,0)" xlink:href="#R"/><use transform="matrix(0.05,0,0,0.05,127.30000000000001,0)" xlink:href="#Y"/><use transform="matrix(0.05,0,0,0.05,142.25,0)" xlink:href="#Z"/><use transform="matrix(0.05,0,0,0.05,154.25,0)" xlink:href="#R"/><use transform="matrix(0.05,0,0,0.05,159.25,0)" xlink:href="#aa"/><use transform="matrix(0.05,0,0,0.05,169.25,0)" xlink:href="#R"/><use transform="matrix(0.05,0,0,0.05,174.25,0)" xlink:href="#J"/><use transform="matrix(0.05,0,0,0.05,184.25,0)" xlink:href="#aF"/><use transform="matrix(0.05,0,0,0.05,190.2,0)" xlink:href="#aG"/><use transform="matrix(0.05,0,0,0.05,200.7,0)" xlink:href="#ae"/><use transform="matrix(0.05,0,0,0.05,204.64999999999998,0)" xlink:href="#F"/><use transform="matrix(0.05,0,0,0.05,214.64999999999998,0)" xlink:href="#I"/><use transform="matrix(0.05,0,0,0.05,223.64999999999998,0)" xlink:href="#J"/><use transform="matrix(0.05,0,0,0.05,233.64999999999998,0)" xlink:href="#K"/><use transform="matrix(0.05,0,0,0.05,239.59999999999997,0)" xlink:href="#R"/><use transform="matrix(0.05,0,0,0.05,244.59999999999997,0)" xlink:href="#P"/><use transform="matrix(0.05,0,0,0.05,257.54999999999995,0)" xlink:href="#aa"/><use transform="matrix(0.05,0,0,0.05,267.54999999999995,0)" xlink:href="#K"/><use transform="matrix(0.05,0,0,0.05,273.49999999999994,0)" xlink:href="#G"/><use transform="matrix(0.05,0,0,0.05,283.49999999999994,0)" xlink:href="#O"/><use transform="matrix(0.05,0,0,0.05,289.44999999999993,0)" xlink:href="#T"/></g><g id="D"><use transform="matrix(0.05,0,0,0.05,0,0)" xlink:href="#V"/><use transform="matrix(0.05,0,0,0.05,10,0)" xlink:href="#R"/><use transform="matrix(0.05,0,0,0.05,15,0)" xlink:href="#aj"/><use transform="matrix(0.05,0,0,0.05,25,0)" xlink:href="#ae"/><use transform="matrix(0.05,0,0,0.05,28.950000000000003,0)" xlink:href="#I"/><use transform="matrix(0.05,0,0,0.05,37.95,0)" xlink:href="#aF"/><use transform="matrix(0.05,0,0,0.05,43.900000000000006,0)" xlink:href="#aG"/><use transform="matrix(0.05,0,0,0.05,54.400000000000006,0)" xlink:href="#aa"/><use transform="matrix(0.05,0,0,0.05,64.4,0)" xlink:href="#R"/><use transform="matrix(0.05,0,0,0.05,69.4,0)" xlink:href="#Y"/><use transform="matrix(0.05,0,0,0.05,84.35000000000001,0)" xlink:href="#N"/><use transform="matrix(0.05,0,0,0.05,99.30000000000001,0)" xlink:href="#aa"/><use transform="matrix(0.05,0,0,0.05,109.30000000000001,0)" xlink:href="#W"/><use transform="matrix(0.05,0,0,0.05,118.30000000000001,0)" xlink:href="#aj"/><use transform="matrix(0.05,0,0,0.05,128.3,0)" xlink:href="#ae"/><use transform="matrix(0.05,0,0,0.05,132.25,0)" xlink:href="#F"/><use transform="matrix(0.05,0,0,0.05,142.25,0)" xlink:href="#J"/><use transform="matrix(0.05,0,0,0.05,152.25,0)" xlink:href="#aF"/><use transform="matrix(0.05,0,0,0.05,158.2,0)" xlink:href="#aG"/><use transform="matrix(0.05,0,0,0.05,168.7,0)" xlink:href="#I"/><use transform="matrix(0.05,0,0,0.05,177.7,0)" xlink:href="#J"/><use transform="matrix(0.05,0,0,0.05,187.7,0)" xlink:href="#R"/><use transform="matrix(0.05,0,0,0.05,192.7,0)" xlink:href="#Z"/><use transform="matrix(0.05,0,0,0.05,204.7,0)" xlink:href="#R"/><use transform="matrix(0.05,0,0,0.05,209.69999999999996,0)" xlink:href="#aa"/><use transform="matrix(0.05,0,0,0.05,219.69999999999996,0)" xlink:href="#R"/><use transform="matrix(0.05,0,0,0.05,224.69999999999996,0)" xlink:href="#J"/><use transform="matrix(0.05,0,0,0.05,234.69999999999996,0)" xlink:href="#O"/><use transform="matrix(0.05,0,0,0.05,240.64999999999998,0)" xlink:href="#aB"/><use transform="matrix(0.05,0,0,0.05,253.59999999999997,0)" xlink:href="#aa"/><use transform="matrix(0.05,0,0,0.05,263.59999999999997,0)" xlink:href="#I"/><use transform="matrix(0.05,0,0,0.05,272.59999999999997,0)" xlink:href="#P"/><use transform="matrix(0.05,0,0,0.05,285.54999999999995,0)" xlink:href="#aa"/><use transform="matrix(0.05,0,0,0.05,295.54999999999995,0)" xlink:href="#K"/><use transform="matrix(0.05,0,0,0.05,301.49999999999994,0)" xlink:href="#G"/><use transform="matrix(0.05,0,0,0.05,311.49999999999994,0)" xlink:href="#T"/></g></defs></g></svg>