<svg xmlns="http://www.w3.org/2000/svg" xmlns:xlink="http://www.w3.org/1999/xlink" xmlns:lucid="lucid" width="1080" height="868"><g transform="translate(0 -12)" lucid:page-tab-id="0_0"><path d="M0 0h1760v1360H0z" fill="#fff"/><path d="M20 37c0-2.76 2.24-5 5-5h850c2.76 0 5 2.24 5 5v58c0 2.76-2.24 5-5 5H25c-2.76 0-5-2.24-5-5z" fill="none"/><use xlink:href="#a" transform="matrix(1,0,0,1,20,32) translate(287 42)"/><use xlink:href="#b" transform="matrix(1,0,0,1,20,32) translate(435.55555555555554 42)"/><path d="M600 285c0-2.76 2.24-5 5-5h290c2.76 0 5 2.24 5 5v170c0 2.76-2.24 5-5 5H605c-2.76 0-5-2.24-5-5z" stroke="#000" stroke-width="2" fill="#fff"/><path d="M600 339h300" stroke="#000" stroke-width="2" fill="none"/><use xlink:href="#c" transform="matrix(1,0,0,1,608,280) translate(83.57499999999999 22.799999999999997)"/><use xlink:href="#d" transform="matrix(1,0,0,1,608,280) translate(111.07499999999999 44.4)"/><use xlink:href="#e" transform="matrix(1,0,0,1,612,347.2) translate(0 23.69999999999999)"/><use xlink:href="#f" transform="matrix(1,0,0,1,612,347.2) translate(15.5 23.69999999999999)"/><use xlink:href="#e" transform="matrix(1,0,0,1,612,347.2) translate(0 45.29999999999999)"/><use xlink:href="#g" transform="matrix(1,0,0,1,612,347.2) translate(15.5 45.29999999999999)"/><use xlink:href="#e" transform="matrix(1,0,0,1,612,347.2) translate(0 66.89999999999999)"/><use xlink:href="#h" transform="matrix(1,0,0,1,612,347.2) translate(15.5 66.89999999999999)"/><use xlink:href="#e" transform="matrix(1,0,0,1,612,347.2) translate(0 88.5)"/><use xlink:href="#i" transform="matrix(1,0,0,1,612,347.2) translate(15.5 88.5)"/><path d="M440 545c0-2.76 2.24-5 5-5h270c2.76 0 5 2.24 5 5v170c0 2.76-2.24 5-5 5H445c-2.76 0-5-2.24-5-5z" stroke="#000" stroke-width="2" fill="#fff"/><path d="M440 578h280m-280 38h280" stroke="#000" stroke-width="2" fill="none"/><use xlink:href="#j" transform="matrix(1,0,0,1,448,540) translate(56.80000000000001 22.6)"/><use xlink:href="#e" transform="matrix(1,0,0,1,452,623.8445714285715) translate(0 15.69999999999999)"/><use xlink:href="#f" transform="matrix(1,0,0,1,452,623.8445714285715) translate(15.5 15.69999999999999)"/><use xlink:href="#e" transform="matrix(1,0,0,1,452,623.8445714285715) translate(0 37.29999999999999)"/><use xlink:href="#g" transform="matrix(1,0,0,1,452,623.8445714285715) translate(15.5 37.29999999999999)"/><use xlink:href="#e" transform="matrix(1,0,0,1,452,623.8445714285715) translate(0 58.89999999999999)"/><use xlink:href="#h" transform="matrix(1,0,0,1,452,623.8445714285715) translate(15.5 58.89999999999999)"/><use xlink:href="#e" transform="matrix(1,0,0,1,452,623.8445714285715) translate(0 80.5)"/><use xlink:href="#i" transform="matrix(1,0,0,1,452,623.8445714285715) translate(15.5 80.5)"/><path d="M780 545c0-2.76 2.24-5 5-5h270c2.76 0 5 2.24 5 5v170c0 2.76-2.24 5-5 5H785c-2.76 0-5-2.24-5-5z" stroke="#000" stroke-width="2" fill="#fff"/><path d="M780 578h280m-280 38h280" stroke="#000" stroke-width="2" fill="none"/><use xlink:href="#j" transform="matrix(1,0,0,1,788,540) translate(56.80000000000001 22.6)"/><use xlink:href="#e" transform="matrix(1,0,0,1,792,623.8445714285715) translate(0 15.69999999999999)"/><use xlink:href="#f" transform="matrix(1,0,0,1,792,623.8445714285715) translate(15.5 15.69999999999999)"/><use xlink:href="#e" transform="matrix(1,0,0,1,792,623.8445714285715) translate(0 37.29999999999999)"/><use xlink:href="#g" transform="matrix(1,0,0,1,792,623.8445714285715) translate(15.5 37.29999999999999)"/><use xlink:href="#e" transform="matrix(1,0,0,1,792,623.8445714285715) translate(0 58.89999999999999)"/><use xlink:href="#h" transform="matrix(1,0,0,1,792,623.8445714285715) translate(15.5 58.89999999999999)"/><use xlink:href="#e" transform="matrix(1,0,0,1,792,623.8445714285715) translate(0 80.5)"/><use xlink:href="#i" transform="matrix(1,0,0,1,792,623.8445714285715) translate(15.5 80.5)"/><path d="M580 539v-34c0-2.76 2.24-5 5-5h160c2.76 0 5-2.24 5-5v-15.76" stroke="#000" stroke-width="2" fill="none"/><path d="M581 540h-2v-1h2zM754.64 478.5h-9.28l4.64-14.26z"/><path d="M756 479.5h-12l6-18.5zm-9.26-2h6.52L750 467.47z"/><path d="M920 539v-34c0-2.76-2.24-5-5-5H755c-2.76 0-5-2.24-5-5v-15.76" stroke="#000" stroke-width="2" fill="none"/><path d="M921 540h-2v-1h2zM754.64 478.5h-9.28l4.64-14.26z"/><path d="M756 479.5h-12l6-18.5zm-9.26-2h6.52L750 467.47z"/><path d="M620 785c0-2.76 2.24-5 5-5h234c2.76 0 6.58 1.58 8.54 3.54l8.92 8.92c1.96 1.96 3.54 5.78 3.54 8.54v54c0 2.76-2.24 5-5 5H625c-2.76 0-5-2.24-5-5z" stroke="#000" stroke-width="2" fill="#ffeca9"/><path d="M865.2 784.85c-.66-2.68.38-3.27 2.34-1.3l8.92 8.9c1.96 1.97 1.37 3-1.3 2.34l-3.1-.8c-2.7-.66-5.4-3.37-6.07-6.05z" stroke="#000" stroke-width="2" fill="#b3a576"/><use xlink:href="#k" transform="matrix(1,0,0,1,620,780) translate(6.01 21.9)"/><use xlink:href="#l" transform="matrix(1,0,0,1,620,780) translate(52.01 21.9)"/><use xlink:href="#m" transform="matrix(1,0,0,1,620,780) translate(116.96000000000001 21.9)"/><use xlink:href="#n" transform="matrix(1,0,0,1,620,780) translate(165.86 21.9)"/><use xlink:href="#o" transform="matrix(1,0,0,1,620,780) translate(5.01 43.5)"/><use xlink:href="#p" transform="matrix(1,0,0,1,620,780) translate(74.56000000000002 43.5)"/><use xlink:href="#q" transform="matrix(1,0,0,1,620,780) translate(127.51000000000002 43.5)"/><use xlink:href="#r" transform="matrix(1,0,0,1,620,780) translate(159.41000000000003 43.5)"/><use xlink:href="#s" transform="matrix(1,0,0,1,620,780) translate(194.41000000000003 43.5)"/><use xlink:href="#t" transform="matrix(1,0,0,1,620,780) translate(6.01 65.10000000000001)"/><path d="M750 779v-24c0-2.76-2.24-5-5-5H585c-2.76 0-5-2.24-5-5v-5.76" stroke="#000" stroke-width="2" fill="none"/><path d="M751 780h-2v-1h2zM584.64 738.5h-9.28l4.64-14.26z"/><path d="M586 739.5h-12l6-18.5zm-9.26-2h6.52L580 727.47z"/><path d="M777.33 779v-24c0-2.76 2.24-5 5-5H915c2.76 0 5-2.24 5-5v-5.76" stroke="#000" stroke-width="2" fill="none"/><path d="M778.33 780h-2v-1h2zM924.64 738.5h-9.28l4.64-14.26z"/><path d="M926 739.5h-12l6-18.5zm-9.26-2h6.52L920 727.47z"/><path d="M40 285c0-2.76 2.24-5 5-5h290c2.76 0 5 2.24 5 5v170c0 2.76-2.24 5-5 5H45c-2.76 0-5-2.24-5-5z" stroke="#000" stroke-width="2" fill="#fff"/><path d="M40 339h300" stroke="#000" stroke-width="2" fill="none"/><g><use xlink:href="#c" transform="matrix(1,0,0,1,48,280) translate(83.57499999999999 22.799999999999997)"/><use xlink:href="#u" transform="matrix(1,0,0,1,48,280) translate(107.57499999999999 44.4)"/></g><g><use xlink:href="#v" transform="matrix(1,0,0,1,52,347.2) translate(0 56.1)"/><use xlink:href="#w" transform="matrix(1,0,0,1,52,347.2) translate(15.5 56.1)"/><use xlink:href="#x" transform="matrix(1,0,0,1,52,347.2) translate(116.32222222222224 56.1)"/></g><path d="M50 525c0-2.76 2.24-5 5-5h270c2.76 0 5 2.24 5 5v250c0 2.76-2.24 5-5 5H55c-2.76 0-5-2.24-5-5z" stroke="#000" stroke-width="2" fill="#fff"/><path d="M50 558h280M50 603h280" stroke="#000" stroke-width="2" fill="none"/><g><use xlink:href="#y" transform="matrix(1,0,0,1,58,520) translate(100.6 22.6)"/></g><g><use xlink:href="#v" transform="matrix(1,0,0,1,62,611.4456140350877) translate(0 30.499999999999993)"/><use xlink:href="#w" transform="matrix(1,0,0,1,62,611.4456140350877) translate(15.5 30.499999999999993)"/><use xlink:href="#z" transform="matrix(1,0,0,1,62,611.4456140350877) translate(116.32222222222224 30.499999999999993)"/><use xlink:href="#A" transform="matrix(1,0,0,1,62,611.4456140350877) translate(188.35185185185188 30.499999999999993)"/><use xlink:href="#B" transform="matrix(1,0,0,1,62,611.4456140350877) translate(0 52.099999999999994)"/><use xlink:href="#C" transform="matrix(1,0,0,1,62,611.4456140350877) translate(25 52.099999999999994)"/><use xlink:href="#B" transform="matrix(1,0,0,1,62,611.4456140350877) translate(0 73.7)"/><use xlink:href="#D" transform="matrix(1,0,0,1,62,611.4456140350877) translate(25 73.7)"/><use xlink:href="#B" transform="matrix(1,0,0,1,62,611.4456140350877) translate(0 95.30000000000001)"/><use xlink:href="#E" transform="matrix(1,0,0,1,62,611.4456140350877) translate(25 95.30000000000001)"/><use xlink:href="#B" transform="matrix(1,0,0,1,62,611.4456140350877) translate(0 116.9)"/><use xlink:href="#F" transform="matrix(1,0,0,1,62,611.4456140350877) translate(25 116.9)"/><use xlink:href="#G" transform="matrix(1,0,0,1,62,611.4456140350877) translate(76.9 116.9)"/><use xlink:href="#H" transform="matrix(1,0,0,1,62,611.4456140350877) translate(0 137.96666666666667)"/></g><path d="M190 519v-39.76" stroke="#000" stroke-width="2" fill="none"/><path d="M191 520h-2v-1h2zM194.64 478.5h-9.28l4.64-14.26z"/><path d="M196 479.5h-12l6-18.5zm-9.26-2h6.52L190 467.47z"/><path d="M40 137.33h479.47L540 157.87V240H40z" stroke="#d9be60" stroke-width="2" fill="#ffdf71"/><path d="M519.47 137.33L540 157.87h-20.53z" fill="#d9be60"/><g><use xlink:href="#I" transform="matrix(1,0,0,1,40,137.33333333333334) translate(5.01 23.522916666666667)"/><use xlink:href="#J" transform="matrix(1,0,0,1,40,137.33333333333334) translate(129.95444444444448 23.522916666666667)"/><use xlink:href="#K" transform="matrix(1,0,0,1,40,137.33333333333334) translate(144.8803703703704 23.522916666666667)"/><use xlink:href="#L" transform="matrix(1,0,0,1,40,137.33333333333334) translate(181.42481481481485 23.522916666666667)"/><use xlink:href="#M" transform="matrix(1,0,0,1,40,137.33333333333334) translate(5.01 44.32291666666667)"/><use xlink:href="#J" transform="matrix(1,0,0,1,40,137.33333333333334) translate(106.65074074074076 44.32291666666667)"/><use xlink:href="#N" transform="matrix(1,0,0,1,40,137.33333333333334) translate(121.57666666666668 44.32291666666667)"/><use xlink:href="#O" transform="matrix(1,0,0,1,40,137.33333333333334) translate(163.85074074074078 44.32291666666667)"/><use xlink:href="#P" transform="matrix(1,0,0,1,40,137.33333333333334) translate(5.01 65.12291666666668)"/><use xlink:href="#Q" transform="matrix(1,0,0,1,40,137.33333333333334) translate(5.01 85.92291666666668)"/><use xlink:href="#R" transform="matrix(1,0,0,1,40,137.33333333333334) translate(246.80999999999995 85.92291666666668)"/><use xlink:href="#S" transform="matrix(1,0,0,1,40,137.33333333333334) translate(330.5396296296296 85.92291666666668)"/></g><path d="M341 400h227" stroke="#000" stroke-width="2" fill="none"/><path d="M341 401h-1v-2h1z"/><path d="M586.9 385.5l3.6 1.5 3.1 2.4 2.4 3.1 1.5 3.6.5 3.9-.5 3.9-1.5 3.6-2.4 3.1-3.1 2.4-3.6 1.5-3.9.5-3.9-.5-3.6-1.5-3.1-2.4-2.4-3.1-1.5-3.6-.5-3.9.5-3.9 1.5-3.6 2.4-3.1 3.1-2.4 3.6-1.5 3.9-.5z" fill="#fff"/><path d="M587.15 384.54l3.84 1.6 3.32 2.54 2.55 3.33 1.6 3.85.54 4.15-.54 4.15-1.6 3.84-2.54 3.32-3.33 2.55-3.85 1.6-4.15.54-4.15-.54-3.84-1.6-3.32-2.54-2.55-3.33-1.6-3.85L567 400l.54-4.15 1.6-3.84 2.54-3.32 3.33-2.55 3.85-1.6L583 384zm-7.78 1.94l-3.35 1.4-2.9 2.23-2.25 2.92-1.4 3.35-.46 3.63.48 3.63 1.4 3.35 2.23 2.9 2.92 2.25 3.35 1.4 3.63.46 3.63-.48 3.35-1.4 2.9-2.23 2.25-2.92 1.4-3.35.46-3.63-.48-3.63-1.4-3.35-2.23-2.9-2.92-2.25-3.35-1.4-3.63-.46z"/><defs><path d="M182-130c37 4 62 22 62 59C244 23 116-4 24 0v-248c84 5 203-23 205 63 0 31-19 50-47 55zM76-148c40-3 101 13 101-30 0-44-60-28-101-31v61zm0 110c48-3 116 14 116-37 0-48-69-32-116-35v72" id="T"/><path d="M85 4C-2 5 27-109 22-190h50c7 57-23 150 33 157 60-5 35-97 40-157h50l1 190h-47c-2-12 1-28-3-38-12 25-28 42-61 42" id="U"/><path d="M25-224v-37h50v37H25zM25 0v-190h50V0H25" id="V"/><path d="M25 0v-261h50V0H25" id="W"/><path d="M88-194c31-1 46 15 58 34l-1-101h50l1 261h-48c-2-10 0-23-3-31C134-8 116 4 84 4 32 4 16-41 15-95c0-56 19-97 73-99zm17 164c33 0 40-30 41-66 1-37-9-64-41-64s-38 30-39 65c0 43 13 65 39 65" id="X"/><path d="M185-48c-13 30-37 53-82 52C43 2 14-33 14-96s30-98 90-98c62 0 83 45 84 108H66c0 31 8 55 39 56 18 0 30-7 34-22zm-45-69c5-46-57-63-70-21-2 6-4 13-4 21h74" id="Y"/><path d="M135-150c-39-12-60 13-60 57V0H25l-1-190h47c2 13-1 29 3 40 6-28 27-53 61-41v41" id="Z"/><g id="a"><use transform="matrix(0.1111111111111111,0,0,0.1111111111111111,0,0)" xlink:href="#T"/><use transform="matrix(0.1111111111111111,0,0,0.1111111111111111,28.777777777777775,0)" xlink:href="#U"/><use transform="matrix(0.1111111111111111,0,0,0.1111111111111111,53.11111111111111,0)" xlink:href="#V"/><use transform="matrix(0.1111111111111111,0,0,0.1111111111111111,64.22222222222221,0)" xlink:href="#W"/><use transform="matrix(0.1111111111111111,0,0,0.1111111111111111,75.33333333333333,0)" xlink:href="#X"/><use transform="matrix(0.1111111111111111,0,0,0.1111111111111111,99.66666666666666,0)" xlink:href="#Y"/><use transform="matrix(0.1111111111111111,0,0,0.1111111111111111,121.88888888888889,0)" xlink:href="#Z"/></g><path d="M24-248c93 1 206-16 204 79-1 75-69 88-152 82V0H24v-248zm52 121c47 0 100 7 100-41 0-47-54-39-100-39v80" id="aa"/><path d="M133-34C117-15 103 5 69 4 32 3 11-16 11-54c-1-60 55-63 116-61 1-26-3-47-28-47-18 1-26 9-28 27l-52-2c7-38 36-58 82-57s74 22 75 68l1 82c-1 14 12 18 25 15v27c-30 8-71 5-69-32zm-48 3c29 0 43-24 42-57-32 0-66-3-65 30 0 17 8 27 23 27" id="ab"/><path d="M115-3C79 11 28 4 28-45v-112H4v-33h27l15-45h31v45h36v33H77v99c-1 23 16 31 38 25v30" id="ac"/><path d="M135-194c87-1 58 113 63 194h-50c-7-57 23-157-34-157-59 0-34 97-39 157H25l-1-190h47c2 12-1 28 3 38 12-26 28-41 61-42" id="ad"/><g id="b"><use transform="matrix(0.1111111111111111,0,0,0.1111111111111111,0,0)" xlink:href="#aa"/><use transform="matrix(0.1111111111111111,0,0,0.1111111111111111,26.666666666666664,0)" xlink:href="#ab"/><use transform="matrix(0.1111111111111111,0,0,0.1111111111111111,48.888888888888886,0)" xlink:href="#ac"/><use transform="matrix(0.1111111111111111,0,0,0.1111111111111111,62.11111111111111,0)" xlink:href="#ac"/><use transform="matrix(0.1111111111111111,0,0,0.1111111111111111,75.33333333333333,0)" xlink:href="#Y"/><use transform="matrix(0.1111111111111111,0,0,0.1111111111111111,97.55555555555554,0)" xlink:href="#Z"/><use transform="matrix(0.1111111111111111,0,0,0.1111111111111111,113.1111111111111,0)" xlink:href="#ad"/></g><path d="M15-91v-56l181-69v40L49-119l147 57v40" id="ae"/><path d="M121-226c-27-7-43 5-38 36h38v33H83V0H34v-157H6v-33h28c-9-59 32-81 87-68v32" id="af"/><path d="M190-63c-7 42-38 67-86 67-59 0-84-38-90-98-12-110 154-137 174-36l-49 2c-2-19-15-32-35-32-30 0-35 28-38 64-6 74 65 87 74 30" id="ag"/><path d="M15-22v-40l146-57-146-57v-40l181 69v56" id="ah"/><g id="c"><use transform="matrix(0.05,0,0,0.05,0,0)" xlink:href="#ae"/><use transform="matrix(0.05,0,0,0.05,10.5,0)" xlink:href="#ae"/><use transform="matrix(0.05,0,0,0.05,21,0)" xlink:href="#V"/><use transform="matrix(0.05,0,0,0.05,26,0)" xlink:href="#ad"/><use transform="matrix(0.05,0,0,0.05,36.95,0)" xlink:href="#ac"/><use transform="matrix(0.05,0,0,0.05,42.900000000000006,0)" xlink:href="#Y"/><use transform="matrix(0.05,0,0,0.05,52.900000000000006,0)" xlink:href="#Z"/><use transform="matrix(0.05,0,0,0.05,59.900000000000006,0)" xlink:href="#af"/><use transform="matrix(0.05,0,0,0.05,65.85000000000001,0)" xlink:href="#ab"/><use transform="matrix(0.05,0,0,0.05,75.85000000000001,0)" xlink:href="#ag"/><use transform="matrix(0.05,0,0,0.05,85.85000000000001,0)" xlink:href="#Y"/><use transform="matrix(0.05,0,0,0.05,95.85000000000001,0)" xlink:href="#ah"/><use transform="matrix(0.05,0,0,0.05,106.35000000000001,0)" xlink:href="#ah"/></g><g id="d"><use transform="matrix(0.05,0,0,0.05,0,0)" xlink:href="#T"/><use transform="matrix(0.05,0,0,0.05,12.950000000000001,0)" xlink:href="#U"/><use transform="matrix(0.05,0,0,0.05,23.900000000000002,0)" xlink:href="#V"/><use transform="matrix(0.05,0,0,0.05,28.900000000000002,0)" xlink:href="#W"/><use transform="matrix(0.05,0,0,0.05,33.900000000000006,0)" xlink:href="#X"/><use transform="matrix(0.05,0,0,0.05,44.85000000000001,0)" xlink:href="#Y"/><use transform="matrix(0.05,0,0,0.05,54.85,0)" xlink:href="#Z"/></g><path d="M118-107v75H92v-75H18v-26h74v-75h26v75h74v26h-74" id="ai"/><use transform="matrix(0.05,0,0,0.05,0,0)" xlink:href="#ai" id="e"/><path d="M141-36C126-15 110 5 73 4 37 3 15-17 15-53c-1-64 63-63 125-63 3-35-9-54-41-54-24 1-41 7-42 31l-33-3c5-37 33-52 76-52 45 0 72 20 72 64v82c-1 20 7 32 28 27v20c-31 9-61-2-59-35zM48-53c0 20 12 33 32 33 41-3 63-29 60-74-43 2-92-5-92 41" id="aj"/><path d="M85-194c31 0 48 13 60 33l-1-100h32l1 261h-30c-2-10 0-23-3-31C134-8 116 4 85 4 32 4 16-35 15-94c0-66 23-100 70-100zm9 24c-40 0-46 34-46 75 0 40 6 74 45 74 42 0 51-32 51-76 0-42-9-74-50-73" id="ak"/><path d="M30 0v-248h33v221h125V0H30" id="al"/><path d="M115-194c53 0 69 39 70 98 0 66-23 100-70 100C84 3 66-7 56-30L54 0H23l1-261h32v101c10-23 28-34 59-34zm-8 174c40 0 45-34 45-75 0-40-5-75-45-74-42 0-51 32-51 76 0 43 10 73 51 73" id="am"/><path d="M100-194c63 0 86 42 84 106H49c0 40 14 67 53 68 26 1 43-12 49-29l28 8c-11 28-37 45-77 45C44 4 14-33 15-96c1-61 26-98 85-98zm52 81c6-60-76-77-97-28-3 7-6 17-6 28h103" id="an"/><path d="M24 0v-261h32V0H24" id="ao"/><path d="M135-143c-3-34-86-38-87 0 15 53 115 12 119 90S17 21 10-45l28-5c4 36 97 45 98 0-10-56-113-15-118-90-4-57 82-63 122-42 12 7 21 19 24 35" id="ap"/><path d="M87 75C49 33 22-17 22-94c0-76 28-126 65-167h31c-38 41-64 92-64 168S80 34 118 75H87" id="aq"/><path d="M33-261c38 41 65 92 65 168S71 34 33 75H2C39 34 66-17 66-93S39-220 2-261h31" id="ar"/><g id="f"><use transform="matrix(0.05,0,0,0.05,0,0)" xlink:href="#aj"/><use transform="matrix(0.05,0,0,0.05,10,0)" xlink:href="#ak"/><use transform="matrix(0.05,0,0,0.05,20,0)" xlink:href="#ak"/><use transform="matrix(0.05,0,0,0.05,30,0)" xlink:href="#al"/><use transform="matrix(0.05,0,0,0.05,40,0)" xlink:href="#aj"/><use transform="matrix(0.05,0,0,0.05,50,0)" xlink:href="#am"/><use transform="matrix(0.05,0,0,0.05,60,0)" xlink:href="#an"/><use transform="matrix(0.05,0,0,0.05,70,0)" xlink:href="#ao"/><use transform="matrix(0.05,0,0,0.05,73.95,0)" xlink:href="#ap"/><use transform="matrix(0.05,0,0,0.05,82.95,0)" xlink:href="#aq"/><use transform="matrix(0.05,0,0,0.05,88.9,0)" xlink:href="#ar"/></g><path d="M30 0v-248h187v28H63v79h144v27H63v87h162V0H30" id="as"/><path d="M24-231v-30h32v30H24zM24 0v-190h32V0H24" id="at"/><path d="M30-248c118-7 216 8 213 122C240-48 200 0 122 0H30v-248zM63-27c89 8 146-16 146-99s-60-101-146-95v194" id="au"/><path d="M100-194c62-1 85 37 85 99 1 63-27 99-86 99S16-35 15-95c0-66 28-99 85-99zM99-20c44 1 53-31 53-75 0-43-8-75-51-75s-53 32-53 75 10 74 51 75" id="av"/><path d="M96-169c-40 0-48 33-48 73s9 75 48 75c24 0 41-14 43-38l32 2c-6 37-31 61-74 61-59 0-76-41-82-99-10-93 101-131 147-64 4 7 5 14 7 22l-32 3c-4-21-16-35-41-35" id="aw"/><path d="M84 4C-5 8 30-112 23-190h32v120c0 31 7 50 39 49 72-2 45-101 50-169h31l1 190h-30c-1-10 1-25-2-33-11 22-28 36-60 37" id="ax"/><path d="M210-169c-67 3-38 105-44 169h-31v-121c0-29-5-50-35-48C34-165 62-65 56 0H25l-1-190h30c1 10-1 24 2 32 10-44 99-50 107 0 11-21 27-35 58-36 85-2 47 119 55 194h-31v-121c0-29-5-49-35-48" id="ay"/><path d="M117-194c89-4 53 116 60 194h-32v-121c0-31-8-49-39-48C34-167 62-67 57 0H25l-1-190h30c1 10-1 24 2 32 11-22 29-35 61-36" id="az"/><path d="M59-47c-2 24 18 29 38 22v24C64 9 27 4 27-40v-127H5v-23h24l9-43h21v43h35v23H59v120" id="aA"/><g id="g"><use transform="matrix(0.05,0,0,0.05,0,0)" xlink:href="#aj"/><use transform="matrix(0.05,0,0,0.05,10,0)" xlink:href="#ak"/><use transform="matrix(0.05,0,0,0.05,20,0)" xlink:href="#ak"/><use transform="matrix(0.05,0,0,0.05,30,0)" xlink:href="#as"/><use transform="matrix(0.05,0,0,0.05,42,0)" xlink:href="#ak"/><use transform="matrix(0.05,0,0,0.05,52,0)" xlink:href="#at"/><use transform="matrix(0.05,0,0,0.05,55.95,0)" xlink:href="#au"/><use transform="matrix(0.05,0,0,0.05,68.9,0)" xlink:href="#av"/><use transform="matrix(0.05,0,0,0.05,78.9,0)" xlink:href="#aw"/><use transform="matrix(0.05,0,0,0.05,87.9,0)" xlink:href="#ax"/><use transform="matrix(0.05,0,0,0.05,97.9,0)" xlink:href="#ay"/><use transform="matrix(0.05,0,0,0.05,112.85000000000001,0)" xlink:href="#an"/><use transform="matrix(0.05,0,0,0.05,122.85000000000001,0)" xlink:href="#az"/><use transform="matrix(0.05,0,0,0.05,132.85000000000002,0)" xlink:href="#aA"/><use transform="matrix(0.05,0,0,0.05,137.85000000000002,0)" xlink:href="#aq"/><use transform="matrix(0.05,0,0,0.05,143.8,0)" xlink:href="#ar"/></g><path d="M30-248c87 1 191-15 191 75 0 78-77 80-158 76V0H30v-248zm33 125c57 0 124 11 124-50 0-59-68-47-124-48v98" id="aB"/><path d="M143 0L79-87 56-68V0H24v-261h32v163l83-92h37l-77 82L181 0h-38" id="aC"/><path d="M177-190C167-65 218 103 67 71c-23-6-38-20-44-43l32-5c15 47 100 32 89-28v-30C133-14 115 1 83 1 29 1 15-40 15-95c0-56 16-97 71-98 29-1 48 16 59 35 1-10 0-23 2-32h30zM94-22c36 0 50-32 50-73 0-42-14-75-50-75-39 0-46 34-46 75s6 73 46 73" id="aD"/><g id="h"><use transform="matrix(0.05,0,0,0.05,0,0)" xlink:href="#aj"/><use transform="matrix(0.05,0,0,0.05,10,0)" xlink:href="#ak"/><use transform="matrix(0.05,0,0,0.05,20,0)" xlink:href="#ak"/><use transform="matrix(0.05,0,0,0.05,30,0)" xlink:href="#aB"/><use transform="matrix(0.05,0,0,0.05,42,0)" xlink:href="#aj"/><use transform="matrix(0.05,0,0,0.05,52,0)" xlink:href="#aw"/><use transform="matrix(0.05,0,0,0.05,61,0)" xlink:href="#aC"/><use transform="matrix(0.05,0,0,0.05,70,0)" xlink:href="#at"/><use transform="matrix(0.05,0,0,0.05,73.95,0)" xlink:href="#az"/><use transform="matrix(0.05,0,0,0.05,83.95,0)" xlink:href="#aD"/><use transform="matrix(0.05,0,0,0.05,93.95,0)" xlink:href="#al"/><use transform="matrix(0.05,0,0,0.05,103.95,0)" xlink:href="#at"/><use transform="matrix(0.05,0,0,0.05,107.9,0)" xlink:href="#ap"/><use transform="matrix(0.05,0,0,0.05,116.9,0)" xlink:href="#aA"/><use transform="matrix(0.05,0,0,0.05,121.9,0)" xlink:href="#aq"/><use transform="matrix(0.05,0,0,0.05,127.85000000000001,0)" xlink:href="#ar"/></g><path d="M185-189c-5-48-123-54-124 2 14 75 158 14 163 119 3 78-121 87-175 55-17-10-28-26-33-46l33-7c5 56 141 63 141-1 0-78-155-14-162-118-5-82 145-84 179-34 5 7 8 16 11 25" id="aE"/><path d="M106-169C34-169 62-67 57 0H25v-261h32l-1 103c12-21 28-36 61-36 89 0 53 116 60 194h-32v-121c2-32-8-49-39-48" id="aF"/><path d="M115-194c55 1 70 41 70 98S169 2 115 4C84 4 66-9 55-30l1 105H24l-1-265h31l2 30c10-21 28-34 59-34zm-8 174c40 0 45-34 45-75s-6-73-45-74c-42 0-51 32-51 76 0 43 10 73 51 73" id="aG"/><path d="M114-163C36-179 61-72 57 0H25l-1-190h30c1 12-1 29 2 39 6-27 23-49 58-41v29" id="aH"/><g id="i"><use transform="matrix(0.05,0,0,0.05,0,0)" xlink:href="#aD"/><use transform="matrix(0.05,0,0,0.05,10,0)" xlink:href="#an"/><use transform="matrix(0.05,0,0,0.05,20,0)" xlink:href="#aA"/><use transform="matrix(0.05,0,0,0.05,25,0)" xlink:href="#aE"/><use transform="matrix(0.05,0,0,0.05,37,0)" xlink:href="#aF"/><use transform="matrix(0.05,0,0,0.05,47,0)" xlink:href="#at"/><use transform="matrix(0.05,0,0,0.05,50.95,0)" xlink:href="#aG"/><use transform="matrix(0.05,0,0,0.05,60.95,0)" xlink:href="#aG"/><use transform="matrix(0.05,0,0,0.05,70.95,0)" xlink:href="#an"/><use transform="matrix(0.05,0,0,0.05,80.95,0)" xlink:href="#aH"/><use transform="matrix(0.05,0,0,0.05,86.9,0)" xlink:href="#aq"/><use transform="matrix(0.05,0,0,0.05,92.85000000000001,0)" xlink:href="#ar"/></g><path d="M140-251c81 0 123 46 123 126C263-46 219 4 140 4 59 4 17-45 17-125s42-126 123-126zm0 227c63 0 89-41 89-101s-29-99-89-99c-61 0-89 39-89 99S79-25 140-24" id="aI"/><path d="M101-234c-31-9-42 10-38 44h38v23H63V0H32v-167H5v-23h27c-7-52 17-82 69-68v24" id="aJ"/><path d="M160-131c35 5 61 23 61 61C221 17 115-2 30 0v-248c76 3 177-17 177 60 0 33-19 50-47 57zm-97-11c50-1 110 9 110-42 0-47-63-36-110-37v79zm0 115c55-2 124 14 124-45 0-56-70-42-124-44v89" id="aK"/><g id="j"><use transform="matrix(0.05,0,0,0.05,0,0)" xlink:href="#aI"/><use transform="matrix(0.05,0,0,0.05,14,0)" xlink:href="#aJ"/><use transform="matrix(0.05,0,0,0.05,18.65,0)" xlink:href="#aJ"/><use transform="matrix(0.05,0,0,0.05,23.65,0)" xlink:href="#at"/><use transform="matrix(0.05,0,0,0.05,27.599999999999994,0)" xlink:href="#aw"/><use transform="matrix(0.05,0,0,0.05,36.599999999999994,0)" xlink:href="#an"/><use transform="matrix(0.05,0,0,0.05,46.599999999999994,0)" xlink:href="#au"/><use transform="matrix(0.05,0,0,0.05,59.54999999999999,0)" xlink:href="#an"/><use transform="matrix(0.05,0,0,0.05,69.55,0)" xlink:href="#aG"/><use transform="matrix(0.05,0,0,0.05,79.55,0)" xlink:href="#av"/><use transform="matrix(0.05,0,0,0.05,89.55,0)" xlink:href="#aA"/><use transform="matrix(0.05,0,0,0.05,94.55,0)" xlink:href="#aK"/><use transform="matrix(0.05,0,0,0.05,106.55000000000001,0)" xlink:href="#ax"/><use transform="matrix(0.05,0,0,0.05,116.55000000000001,0)" xlink:href="#at"/><use transform="matrix(0.05,0,0,0.05,120.5,0)" xlink:href="#ao"/><use transform="matrix(0.05,0,0,0.05,124.45,0)" xlink:href="#ak"/><use transform="matrix(0.05,0,0,0.05,134.45,0)" xlink:href="#an"/><use transform="matrix(0.05,0,0,0.05,144.45,0)" xlink:href="#aH"/></g><g id="k"><use transform="matrix(0.05,0,0,0.05,0,0)" xlink:href="#as"/><use transform="matrix(0.05,0,0,0.05,12,0)" xlink:href="#aj"/><use transform="matrix(0.05,0,0,0.05,22,0)" xlink:href="#aw"/><use transform="matrix(0.05,0,0,0.05,31,0)" xlink:href="#aF"/></g><g id="l"><use transform="matrix(0.05,0,0,0.05,0,0)" xlink:href="#ay"/><use transform="matrix(0.05,0,0,0.05,14.950000000000001,0)" xlink:href="#an"/><use transform="matrix(0.05,0,0,0.05,24.950000000000003,0)" xlink:href="#aA"/><use transform="matrix(0.05,0,0,0.05,29.950000000000003,0)" xlink:href="#aF"/><use transform="matrix(0.05,0,0,0.05,39.95,0)" xlink:href="#av"/><use transform="matrix(0.05,0,0,0.05,49.95,0)" xlink:href="#ak"/></g><g id="m"><use transform="matrix(0.05,0,0,0.05,0,0)" xlink:href="#ay"/><use transform="matrix(0.05,0,0,0.05,14.950000000000001,0)" xlink:href="#at"/><use transform="matrix(0.05,0,0,0.05,18.900000000000002,0)" xlink:href="#aD"/><use transform="matrix(0.05,0,0,0.05,28.900000000000002,0)" xlink:href="#aF"/><use transform="matrix(0.05,0,0,0.05,38.900000000000006,0)" xlink:href="#aA"/></g><g id="n"><use transform="matrix(0.05,0,0,0.05,0,0)" xlink:href="#ak"/><use transform="matrix(0.05,0,0,0.05,10,0)" xlink:href="#av"/></g><g id="o"><use transform="matrix(0.05,0,0,0.05,0,0)" xlink:href="#ak"/><use transform="matrix(0.05,0,0,0.05,10,0)" xlink:href="#at"/><use transform="matrix(0.05,0,0,0.05,13.949999999999998,0)" xlink:href="#aJ"/><use transform="matrix(0.05,0,0,0.05,18.6,0)" xlink:href="#aJ"/><use transform="matrix(0.05,0,0,0.05,23.6,0)" xlink:href="#an"/><use transform="matrix(0.05,0,0,0.05,33.6,0)" xlink:href="#aH"/><use transform="matrix(0.05,0,0,0.05,39.550000000000004,0)" xlink:href="#an"/><use transform="matrix(0.05,0,0,0.05,49.550000000000004,0)" xlink:href="#az"/><use transform="matrix(0.05,0,0,0.05,59.550000000000004,0)" xlink:href="#aA"/></g><g id="p"><use transform="matrix(0.05,0,0,0.05,0,0)" xlink:href="#aA"/><use transform="matrix(0.05,0,0,0.05,5,0)" xlink:href="#aF"/><use transform="matrix(0.05,0,0,0.05,15,0)" xlink:href="#at"/><use transform="matrix(0.05,0,0,0.05,18.95,0)" xlink:href="#az"/><use transform="matrix(0.05,0,0,0.05,28.950000000000003,0)" xlink:href="#aD"/><use transform="matrix(0.05,0,0,0.05,38.95,0)" xlink:href="#ap"/></g><g id="q"><use transform="matrix(0.05,0,0,0.05,0,0)" xlink:href="#ao"/><use transform="matrix(0.05,0,0,0.05,3.95,0)" xlink:href="#at"/><use transform="matrix(0.05,0,0,0.05,7.9,0)" xlink:href="#aC"/><use transform="matrix(0.05,0,0,0.05,16.9,0)" xlink:href="#an"/></g><g id="r"><use transform="matrix(0.05,0,0,0.05,0,0)" xlink:href="#aj"/><use transform="matrix(0.05,0,0,0.05,10,0)" xlink:href="#ak"/><use transform="matrix(0.05,0,0,0.05,20,0)" xlink:href="#ak"/></g><g id="s"><use transform="matrix(0.05,0,0,0.05,0,0)" xlink:href="#ay"/><use transform="matrix(0.05,0,0,0.05,14.950000000000001,0)" xlink:href="#av"/><use transform="matrix(0.05,0,0,0.05,24.950000000000003,0)" xlink:href="#aH"/><use transform="matrix(0.05,0,0,0.05,30.900000000000002,0)" xlink:href="#an"/></g><path d="M24-231v-30h32v30H24zM-9 49c24 4 33-6 33-30v-209h32V24c2 40-23 58-65 49V49" id="aL"/><path d="M33 0v-38h34V0H33" id="aM"/><g id="t"><use transform="matrix(0.05,0,0,0.05,0,0)" xlink:href="#av"/><use transform="matrix(0.05,0,0,0.05,10,0)" xlink:href="#am"/><use transform="matrix(0.05,0,0,0.05,20,0)" xlink:href="#aL"/><use transform="matrix(0.05,0,0,0.05,23.95,0)" xlink:href="#an"/><use transform="matrix(0.05,0,0,0.05,33.95,0)" xlink:href="#aw"/><use transform="matrix(0.05,0,0,0.05,42.95,0)" xlink:href="#aA"/><use transform="matrix(0.05,0,0,0.05,47.95,0)" xlink:href="#ap"/><use transform="matrix(0.05,0,0,0.05,56.95,0)" xlink:href="#aM"/></g><path d="M24-248c120-7 223 5 221 122C244-46 201 0 124 0H24v-248zM76-40c74 7 117-18 117-86 0-67-45-88-117-82v168" id="aN"/><path d="M110-194c64 0 96 36 96 99 0 64-35 99-97 99-61 0-95-36-95-99 0-62 34-99 96-99zm-1 164c35 0 45-28 45-65 0-40-10-65-43-65-34 0-45 26-45 65 0 36 10 65 43 65" id="aO"/><g id="u"><use transform="matrix(0.05,0,0,0.05,0,0)" xlink:href="#aN"/><use transform="matrix(0.05,0,0,0.05,12.950000000000001,0)" xlink:href="#V"/><use transform="matrix(0.05,0,0,0.05,17.950000000000003,0)" xlink:href="#Z"/><use transform="matrix(0.05,0,0,0.05,24.950000000000003,0)" xlink:href="#Y"/><use transform="matrix(0.05,0,0,0.05,34.95,0)" xlink:href="#ag"/><use transform="matrix(0.05,0,0,0.05,44.95,0)" xlink:href="#ac"/><use transform="matrix(0.05,0,0,0.05,50.900000000000006,0)" xlink:href="#aO"/><use transform="matrix(0.05,0,0,0.05,61.85,0)" xlink:href="#Z"/></g><use transform="matrix(0.05,0,0,0.05,0,0)" xlink:href="#ai" id="v"/><g id="w"><use transform="matrix(0.048148148148148155,0,0,0.048148148148148155,0,0)" xlink:href="#am"/><use transform="matrix(0.048148148148148155,0,0,0.048148148148148155,9.629629629629632,0)" xlink:href="#ax"/><use transform="matrix(0.048148148148148155,0,0,0.048148148148148155,19.259259259259263,0)" xlink:href="#at"/><use transform="matrix(0.048148148148148155,0,0,0.048148148148148155,23.062962962962967,0)" xlink:href="#ao"/><use transform="matrix(0.048148148148148155,0,0,0.048148148148148155,26.86666666666667,0)" xlink:href="#ak"/><use transform="matrix(0.048148148148148155,0,0,0.048148148148148155,36.4962962962963,0)" xlink:href="#aq"/><use transform="matrix(0.048148148148148155,0,0,0.048148148148148155,42.22592592592593,0)" xlink:href="#aK"/><use transform="matrix(0.048148148148148155,0,0,0.048148148148148155,53.78148148148149,0)" xlink:href="#ax"/><use transform="matrix(0.048148148148148155,0,0,0.048148148148148155,63.41111111111112,0)" xlink:href="#at"/><use transform="matrix(0.048148148148148155,0,0,0.048148148148148155,67.21481481481483,0)" xlink:href="#ao"/><use transform="matrix(0.048148148148148155,0,0,0.048148148148148155,71.01851851851853,0)" xlink:href="#ak"/><use transform="matrix(0.048148148148148155,0,0,0.048148148148148155,80.64814814814817,0)" xlink:href="#an"/><use transform="matrix(0.048148148148148155,0,0,0.048148148148148155,90.2777777777778,0)" xlink:href="#aH"/></g><path d="M194-70c0 46-34 64-81 66v29H91V-4C42-5 12-27 4-67l30-6c5 28 25 41 57 43v-87c-38-9-76-20-76-67 1-42 33-58 76-59v-23h22v23c45 0 67 20 76 56l-31 6c-5-23-18-35-45-37v78c41 10 81 20 81 70zm-81 41c51 7 71-66 19-77-6-2-12-4-19-6v83zM91-219c-47-6-63 57-18 69 6 2 12 3 18 5v-74" id="aP"/><g id="x"><use transform="matrix(0.048148148148148155,0,0,0.048148148148148155,0,0)" xlink:href="#aP"/><use transform="matrix(0.048148148148148155,0,0,0.048148148148148155,9.629629629629632,0)" xlink:href="#am"/><use transform="matrix(0.048148148148148155,0,0,0.048148148148148155,19.259259259259263,0)" xlink:href="#ax"/><use transform="matrix(0.048148148148148155,0,0,0.048148148148148155,28.888888888888893,0)" xlink:href="#at"/><use transform="matrix(0.048148148148148155,0,0,0.048148148148148155,32.6925925925926,0)" xlink:href="#ao"/><use transform="matrix(0.048148148148148155,0,0,0.048148148148148155,36.4962962962963,0)" xlink:href="#ak"/><use transform="matrix(0.048148148148148155,0,0,0.048148148148148155,46.125925925925934,0)" xlink:href="#an"/><use transform="matrix(0.048148148148148155,0,0,0.048148148148148155,55.75555555555557,0)" xlink:href="#aH"/><use transform="matrix(0.048148148148148155,0,0,0.048148148148148155,61.485185185185195,0)" xlink:href="#ar"/></g><g id="y"><use transform="matrix(0.05,0,0,0.05,0,0)" xlink:href="#au"/><use transform="matrix(0.05,0,0,0.05,12.950000000000001,0)" xlink:href="#at"/><use transform="matrix(0.05,0,0,0.05,16.900000000000002,0)" xlink:href="#aH"/><use transform="matrix(0.05,0,0,0.05,22.85,0)" xlink:href="#an"/><use transform="matrix(0.05,0,0,0.05,32.85,0)" xlink:href="#aw"/><use transform="matrix(0.05,0,0,0.05,41.85,0)" xlink:href="#aA"/><use transform="matrix(0.05,0,0,0.05,46.85,0)" xlink:href="#av"/><use transform="matrix(0.05,0,0,0.05,56.85,0)" xlink:href="#aH"/></g><g id="z"><use transform="matrix(0.048148148148148155,0,0,0.048148148148148155,0,0)" xlink:href="#aP"/><use transform="matrix(0.048148148148148155,0,0,0.048148148148148155,9.629629629629632,0)" xlink:href="#am"/><use transform="matrix(0.048148148148148155,0,0,0.048148148148148155,19.259259259259263,0)" xlink:href="#ax"/><use transform="matrix(0.048148148148148155,0,0,0.048148148148148155,28.888888888888893,0)" xlink:href="#at"/><use transform="matrix(0.048148148148148155,0,0,0.048148148148148155,32.6925925925926,0)" xlink:href="#ao"/><use transform="matrix(0.048148148148148155,0,0,0.048148148148148155,36.4962962962963,0)" xlink:href="#ak"/><use transform="matrix(0.048148148148148155,0,0,0.048148148148148155,46.125925925925934,0)" xlink:href="#an"/><use transform="matrix(0.048148148148148155,0,0,0.048148148148148155,55.75555555555557,0)" xlink:href="#aH"/><use transform="matrix(0.048148148148148155,0,0,0.048148148148148155,61.485185185185195,0)" xlink:href="#ar"/></g><path d="M39-94c74 12-11 154 75 146v23c-44 4-70-10-70-52C44-23 55-84 6-82v-22c81 4-7-162 84-157h24v23c-82-15-2 131-75 144" id="aQ"/><use transform="matrix(0.048148148148148155,0,0,0.048148148148148155,0,0)" xlink:href="#aQ" id="A"/><path d="M16-82v-28h88v28H16" id="aR"/><path d="M18-27v-27l151-64-151-65v-27l175 74v36" id="aS"/><g id="C"><use transform="matrix(0.05,0,0,0.05,0,0)" xlink:href="#aP"/><use transform="matrix(0.05,0,0,0.05,10,0)" xlink:href="#am"/><use transform="matrix(0.05,0,0,0.05,20,0)" xlink:href="#ax"/><use transform="matrix(0.05,0,0,0.05,30,0)" xlink:href="#at"/><use transform="matrix(0.05,0,0,0.05,33.95,0)" xlink:href="#ao"/><use transform="matrix(0.05,0,0,0.05,37.900000000000006,0)" xlink:href="#ak"/><use transform="matrix(0.05,0,0,0.05,47.900000000000006,0)" xlink:href="#an"/><use transform="matrix(0.05,0,0,0.05,57.900000000000006,0)" xlink:href="#aH"/><use transform="matrix(0.05,0,0,0.05,63.85,0)" xlink:href="#aR"/><use transform="matrix(0.05,0,0,0.05,69.80000000000001,0)" xlink:href="#aS"/><use transform="matrix(0.05,0,0,0.05,80.30000000000001,0)" xlink:href="#aj"/><use transform="matrix(0.05,0,0,0.05,90.30000000000001,0)" xlink:href="#ak"/><use transform="matrix(0.05,0,0,0.05,100.30000000000001,0)" xlink:href="#ak"/><use transform="matrix(0.05,0,0,0.05,110.30000000000001,0)" xlink:href="#al"/><use transform="matrix(0.05,0,0,0.05,120.30000000000001,0)" xlink:href="#aj"/><use transform="matrix(0.05,0,0,0.05,130.3,0)" xlink:href="#am"/><use transform="matrix(0.05,0,0,0.05,140.3,0)" xlink:href="#an"/><use transform="matrix(0.05,0,0,0.05,150.3,0)" xlink:href="#ao"/><use transform="matrix(0.05,0,0,0.05,154.25,0)" xlink:href="#ap"/><use transform="matrix(0.05,0,0,0.05,163.25,0)" xlink:href="#aq"/><use transform="matrix(0.05,0,0,0.05,169.2,0)" xlink:href="#ar"/></g><g id="D"><use transform="matrix(0.05,0,0,0.05,0,0)" xlink:href="#aP"/><use transform="matrix(0.05,0,0,0.05,10,0)" xlink:href="#am"/><use transform="matrix(0.05,0,0,0.05,20,0)" xlink:href="#ax"/><use transform="matrix(0.05,0,0,0.05,30,0)" xlink:href="#at"/><use transform="matrix(0.05,0,0,0.05,33.95,0)" xlink:href="#ao"/><use transform="matrix(0.05,0,0,0.05,37.900000000000006,0)" xlink:href="#ak"/><use transform="matrix(0.05,0,0,0.05,47.900000000000006,0)" xlink:href="#an"/><use transform="matrix(0.05,0,0,0.05,57.900000000000006,0)" xlink:href="#aH"/><use transform="matrix(0.05,0,0,0.05,63.85,0)" xlink:href="#aR"/><use transform="matrix(0.05,0,0,0.05,69.80000000000001,0)" xlink:href="#aS"/><use transform="matrix(0.05,0,0,0.05,80.30000000000001,0)" xlink:href="#aj"/><use transform="matrix(0.05,0,0,0.05,90.30000000000001,0)" xlink:href="#ak"/><use transform="matrix(0.05,0,0,0.05,100.30000000000001,0)" xlink:href="#ak"/><use transform="matrix(0.05,0,0,0.05,110.30000000000001,0)" xlink:href="#as"/><use transform="matrix(0.05,0,0,0.05,122.30000000000001,0)" xlink:href="#ak"/><use transform="matrix(0.05,0,0,0.05,132.3,0)" xlink:href="#at"/><use transform="matrix(0.05,0,0,0.05,136.25,0)" xlink:href="#au"/><use transform="matrix(0.05,0,0,0.05,149.2,0)" xlink:href="#av"/><use transform="matrix(0.05,0,0,0.05,159.2,0)" xlink:href="#aw"/><use transform="matrix(0.05,0,0,0.05,168.2,0)" xlink:href="#ax"/><use transform="matrix(0.05,0,0,0.05,178.2,0)" xlink:href="#ay"/><use transform="matrix(0.05,0,0,0.05,193.14999999999998,0)" xlink:href="#an"/><use transform="matrix(0.05,0,0,0.05,203.14999999999998,0)" xlink:href="#az"/><use transform="matrix(0.05,0,0,0.05,213.14999999999998,0)" xlink:href="#aA"/><use transform="matrix(0.05,0,0,0.05,218.14999999999998,0)" xlink:href="#aq"/><use transform="matrix(0.05,0,0,0.05,224.09999999999997,0)" xlink:href="#ar"/></g><g id="E"><use transform="matrix(0.05,0,0,0.05,0,0)" xlink:href="#aP"/><use transform="matrix(0.05,0,0,0.05,10,0)" xlink:href="#am"/><use transform="matrix(0.05,0,0,0.05,20,0)" xlink:href="#ax"/><use transform="matrix(0.05,0,0,0.05,30,0)" xlink:href="#at"/><use transform="matrix(0.05,0,0,0.05,33.95,0)" xlink:href="#ao"/><use transform="matrix(0.05,0,0,0.05,37.900000000000006,0)" xlink:href="#ak"/><use transform="matrix(0.05,0,0,0.05,47.900000000000006,0)" xlink:href="#an"/><use transform="matrix(0.05,0,0,0.05,57.900000000000006,0)" xlink:href="#aH"/><use transform="matrix(0.05,0,0,0.05,63.85,0)" xlink:href="#aR"/><use transform="matrix(0.05,0,0,0.05,69.80000000000001,0)" xlink:href="#aS"/><use transform="matrix(0.05,0,0,0.05,80.30000000000001,0)" xlink:href="#aj"/><use transform="matrix(0.05,0,0,0.05,90.30000000000001,0)" xlink:href="#ak"/><use transform="matrix(0.05,0,0,0.05,100.30000000000001,0)" xlink:href="#ak"/><use transform="matrix(0.05,0,0,0.05,110.30000000000001,0)" xlink:href="#aB"/><use transform="matrix(0.05,0,0,0.05,122.30000000000001,0)" xlink:href="#aj"/><use transform="matrix(0.05,0,0,0.05,132.3,0)" xlink:href="#aw"/><use transform="matrix(0.05,0,0,0.05,141.3,0)" xlink:href="#aC"/><use transform="matrix(0.05,0,0,0.05,150.3,0)" xlink:href="#at"/><use transform="matrix(0.05,0,0,0.05,154.25,0)" xlink:href="#az"/><use transform="matrix(0.05,0,0,0.05,164.25,0)" xlink:href="#aD"/><use transform="matrix(0.05,0,0,0.05,174.25,0)" xlink:href="#al"/><use transform="matrix(0.05,0,0,0.05,184.25,0)" xlink:href="#at"/><use transform="matrix(0.05,0,0,0.05,188.2,0)" xlink:href="#ap"/><use transform="matrix(0.05,0,0,0.05,197.2,0)" xlink:href="#aA"/><use transform="matrix(0.05,0,0,0.05,202.2,0)" xlink:href="#aq"/><use transform="matrix(0.05,0,0,0.05,208.14999999999998,0)" xlink:href="#ar"/></g><g id="F"><use transform="matrix(0.05,0,0,0.05,0,0)" xlink:href="#aH"/><use transform="matrix(0.05,0,0,0.05,5.95,0)" xlink:href="#an"/><use transform="matrix(0.05,0,0,0.05,15.949999999999998,0)" xlink:href="#aA"/><use transform="matrix(0.05,0,0,0.05,20.95,0)" xlink:href="#ax"/><use transform="matrix(0.05,0,0,0.05,30.950000000000003,0)" xlink:href="#aH"/><use transform="matrix(0.05,0,0,0.05,36.9,0)" xlink:href="#az"/></g><g id="G"><use transform="matrix(0.05,0,0,0.05,0,0)" xlink:href="#aP"/><use transform="matrix(0.05,0,0,0.05,10,0)" xlink:href="#am"/><use transform="matrix(0.05,0,0,0.05,20,0)" xlink:href="#ax"/><use transform="matrix(0.05,0,0,0.05,30,0)" xlink:href="#at"/><use transform="matrix(0.05,0,0,0.05,33.95,0)" xlink:href="#ao"/><use transform="matrix(0.05,0,0,0.05,37.900000000000006,0)" xlink:href="#ak"/><use transform="matrix(0.05,0,0,0.05,47.900000000000006,0)" xlink:href="#an"/><use transform="matrix(0.05,0,0,0.05,57.900000000000006,0)" xlink:href="#aH"/><use transform="matrix(0.05,0,0,0.05,63.85,0)" xlink:href="#aR"/><use transform="matrix(0.05,0,0,0.05,69.80000000000001,0)" xlink:href="#aS"/><use transform="matrix(0.05,0,0,0.05,80.30000000000001,0)" xlink:href="#aD"/><use transform="matrix(0.05,0,0,0.05,90.30000000000001,0)" xlink:href="#an"/><use transform="matrix(0.05,0,0,0.05,100.30000000000001,0)" xlink:href="#aA"/><use transform="matrix(0.05,0,0,0.05,105.30000000000001,0)" xlink:href="#aE"/><use transform="matrix(0.05,0,0,0.05,117.30000000000001,0)" xlink:href="#aF"/><use transform="matrix(0.05,0,0,0.05,127.30000000000001,0)" xlink:href="#at"/><use transform="matrix(0.05,0,0,0.05,131.25,0)" xlink:href="#aG"/><use transform="matrix(0.05,0,0,0.05,141.25,0)" xlink:href="#aG"/><use transform="matrix(0.05,0,0,0.05,151.25,0)" xlink:href="#an"/><use transform="matrix(0.05,0,0,0.05,161.25,0)" xlink:href="#aH"/><use transform="matrix(0.05,0,0,0.05,167.2,0)" xlink:href="#aq"/><use transform="matrix(0.05,0,0,0.05,173.14999999999998,0)" xlink:href="#ar"/></g><path d="M76-40C78 24 84 88 6 75V52C86 64 9-79 80-94c-40-6-34-59-34-106 1-29-11-41-40-38v-23c44-4 70 10 70 52 0 47-12 108 38 105v22c-26 1-39 14-38 42" id="aT"/><use transform="matrix(0.048148148148148155,0,0,0.048148148148148155,0,0)" xlink:href="#aT" id="H"/><g id="I"><use transform="matrix(0.048148148148148155,0,0,0.048148148148148155,0,0)" xlink:href="#aP"/><use transform="matrix(0.048148148148148155,0,0,0.048148148148148155,9.629629629629632,0)" xlink:href="#ap"/><use transform="matrix(0.048148148148148155,0,0,0.048148148148148155,18.296296296296298,0)" xlink:href="#aF"/><use transform="matrix(0.048148148148148155,0,0,0.048148148148148155,27.92592592592593,0)" xlink:href="#at"/><use transform="matrix(0.048148148148148155,0,0,0.048148148148148155,31.729629629629635,0)" xlink:href="#aG"/><use transform="matrix(0.048148148148148155,0,0,0.048148148148148155,41.35925925925927,0)" xlink:href="#aG"/><use transform="matrix(0.048148148148148155,0,0,0.048148148148148155,50.988888888888894,0)" xlink:href="#an"/><use transform="matrix(0.048148148148148155,0,0,0.048148148148148155,60.61851851851854,0)" xlink:href="#aH"/><use transform="matrix(0.048148148148148155,0,0,0.048148148148148155,66.34814814814817,0)" xlink:href="#aK"/><use transform="matrix(0.048148148148148155,0,0,0.048148148148148155,77.90370370370373,0)" xlink:href="#ax"/><use transform="matrix(0.048148148148148155,0,0,0.048148148148148155,87.53333333333336,0)" xlink:href="#at"/><use transform="matrix(0.048148148148148155,0,0,0.048148148148148155,91.33703703703706,0)" xlink:href="#ao"/><use transform="matrix(0.048148148148148155,0,0,0.048148148148148155,95.14074074074077,0)" xlink:href="#ak"/><use transform="matrix(0.048148148148148155,0,0,0.048148148148148155,104.7703703703704,0)" xlink:href="#an"/><use transform="matrix(0.048148148148148155,0,0,0.048148148148148155,114.40000000000003,0)" xlink:href="#aH"/></g><path d="M18-150v-26h174v26H18zm0 90v-26h174v26H18" id="aU"/><use transform="matrix(0.048148148148148155,0,0,0.048148148148148155,0,0)" xlink:href="#aU" id="J"/><path d="M206 0h-36l-40-164L89 0H53L-1-190h32L70-26l43-164h34l41 164 42-164h31" id="aV"/><g id="K"><use transform="matrix(0.048148148148148155,0,0,0.048148148148148155,0,0)" xlink:href="#az"/><use transform="matrix(0.048148148148148155,0,0,0.048148148148148155,9.629629629629632,0)" xlink:href="#an"/><use transform="matrix(0.048148148148148155,0,0,0.048148148148148155,19.259259259259263,0)" xlink:href="#aV"/></g><path d="M68-36c1 33-1 63-14 82H32c9-13 17-26 17-46H33v-36h35zM33-154v-36h35v36H33" id="aW"/><g id="L"><use transform="matrix(0.048148148148148155,0,0,0.048148148148148155,0,0)" xlink:href="#aI"/><use transform="matrix(0.048148148148148155,0,0,0.048148148148148155,13.481481481481483,0)" xlink:href="#aJ"/><use transform="matrix(0.048148148148148155,0,0,0.048148148148148155,17.959259259259262,0)" xlink:href="#aJ"/><use transform="matrix(0.048148148148148155,0,0,0.048148148148148155,22.77407407407408,0)" xlink:href="#at"/><use transform="matrix(0.048148148148148155,0,0,0.048148148148148155,26.577777777777783,0)" xlink:href="#aw"/><use transform="matrix(0.048148148148148155,0,0,0.048148148148148155,35.244444444444454,0)" xlink:href="#an"/><use transform="matrix(0.048148148148148155,0,0,0.048148148148148155,44.87407407407409,0)" xlink:href="#au"/><use transform="matrix(0.048148148148148155,0,0,0.048148148148148155,57.34444444444446,0)" xlink:href="#an"/><use transform="matrix(0.048148148148148155,0,0,0.048148148148148155,66.9740740740741,0)" xlink:href="#aG"/><use transform="matrix(0.048148148148148155,0,0,0.048148148148148155,76.60370370370373,0)" xlink:href="#av"/><use transform="matrix(0.048148148148148155,0,0,0.048148148148148155,86.23333333333336,0)" xlink:href="#aA"/><use transform="matrix(0.048148148148148155,0,0,0.048148148148148155,91.04814814814817,0)" xlink:href="#aK"/><use transform="matrix(0.048148148148148155,0,0,0.048148148148148155,102.60370370370372,0)" xlink:href="#ax"/><use transform="matrix(0.048148148148148155,0,0,0.048148148148148155,112.23333333333338,0)" xlink:href="#at"/><use transform="matrix(0.048148148148148155,0,0,0.048148148148148155,116.03703703703708,0)" xlink:href="#ao"/><use transform="matrix(0.048148148148148155,0,0,0.048148148148148155,119.84074074074078,0)" xlink:href="#ak"/><use transform="matrix(0.048148148148148155,0,0,0.048148148148148155,129.4703703703704,0)" xlink:href="#an"/><use transform="matrix(0.048148148148148155,0,0,0.048148148148148155,139.10000000000002,0)" xlink:href="#aH"/><use transform="matrix(0.048148148148148155,0,0,0.048148148148148155,144.82962962962966,0)" xlink:href="#aW"/></g><g id="M"><use transform="matrix(0.048148148148148155,0,0,0.048148148148148155,0,0)" xlink:href="#aP"/><use transform="matrix(0.048148148148148155,0,0,0.048148148148148155,9.629629629629632,0)" xlink:href="#av"/><use transform="matrix(0.048148148148148155,0,0,0.048148148148148155,19.259259259259263,0)" xlink:href="#aJ"/><use transform="matrix(0.048148148148148155,0,0,0.048148148148148155,23.73703703703704,0)" xlink:href="#aJ"/><use transform="matrix(0.048148148148148155,0,0,0.048148148148148155,28.551851851851858,0)" xlink:href="#at"/><use transform="matrix(0.048148148148148155,0,0,0.048148148148148155,32.35555555555556,0)" xlink:href="#aw"/><use transform="matrix(0.048148148148148155,0,0,0.048148148148148155,41.022222222222226,0)" xlink:href="#an"/><use transform="matrix(0.048148148148148155,0,0,0.048148148148148155,50.65185185185186,0)" xlink:href="#au"/><use transform="matrix(0.048148148148148155,0,0,0.048148148148148155,63.122222222222234,0)" xlink:href="#an"/><use transform="matrix(0.048148148148148155,0,0,0.048148148148148155,72.75185185185187,0)" xlink:href="#aG"/><use transform="matrix(0.048148148148148155,0,0,0.048148148148148155,82.3814814814815,0)" xlink:href="#av"/><use transform="matrix(0.048148148148148155,0,0,0.048148148148148155,92.01111111111113,0)" xlink:href="#aA"/></g><g id="N"><use transform="matrix(0.048148148148148155,0,0,0.048148148148148155,0,0)" xlink:href="#aq"/><use transform="matrix(0.048148148148148155,0,0,0.048148148148148155,5.72962962962963,0)" xlink:href="#az"/><use transform="matrix(0.048148148148148155,0,0,0.048148148148148155,15.359259259259261,0)" xlink:href="#an"/><use transform="matrix(0.048148148148148155,0,0,0.048148148148148155,24.988888888888894,0)" xlink:href="#aV"/></g><g id="O"><use transform="matrix(0.048148148148148155,0,0,0.048148148148148155,0,0)" xlink:href="#au"/><use transform="matrix(0.048148148148148155,0,0,0.048148148148148155,12.470370370370372,0)" xlink:href="#at"/><use transform="matrix(0.048148148148148155,0,0,0.048148148148148155,16.274074074074075,0)" xlink:href="#aH"/><use transform="matrix(0.048148148148148155,0,0,0.048148148148148155,22.003703703703707,0)" xlink:href="#an"/><use transform="matrix(0.048148148148148155,0,0,0.048148148148148155,31.633333333333336,0)" xlink:href="#aw"/><use transform="matrix(0.048148148148148155,0,0,0.048148148148148155,40.30000000000001,0)" xlink:href="#aA"/><use transform="matrix(0.048148148148148155,0,0,0.048148148148148155,45.11481481481483,0)" xlink:href="#av"/><use transform="matrix(0.048148148148148155,0,0,0.048148148148148155,54.74444444444446,0)" xlink:href="#aH"/><use transform="matrix(0.048148148148148155,0,0,0.048148148148148155,60.474074074074096,0)" xlink:href="#aq"/><use transform="matrix(0.048148148148148155,0,0,0.048148148148148155,66.20370370370372,0)" xlink:href="#ar"/><use transform="matrix(0.048148148148148155,0,0,0.048148148148148155,71.93333333333335,0)" xlink:href="#ar"/><use transform="matrix(0.048148148148148155,0,0,0.048148148148148155,77.66296296296298,0)" xlink:href="#aR"/><use transform="matrix(0.048148148148148155,0,0,0.048148148148148155,83.3925925925926,0)" xlink:href="#aS"/><use transform="matrix(0.048148148148148155,0,0,0.048148148148148155,93.50370370370372,0)" xlink:href="#am"/><use transform="matrix(0.048148148148148155,0,0,0.048148148148148155,103.13333333333335,0)" xlink:href="#ax"/><use transform="matrix(0.048148148148148155,0,0,0.048148148148148155,112.76296296296297,0)" xlink:href="#at"/><use transform="matrix(0.048148148148148155,0,0,0.048148148148148155,116.56666666666668,0)" xlink:href="#ao"/><use transform="matrix(0.048148148148148155,0,0,0.048148148148148155,120.37037037037038,0)" xlink:href="#ak"/><use transform="matrix(0.048148148148148155,0,0,0.048148148148148155,130.00000000000003,0)" xlink:href="#aq"/><use transform="matrix(0.048148148148148155,0,0,0.048148148148148155,135.72962962962967,0)" xlink:href="#aP"/><use transform="matrix(0.048148148148148155,0,0,0.048148148148148155,145.3592592592593,0)" xlink:href="#ap"/><use transform="matrix(0.048148148148148155,0,0,0.048148148148148155,154.02592592592595,0)" xlink:href="#aF"/><use transform="matrix(0.048148148148148155,0,0,0.048148148148148155,163.65555555555557,0)" xlink:href="#at"/><use transform="matrix(0.048148148148148155,0,0,0.048148148148148155,167.45925925925928,0)" xlink:href="#aG"/><use transform="matrix(0.048148148148148155,0,0,0.048148148148148155,177.0888888888889,0)" xlink:href="#aG"/><use transform="matrix(0.048148148148148155,0,0,0.048148148148148155,186.71851851851852,0)" xlink:href="#an"/><use transform="matrix(0.048148148148148155,0,0,0.048148148148148155,196.34814814814814,0)" xlink:href="#aH"/><use transform="matrix(0.048148148148148155,0,0,0.048148148148148155,202.07777777777775,0)" xlink:href="#aK"/><use transform="matrix(0.048148148148148155,0,0,0.048148148148148155,213.63333333333333,0)" xlink:href="#ax"/><use transform="matrix(0.048148148148148155,0,0,0.048148148148148155,223.26296296296294,0)" xlink:href="#at"/><use transform="matrix(0.048148148148148155,0,0,0.048148148148148155,227.06666666666666,0)" xlink:href="#ao"/><use transform="matrix(0.048148148148148155,0,0,0.048148148148148155,230.87037037037035,0)" xlink:href="#ak"/><use transform="matrix(0.048148148148148155,0,0,0.048148148148148155,240.5,0)" xlink:href="#an"/><use transform="matrix(0.048148148148148155,0,0,0.048148148148148155,250.12962962962962,0)" xlink:href="#aH"/><use transform="matrix(0.048148148148148155,0,0,0.048148148148148155,255.85925925925926,0)" xlink:href="#ar"/><use transform="matrix(0.048148148148148155,0,0,0.048148148148148155,261.5888888888889,0)" xlink:href="#aW"/></g><path d="M127-220V0H93v-220H8v-28h204v28h-85" id="aX"/><g id="Q"><use transform="matrix(0.048148148148148155,0,0,0.048148148148148155,0,0)" xlink:href="#aP"/><use transform="matrix(0.048148148148148155,0,0,0.048148148148148155,9.629629629629632,0)" xlink:href="#aA"/><use transform="matrix(0.048148148148148155,0,0,0.048148148148148155,14.444444444444446,0)" xlink:href="#aF"/><use transform="matrix(0.048148148148148155,0,0,0.048148148148148155,24.074074074074076,0)" xlink:href="#at"/><use transform="matrix(0.048148148148148155,0,0,0.048148148148148155,27.877777777777784,0)" xlink:href="#ap"/><use transform="matrix(0.048148148148148155,0,0,0.048148148148148155,36.54444444444445,0)" xlink:href="#aR"/><use transform="matrix(0.048148148148148155,0,0,0.048148148148148155,42.27407407407408,0)" xlink:href="#aS"/><use transform="matrix(0.048148148148148155,0,0,0.048148148148148155,52.38518518518519,0)" xlink:href="#aj"/><use transform="matrix(0.048148148148148155,0,0,0.048148148148148155,62.01481481481483,0)" xlink:href="#ap"/><use transform="matrix(0.048148148148148155,0,0,0.048148148148148155,70.6814814814815,0)" xlink:href="#ap"/><use transform="matrix(0.048148148148148155,0,0,0.048148148148148155,79.34814814814817,0)" xlink:href="#an"/><use transform="matrix(0.048148148148148155,0,0,0.048148148148148155,88.9777777777778,0)" xlink:href="#aH"/><use transform="matrix(0.048148148148148155,0,0,0.048148148148148155,94.70740740740743,0)" xlink:href="#aA"/><use transform="matrix(0.048148148148148155,0,0,0.048148148148148155,99.52222222222224,0)" xlink:href="#aX"/><use transform="matrix(0.048148148148148155,0,0,0.048148148148148155,109.44074074074075,0)" xlink:href="#aH"/><use transform="matrix(0.048148148148148155,0,0,0.048148148148148155,115.17037037037039,0)" xlink:href="#ax"/><use transform="matrix(0.048148148148148155,0,0,0.048148148148148155,124.80000000000001,0)" xlink:href="#an"/><use transform="matrix(0.048148148148148155,0,0,0.048148148148148155,134.42962962962966,0)" xlink:href="#aq"/><use transform="matrix(0.048148148148148155,0,0,0.048148148148148155,140.1592592592593,0)" xlink:href="#aP"/><use transform="matrix(0.048148148148148155,0,0,0.048148148148148155,149.78888888888892,0)" xlink:href="#av"/><use transform="matrix(0.048148148148148155,0,0,0.048148148148148155,159.41851851851854,0)" xlink:href="#aJ"/><use transform="matrix(0.048148148148148155,0,0,0.048148148148148155,163.8962962962963,0)" xlink:href="#aJ"/><use transform="matrix(0.048148148148148155,0,0,0.048148148148148155,168.7111111111111,0)" xlink:href="#at"/><use transform="matrix(0.048148148148148155,0,0,0.048148148148148155,172.51481481481483,0)" xlink:href="#aw"/><use transform="matrix(0.048148148148148155,0,0,0.048148148148148155,181.18148148148148,0)" xlink:href="#an"/><use transform="matrix(0.048148148148148155,0,0,0.048148148148148155,190.8111111111111,0)" xlink:href="#au"/><use transform="matrix(0.048148148148148155,0,0,0.048148148148148155,203.28148148148148,0)" xlink:href="#an"/><use transform="matrix(0.048148148148148155,0,0,0.048148148148148155,212.9111111111111,0)" xlink:href="#aG"/><use transform="matrix(0.048148148148148155,0,0,0.048148148148148155,222.54074074074072,0)" xlink:href="#av"/><use transform="matrix(0.048148148148148155,0,0,0.048148148148148155,232.1703703703703,0)" xlink:href="#aA"/></g><g id="R"><use transform="matrix(0.048148148148148155,0,0,0.048148148148148155,0,0)" xlink:href="#at"/><use transform="matrix(0.048148148148148155,0,0,0.048148148148148155,3.8037037037037043,0)" xlink:href="#az"/><use transform="matrix(0.048148148148148155,0,0,0.048148148148148155,13.433333333333335,0)" xlink:href="#ap"/><use transform="matrix(0.048148148148148155,0,0,0.048148148148148155,22.1,0)" xlink:href="#aA"/><use transform="matrix(0.048148148148148155,0,0,0.048148148148148155,26.914814814814818,0)" xlink:href="#aj"/><use transform="matrix(0.048148148148148155,0,0,0.048148148148148155,36.54444444444445,0)" xlink:href="#az"/><use transform="matrix(0.048148148148148155,0,0,0.048148148148148155,46.174074074074085,0)" xlink:href="#aw"/><use transform="matrix(0.048148148148148155,0,0,0.048148148148148155,54.84074074074076,0)" xlink:href="#an"/><use transform="matrix(0.048148148148148155,0,0,0.048148148148148155,64.47037037037039,0)" xlink:href="#av"/><use transform="matrix(0.048148148148148155,0,0,0.048148148148148155,74.10000000000002,0)" xlink:href="#aJ"/></g><g id="S"><use transform="matrix(0.048148148148148155,0,0,0.048148148148148155,0,0)" xlink:href="#aI"/><use transform="matrix(0.048148148148148155,0,0,0.048148148148148155,13.481481481481483,0)" xlink:href="#aJ"/><use transform="matrix(0.048148148148148155,0,0,0.048148148148148155,17.959259259259262,0)" xlink:href="#aJ"/><use transform="matrix(0.048148148148148155,0,0,0.048148148148148155,22.77407407407408,0)" xlink:href="#at"/><use transform="matrix(0.048148148148148155,0,0,0.048148148148148155,26.577777777777783,0)" xlink:href="#aw"/><use transform="matrix(0.048148148148148155,0,0,0.048148148148148155,35.244444444444454,0)" xlink:href="#an"/><use transform="matrix(0.048148148148148155,0,0,0.048148148148148155,44.87407407407409,0)" xlink:href="#au"/><use transform="matrix(0.048148148148148155,0,0,0.048148148148148155,57.34444444444446,0)" xlink:href="#an"/><use transform="matrix(0.048148148148148155,0,0,0.048148148148148155,66.9740740740741,0)" xlink:href="#aG"/><use transform="matrix(0.048148148148148155,0,0,0.048148148148148155,76.60370370370373,0)" xlink:href="#av"/><use transform="matrix(0.048148148148148155,0,0,0.048148148148148155,86.23333333333336,0)" xlink:href="#aA"/><use transform="matrix(0.048148148148148155,0,0,0.048148148148148155,91.04814814814817,0)" xlink:href="#ar"/><use transform="matrix(0.048148148148148155,0,0,0.048148148148148155,96.7777777777778,0)" xlink:href="#aW"/></g></defs></g></svg>