<svg xmlns="http://www.w3.org/2000/svg" xmlns:xlink="http://www.w3.org/1999/xlink" xmlns:lucid="lucid" width="1620" height="740"><g transform="translate(0 -40)" lucid:page-tab-id="0_0"><path d="M0 0h1760v1360H0z" fill="#fff"/><path d="M240 65c0-2.76 2.24-5 5-5h1350c2.76 0 5 2.24 5 5v58c0 2.76-2.24 5-5 5H245c-2.76 0-5-2.24-5-5z" fill="none"/><use xlink:href="#a" transform="matrix(1,0,0,1,240,60) translate(542.5555555555555 42)"/><use xlink:href="#b" transform="matrix(1,0,0,1,240,60) translate(680 42)"/><path d="M180 269c0-2.76 2.24-5 5-5h310c2.76 0 5 2.24 5 5v150c0 2.76-2.24 5-5 5H185c-2.76 0-5-2.24-5-5z" stroke="#000" stroke-width="2" fill="#fff"/><path d="M180 323h320" stroke="#000" stroke-width="2" fill="none"/><use xlink:href="#c" transform="matrix(1,0,0,1,188,264) translate(93.57499999999999 22.799999999999997)"/><use xlink:href="#d" transform="matrix(1,0,0,1,188,264) translate(83.125 44.4)"/><use xlink:href="#e" transform="matrix(1,0,0,1,192,331.2) translate(0 35.3)"/><use xlink:href="#f" transform="matrix(1,0,0,1,192,331.2) translate(15.5 35.3)"/><use xlink:href="#e" transform="matrix(1,0,0,1,192,331.2) translate(0 56.9)"/><use xlink:href="#g" transform="matrix(1,0,0,1,192,331.2) translate(15.5 56.9)"/><path d="M360 565c0-2.76 2.24-5 5-5h310c2.76 0 5 2.24 5 5v190c0 2.76-2.24 5-5 5H365c-2.76 0-5-2.24-5-5z" stroke="#000" stroke-width="2" fill="#fff"/><path d="M360 598h320m-320 62h320" stroke="#000" stroke-width="2" fill="none"/><use xlink:href="#h" transform="matrix(1,0,0,1,368,560) translate(87.175 22.6)"/><use xlink:href="#i" transform="matrix(1,0,0,1,372,605.6) translate(0 26.6)"/><use xlink:href="#j" transform="matrix(1,0,0,1,372,605.6) translate(15 26.6)"/><use xlink:href="#e" transform="matrix(1,0,0,1,372,667.5745554720762) translate(0 35.3)"/><use xlink:href="#f" transform="matrix(1,0,0,1,372,667.5745554720762) translate(15.5 35.3)"/><use xlink:href="#e" transform="matrix(1,0,0,1,372,667.5745554720762) translate(0 56.9)"/><use xlink:href="#g" transform="matrix(1,0,0,1,372,667.5745554720762) translate(15.5 56.9)"/><path d="M20 565c0-2.76 2.24-5 5-5h310c2.76 0 5 2.24 5 5v190c0 2.76-2.24 5-5 5H25c-2.76 0-5-2.24-5-5z" stroke="#000" stroke-width="2" fill="#fff"/><path d="M20 598h320M20 661h320" stroke="#000" stroke-width="2" fill="none"/><use xlink:href="#k" transform="matrix(1,0,0,1,28,560) translate(101.57499999999999 22.6)"/><use xlink:href="#i" transform="matrix(1,0,0,1,32,605.6) translate(0 27.6)"/><use xlink:href="#j" transform="matrix(1,0,0,1,32,605.6) translate(15 27.6)"/><use xlink:href="#e" transform="matrix(1,0,0,1,32,668.6809917355372) translate(0 34.8)"/><use xlink:href="#f" transform="matrix(1,0,0,1,32,668.6809917355372) translate(15.5 34.8)"/><use xlink:href="#e" transform="matrix(1,0,0,1,32,668.6809917355372) translate(0 56.4)"/><use xlink:href="#g" transform="matrix(1,0,0,1,32,668.6809917355372) translate(15.5 56.4)"/><path d="M180 559v-62c0-2.76 2.24-5 5-5h150c2.76 0 5-2.24 5-5v-43.76" stroke="#000" stroke-width="2" fill="none"/><path d="M181 560h-2v-1h2zM344.64 442.5h-9.28l4.64-14.26z"/><path d="M346 443.5h-12l6-18.5zm-9.26-2h6.52L340 431.47z"/><path d="M520 559v-62c0-2.76-2.24-5-5-5H345c-2.76 0-5-2.24-5-5v-43.76" stroke="#000" stroke-width="2" fill="none"/><path d="M521 560h-2v-1h2zM344.64 442.5h-9.28l4.64-14.26z"/><path d="M346 443.5h-12l6-18.5zm-9.26-2h6.52L340 431.47z"/><path d="M1000 285c0-2.76 2.24-5 5-5h310c2.76 0 5 2.24 5 5v150c0 2.76-2.24 5-5 5h-310c-2.76 0-5-2.24-5-5z" stroke="#000" stroke-width="2" fill="#fff"/><path d="M1000 339h320" stroke="#000" stroke-width="2" fill="none"/><use xlink:href="#l" transform="matrix(1,0,0,1,1008,280) translate(93.57499999999999 22.799999999999997)"/><use xlink:href="#m" transform="matrix(1,0,0,1,1008,280) translate(70.175 44.4)"/><use xlink:href="#e" transform="matrix(1,0,0,1,1012,347.2) translate(0 46.1)"/><use xlink:href="#n" transform="matrix(1,0,0,1,1012,347.2) translate(15.5 46.1)"/><path d="M780 565c0-2.76 2.24-5 5-5h170c2.76 0 5 2.24 5 5v110c0 2.76-2.24 5-5 5H785c-2.76 0-5-2.24-5-5z" stroke="#000" stroke-width="2" fill="#fff"/><path d="M780 598h180m-180 48h180" stroke="#000" stroke-width="2" fill="none"/><use xlink:href="#o" transform="matrix(1,0,0,1,788,560) translate(45.575 22.6)"/><use xlink:href="#e" transform="matrix(1,0,0,1,792,654.32) translate(0 14.4)"/><use xlink:href="#n" transform="matrix(1,0,0,1,792,654.32) translate(15.5 14.4)"/><path d="M980 565c0-2.76 2.24-5 5-5h170c2.76 0 5 2.24 5 5v110c0 2.76-2.24 5-5 5H985c-2.76 0-5-2.24-5-5z" stroke="#000" stroke-width="2" fill="#fff"/><path d="M980 598h180m-180 41h180" stroke="#000" stroke-width="2" fill="none"/><use xlink:href="#p" transform="matrix(1,0,0,1,988,560) translate(47.099999999999994 22.6)"/><use xlink:href="#e" transform="matrix(1,0,0,1,992,646.8000000000001) translate(0 16.6)"/><use xlink:href="#n" transform="matrix(1,0,0,1,992,646.8000000000001) translate(15.5 16.6)"/><path d="M1180 565c0-2.76 2.24-5 5-5h170c2.76 0 5 2.24 5 5v110c0 2.76-2.24 5-5 5h-170c-2.76 0-5-2.24-5-5z" stroke="#000" stroke-width="2" fill="#fff"/><path d="M1180 598h180m-180 41h180" stroke="#000" stroke-width="2" fill="none"/><use xlink:href="#q" transform="matrix(1,0,0,1,1188,560) translate(52.55 22.6)"/><use xlink:href="#e" transform="matrix(1,0,0,1,1192,646.8000000000001) translate(0 16.6)"/><use xlink:href="#n" transform="matrix(1,0,0,1,1192,646.8000000000001) translate(15.5 16.6)"/><path d="M1380 565c0-2.76 2.24-5 5-5h170c2.76 0 5 2.24 5 5v110c0 2.76-2.24 5-5 5h-170c-2.76 0-5-2.24-5-5z" stroke="#000" stroke-width="2" fill="#fff"/><path d="M1380 598h180m-180 41h180" stroke="#000" stroke-width="2" fill="none"/><use xlink:href="#r" transform="matrix(1,0,0,1,1387.9999999999998,560) translate(50.05 22.6)"/><use xlink:href="#e" transform="matrix(1,0,0,1,1391.9999999999998,646.8000000000001) translate(0 16.6)"/><use xlink:href="#n" transform="matrix(1,0,0,1,1391.9999999999998,646.8000000000001) translate(15.5 16.6)"/><path d="M1470 559v-54c0-2.76-2.24-5-5-5h-300c-2.76 0-5-2.24-5-5v-35.76" stroke="#000" stroke-width="2" fill="none"/><path d="M1471 560h-2v-1h2zM1164.64 458.5h-9.28l4.64-14.26z"/><path d="M1166 459.5h-12l6-18.5zm-9.26-2h6.52l-3.26-10.03z"/><path d="M1270 559v-54c0-2.76-2.24-5-5-5h-100c-2.76 0-5-2.24-5-5v-35.76" stroke="#000" stroke-width="2" fill="none"/><path d="M1271 560h-2v-1h2zM1164.64 458.5h-9.28l4.64-14.26z"/><path d="M1166 459.5h-12l6-18.5zm-9.26-2h6.52l-3.26-10.03z"/><path d="M1070 559v-54c0-2.76 2.24-5 5-5h80c2.76 0 5-2.24 5-5v-35.76" stroke="#000" stroke-width="2" fill="none"/><path d="M1071 560h-2v-1h2zM1164.64 458.5h-9.28l4.64-14.26z"/><path d="M1166 459.5h-12l6-18.5zm-9.26-2h6.52l-3.26-10.03z"/><path d="M870 559v-54c0-2.76 2.24-5 5-5h280c2.76 0 5-2.24 5-5v-35.76" stroke="#000" stroke-width="2" fill="none"/><path d="M871 560h-2v-1h2zM1164.64 458.5h-9.28l4.64-14.26z"/><path d="M1166 459.5h-12l6-18.5zm-9.26-2h6.52l-3.26-10.03z"/><path d="M501 385.33h479.76" stroke="#000" stroke-width="2" fill="none"/><path d="M501 386.33h-1v-2h1zM995.76 385.33l-14.26 4.64v-9.27z"/><path d="M999 385.33l-18.5 6.02v-12.03zm-16.5 3.26l10.03-3.27-10.03-3.26z"/><path d="M580 280h326.4l13.6 13.6V348H580z" stroke="#d9be60" stroke-width="2" fill="#ffdf71"/><path d="M906.4 280l13.6 13.6h-13.6z" fill="#d9be60"/><g><use xlink:href="#s" transform="matrix(1,0,0,1,580,280) translate(32.38 27.15)"/><use xlink:href="#t" transform="matrix(1,0,0,1,580,280) translate(63.980000000000004 27.15)"/><use xlink:href="#u" transform="matrix(1,0,0,1,580,280) translate(94.93 27.15)"/><use xlink:href="#v" transform="matrix(1,0,0,1,580,280) translate(163.78 27.15)"/><use xlink:href="#w" transform="matrix(1,0,0,1,580,280) translate(196.73000000000002 27.15)"/><use xlink:href="#x" transform="matrix(1,0,0,1,580,280) translate(132.03 48.75)"/></g><defs><path d="M182-130c37 4 62 22 62 59C244 23 116-4 24 0v-248c84 5 203-23 205 63 0 31-19 50-47 55zM76-148c40-3 101 13 101-30 0-44-60-28-101-31v61zm0 110c48-3 116 14 116-37 0-48-69-32-116-35v72" id="y"/><path d="M135-150c-39-12-60 13-60 57V0H25l-1-190h47c2 13-1 29 3 40 6-28 27-53 61-41v41" id="z"/><path d="M25-224v-37h50v37H25zM25 0v-190h50V0H25" id="A"/><path d="M88-194c31-1 46 15 58 34l-1-101h50l1 261h-48c-2-10 0-23-3-31C134-8 116 4 84 4 32 4 16-41 15-95c0-56 19-97 73-99zm17 164c33 0 40-30 41-66 1-37-9-64-41-64s-38 30-39 65c0 43 13 65 39 65" id="B"/><path d="M195-6C206 82 75 100 31 46c-4-6-6-13-8-21l49-6c3 16 16 24 34 25 40 0 42-37 40-79-11 22-30 35-61 35-53 0-70-43-70-97 0-56 18-96 73-97 30 0 46 14 59 34l2-30h47zm-90-29c32 0 41-27 41-63 0-35-9-62-40-62-32 0-39 29-40 63 0 36 9 62 39 62" id="C"/><path d="M185-48c-13 30-37 53-82 52C43 2 14-33 14-96s30-98 90-98c62 0 83 45 84 108H66c0 31 8 55 39 56 18 0 30-7 34-22zm-45-69c5-46-57-63-70-21-2 6-4 13-4 21h74" id="D"/><g id="a"><use transform="matrix(0.1111111111111111,0,0,0.1111111111111111,0,0)" xlink:href="#y"/><use transform="matrix(0.1111111111111111,0,0,0.1111111111111111,28.777777777777775,0)" xlink:href="#z"/><use transform="matrix(0.1111111111111111,0,0,0.1111111111111111,44.33333333333333,0)" xlink:href="#A"/><use transform="matrix(0.1111111111111111,0,0,0.1111111111111111,55.44444444444444,0)" xlink:href="#B"/><use transform="matrix(0.1111111111111111,0,0,0.1111111111111111,79.77777777777777,0)" xlink:href="#C"/><use transform="matrix(0.1111111111111111,0,0,0.1111111111111111,104.1111111111111,0)" xlink:href="#D"/></g><path d="M24-248c93 1 206-16 204 79-1 75-69 88-152 82V0H24v-248zm52 121c47 0 100 7 100-41 0-47-54-39-100-39v80" id="E"/><path d="M133-34C117-15 103 5 69 4 32 3 11-16 11-54c-1-60 55-63 116-61 1-26-3-47-28-47-18 1-26 9-28 27l-52-2c7-38 36-58 82-57s74 22 75 68l1 82c-1 14 12 18 25 15v27c-30 8-71 5-69-32zm-48 3c29 0 43-24 42-57-32 0-66-3-65 30 0 17 8 27 23 27" id="F"/><path d="M115-3C79 11 28 4 28-45v-112H4v-33h27l15-45h31v45h36v33H77v99c-1 23 16 31 38 25v30" id="G"/><path d="M135-194c87-1 58 113 63 194h-50c-7-57 23-157-34-157-59 0-34 97-39 157H25l-1-190h47c2 12-1 28 3 38 12-26 28-41 61-42" id="H"/><g id="b"><use transform="matrix(0.1111111111111111,0,0,0.1111111111111111,0,0)" xlink:href="#E"/><use transform="matrix(0.1111111111111111,0,0,0.1111111111111111,26.666666666666664,0)" xlink:href="#F"/><use transform="matrix(0.1111111111111111,0,0,0.1111111111111111,48.888888888888886,0)" xlink:href="#G"/><use transform="matrix(0.1111111111111111,0,0,0.1111111111111111,62.11111111111111,0)" xlink:href="#G"/><use transform="matrix(0.1111111111111111,0,0,0.1111111111111111,75.33333333333333,0)" xlink:href="#D"/><use transform="matrix(0.1111111111111111,0,0,0.1111111111111111,97.55555555555554,0)" xlink:href="#z"/><use transform="matrix(0.1111111111111111,0,0,0.1111111111111111,113.1111111111111,0)" xlink:href="#H"/></g><path d="M15-91v-56l181-69v40L49-119l147 57v40" id="I"/><path d="M121-226c-27-7-43 5-38 36h38v33H83V0H34v-157H6v-33h28c-9-59 32-81 87-68v32" id="J"/><path d="M190-63c-7 42-38 67-86 67-59 0-84-38-90-98-12-110 154-137 174-36l-49 2c-2-19-15-32-35-32-30 0-35 28-38 64-6 74 65 87 74 30" id="K"/><path d="M15-22v-40l146-57-146-57v-40l181 69v56" id="L"/><g id="c"><use transform="matrix(0.05,0,0,0.05,0,0)" xlink:href="#I"/><use transform="matrix(0.05,0,0,0.05,10.5,0)" xlink:href="#I"/><use transform="matrix(0.05,0,0,0.05,21,0)" xlink:href="#A"/><use transform="matrix(0.05,0,0,0.05,26,0)" xlink:href="#H"/><use transform="matrix(0.05,0,0,0.05,36.95,0)" xlink:href="#G"/><use transform="matrix(0.05,0,0,0.05,42.900000000000006,0)" xlink:href="#D"/><use transform="matrix(0.05,0,0,0.05,52.900000000000006,0)" xlink:href="#z"/><use transform="matrix(0.05,0,0,0.05,59.900000000000006,0)" xlink:href="#J"/><use transform="matrix(0.05,0,0,0.05,65.85000000000001,0)" xlink:href="#F"/><use transform="matrix(0.05,0,0,0.05,75.85000000000001,0)" xlink:href="#K"/><use transform="matrix(0.05,0,0,0.05,85.85000000000001,0)" xlink:href="#D"/><use transform="matrix(0.05,0,0,0.05,95.85000000000001,0)" xlink:href="#L"/><use transform="matrix(0.05,0,0,0.05,106.35000000000001,0)" xlink:href="#L"/></g><path d="M24 0v-248h52V0H24" id="M"/><g id="d"><use transform="matrix(0.05,0,0,0.05,0,0)" xlink:href="#M"/><use transform="matrix(0.05,0,0,0.05,5,0)" xlink:href="#E"/><use transform="matrix(0.05,0,0,0.05,17,0)" xlink:href="#z"/><use transform="matrix(0.05,0,0,0.05,24,0)" xlink:href="#A"/><use transform="matrix(0.05,0,0,0.05,29,0)" xlink:href="#H"/><use transform="matrix(0.05,0,0,0.05,39.95,0)" xlink:href="#G"/><use transform="matrix(0.05,0,0,0.05,45.900000000000006,0)" xlink:href="#D"/><use transform="matrix(0.05,0,0,0.05,55.900000000000006,0)" xlink:href="#z"/><use transform="matrix(0.05,0,0,0.05,62.900000000000006,0)" xlink:href="#M"/><use transform="matrix(0.05,0,0,0.05,67.9,0)" xlink:href="#H"/><use transform="matrix(0.05,0,0,0.05,78.85000000000001,0)" xlink:href="#G"/><use transform="matrix(0.05,0,0,0.05,84.80000000000001,0)" xlink:href="#D"/><use transform="matrix(0.05,0,0,0.05,94.80000000000001,0)" xlink:href="#z"/><use transform="matrix(0.05,0,0,0.05,101.80000000000001,0)" xlink:href="#J"/><use transform="matrix(0.05,0,0,0.05,107.75,0)" xlink:href="#F"/><use transform="matrix(0.05,0,0,0.05,117.75,0)" xlink:href="#K"/><use transform="matrix(0.05,0,0,0.05,127.75,0)" xlink:href="#D"/></g><path d="M118-107v75H92v-75H18v-26h74v-75h26v75h74v26h-74" id="N"/><use transform="matrix(0.05,0,0,0.05,0,0)" xlink:href="#N" id="e"/><path d="M135-143c-3-34-86-38-87 0 15 53 115 12 119 90S17 21 10-45l28-5c4 36 97 45 98 0-10-56-113-15-118-90-4-57 82-63 122-42 12 7 21 19 24 35" id="O"/><path d="M100-194c63 0 86 42 84 106H49c0 40 14 67 53 68 26 1 43-12 49-29l28 8c-11 28-37 45-77 45C44 4 14-33 15-96c1-61 26-98 85-98zm52 81c6-60-76-77-97-28-3 7-6 17-6 28h103" id="P"/><path d="M59-47c-2 24 18 29 38 22v24C64 9 27 4 27-40v-127H5v-23h24l9-43h21v43h35v23H59v120" id="Q"/><path d="M63-220v92h138v28H63V0H30v-248h175v28H63" id="R"/><path d="M100-194c62-1 85 37 85 99 1 63-27 99-86 99S16-35 15-95c0-66 28-99 85-99zM99-20c44 1 53-31 53-75 0-43-8-75-51-75s-53 32-53 75 10 74 51 75" id="S"/><path d="M114-163C36-179 61-72 57 0H25l-1-190h30c1 12-1 29 2 39 6-27 23-49 58-41v29" id="T"/><path d="M210-169c-67 3-38 105-44 169h-31v-121c0-29-5-50-35-48C34-165 62-65 56 0H25l-1-190h30c1 10-1 24 2 32 10-44 99-50 107 0 11-21 27-35 58-36 85-2 47 119 55 194h-31v-121c0-29-5-49-35-48" id="U"/><path d="M141-36C126-15 110 5 73 4 37 3 15-17 15-53c-1-64 63-63 125-63 3-35-9-54-41-54-24 1-41 7-42 31l-33-3c5-37 33-52 76-52 45 0 72 20 72 64v82c-1 20 7 32 28 27v20c-31 9-61-2-59-35zM48-53c0 20 12 33 32 33 41-3 63-29 60-74-43 2-92-5-92 41" id="V"/><path d="M87 75C49 33 22-17 22-94c0-76 28-126 65-167h31c-38 41-64 92-64 168S80 34 118 75H87" id="W"/><path d="M33 0v-248h34V0H33" id="X"/><path d="M117-194c89-4 53 116 60 194h-32v-121c0-31-8-49-39-48C34-167 62-67 57 0H25l-1-190h30c1 10-1 24 2 32 11-22 29-35 61-36" id="Y"/><path d="M101-234c-31-9-42 10-38 44h38v23H63V0H32v-167H5v-23h27c-7-52 17-82 69-68v24" id="Z"/><path d="M96-169c-40 0-48 33-48 73s9 75 48 75c24 0 41-14 43-38l32 2c-6 37-31 61-74 61-59 0-76-41-82-99-10-93 101-131 147-64 4 7 5 14 7 22l-32 3c-4-21-16-35-41-35" id="aa"/><path d="M33-261c38 41 65 92 65 168S71 34 33 75H2C39 34 66-17 66-93S39-220 2-261h31" id="ab"/><g id="f"><use transform="matrix(0.05,0,0,0.05,0,0)" xlink:href="#O"/><use transform="matrix(0.05,0,0,0.05,9,0)" xlink:href="#P"/><use transform="matrix(0.05,0,0,0.05,19,0)" xlink:href="#Q"/><use transform="matrix(0.05,0,0,0.05,24,0)" xlink:href="#R"/><use transform="matrix(0.05,0,0,0.05,34.95,0)" xlink:href="#S"/><use transform="matrix(0.05,0,0,0.05,44.95,0)" xlink:href="#T"/><use transform="matrix(0.05,0,0,0.05,50.900000000000006,0)" xlink:href="#U"/><use transform="matrix(0.05,0,0,0.05,65.85000000000001,0)" xlink:href="#V"/><use transform="matrix(0.05,0,0,0.05,75.85000000000001,0)" xlink:href="#Q"/><use transform="matrix(0.05,0,0,0.05,80.85000000000001,0)" xlink:href="#Q"/><use transform="matrix(0.05,0,0,0.05,85.85000000000001,0)" xlink:href="#P"/><use transform="matrix(0.05,0,0,0.05,95.85000000000001,0)" xlink:href="#T"/><use transform="matrix(0.05,0,0,0.05,101.80000000000001,0)" xlink:href="#W"/><use transform="matrix(0.05,0,0,0.05,107.75,0)" xlink:href="#R"/><use transform="matrix(0.05,0,0,0.05,118.7,0)" xlink:href="#S"/><use transform="matrix(0.05,0,0,0.05,128.70000000000002,0)" xlink:href="#T"/><use transform="matrix(0.05,0,0,0.05,134.65,0)" xlink:href="#U"/><use transform="matrix(0.05,0,0,0.05,149.6,0)" xlink:href="#V"/><use transform="matrix(0.05,0,0,0.05,159.6,0)" xlink:href="#Q"/><use transform="matrix(0.05,0,0,0.05,164.6,0)" xlink:href="#Q"/><use transform="matrix(0.05,0,0,0.05,169.6,0)" xlink:href="#P"/><use transform="matrix(0.05,0,0,0.05,179.6,0)" xlink:href="#T"/><use transform="matrix(0.05,0,0,0.05,185.54999999999998,0)" xlink:href="#X"/><use transform="matrix(0.05,0,0,0.05,190.54999999999998,0)" xlink:href="#Y"/><use transform="matrix(0.05,0,0,0.05,200.54999999999998,0)" xlink:href="#Q"/><use transform="matrix(0.05,0,0,0.05,205.54999999999995,0)" xlink:href="#P"/><use transform="matrix(0.05,0,0,0.05,215.54999999999995,0)" xlink:href="#T"/><use transform="matrix(0.05,0,0,0.05,221.49999999999997,0)" xlink:href="#Z"/><use transform="matrix(0.05,0,0,0.05,226.49999999999997,0)" xlink:href="#V"/><use transform="matrix(0.05,0,0,0.05,236.49999999999997,0)" xlink:href="#aa"/><use transform="matrix(0.05,0,0,0.05,245.49999999999997,0)" xlink:href="#P"/><use transform="matrix(0.05,0,0,0.05,255.49999999999997,0)" xlink:href="#ab"/></g><path d="M177-190C167-65 218 103 67 71c-23-6-38-20-44-43l32-5c15 47 100 32 89-28v-30C133-14 115 1 83 1 29 1 15-40 15-95c0-56 16-97 71-98 29-1 48 16 59 35 1-10 0-23 2-32h30zM94-22c36 0 50-32 50-73 0-42-14-75-50-75-39 0-46 34-46 75s6 73 46 73" id="ac"/><path d="M194-70c0 46-34 64-81 66v29H91V-4C42-5 12-27 4-67l30-6c5 28 25 41 57 43v-87c-38-9-76-20-76-67 1-42 33-58 76-59v-23h22v23c45 0 67 20 76 56l-31 6c-5-23-18-35-45-37v78c41 10 81 20 81 70zm-81 41c51 7 71-66 19-77-6-2-12-4-19-6v83zM91-219c-47-6-63 57-18 69 6 2 12 3 18 5v-74" id="ad"/><path d="M141 0L90-78 38 0H4l68-98-65-92h35l48 74 47-74h35l-64 92 68 98h-35" id="ae"/><g id="g"><use transform="matrix(0.05,0,0,0.05,0,0)" xlink:href="#ac"/><use transform="matrix(0.05,0,0,0.05,10,0)" xlink:href="#P"/><use transform="matrix(0.05,0,0,0.05,20,0)" xlink:href="#Q"/><use transform="matrix(0.05,0,0,0.05,25,0)" xlink:href="#W"/><use transform="matrix(0.05,0,0,0.05,30.950000000000003,0)" xlink:href="#ad"/><use transform="matrix(0.05,0,0,0.05,40.95,0)" xlink:href="#Q"/><use transform="matrix(0.05,0,0,0.05,45.95,0)" xlink:href="#P"/><use transform="matrix(0.05,0,0,0.05,55.95,0)" xlink:href="#ae"/><use transform="matrix(0.05,0,0,0.05,64.95,0)" xlink:href="#Q"/><use transform="matrix(0.05,0,0,0.05,69.95,0)" xlink:href="#ab"/></g><path d="M30-248c118-7 216 8 213 122C240-48 200 0 122 0H30v-248zM63-27c89 8 146-16 146-99s-60-101-146-95v194" id="af"/><path d="M240 0l2-218c-23 76-54 145-80 218h-23L58-218 59 0H30v-248h44l77 211c21-75 51-140 76-211h43V0h-30" id="ag"/><path d="M24-231v-30h32v30H24zM24 0v-190h32V0H24" id="ah"/><path d="M30-248c87 1 191-15 191 75 0 78-77 80-158 76V0H30v-248zm33 125c57 0 124 11 124-50 0-59-68-47-124-48v98" id="ai"/><g id="h"><use transform="matrix(0.05,0,0,0.05,0,0)" xlink:href="#af"/><use transform="matrix(0.05,0,0,0.05,12.950000000000001,0)" xlink:href="#S"/><use transform="matrix(0.05,0,0,0.05,22.950000000000003,0)" xlink:href="#Q"/><use transform="matrix(0.05,0,0,0.05,27.950000000000003,0)" xlink:href="#ag"/><use transform="matrix(0.05,0,0,0.05,42.900000000000006,0)" xlink:href="#V"/><use transform="matrix(0.05,0,0,0.05,52.900000000000006,0)" xlink:href="#Q"/><use transform="matrix(0.05,0,0,0.05,57.900000000000006,0)" xlink:href="#T"/><use transform="matrix(0.05,0,0,0.05,63.85,0)" xlink:href="#ah"/><use transform="matrix(0.05,0,0,0.05,67.80000000000001,0)" xlink:href="#ae"/><use transform="matrix(0.05,0,0,0.05,76.80000000000001,0)" xlink:href="#ai"/><use transform="matrix(0.05,0,0,0.05,88.80000000000001,0)" xlink:href="#T"/><use transform="matrix(0.05,0,0,0.05,94.75000000000001,0)" xlink:href="#ah"/><use transform="matrix(0.05,0,0,0.05,98.70000000000002,0)" xlink:href="#Y"/><use transform="matrix(0.05,0,0,0.05,108.7,0)" xlink:href="#Q"/><use transform="matrix(0.05,0,0,0.05,113.7,0)" xlink:href="#P"/><use transform="matrix(0.05,0,0,0.05,123.7,0)" xlink:href="#T"/></g><path d="M158-156l-14 65h45v19h-49L124 0h-19l15-72H56L41 0H22l15-72H2v-19h39l14-65H11v-19h48l15-71h20l-16 71h64l16-71h19l-16 71h37v19h-40zm-83 0L61-91h63l14-65H75" id="aj"/><use transform="matrix(0.05,0,0,0.05,0,0)" xlink:href="#aj" id="i"/><g id="j"><use transform="matrix(0.05,0,0,0.05,0,0)" xlink:href="#ad"/><use transform="matrix(0.05,0,0,0.05,10,0)" xlink:href="#Z"/><use transform="matrix(0.05,0,0,0.05,15,0)" xlink:href="#S"/><use transform="matrix(0.05,0,0,0.05,25,0)" xlink:href="#T"/><use transform="matrix(0.05,0,0,0.05,30.950000000000003,0)" xlink:href="#U"/><use transform="matrix(0.05,0,0,0.05,45.9,0)" xlink:href="#V"/><use transform="matrix(0.05,0,0,0.05,55.900000000000006,0)" xlink:href="#Q"/><use transform="matrix(0.05,0,0,0.05,60.900000000000006,0)" xlink:href="#Q"/><use transform="matrix(0.05,0,0,0.05,65.9,0)" xlink:href="#P"/><use transform="matrix(0.05,0,0,0.05,75.9,0)" xlink:href="#T"/></g><path d="M143 0L79-87 56-68V0H24v-261h32v163l83-92h37l-77 82L181 0h-38" id="ak"/><path d="M153-248C145-148 188 4 80 4 36 3 13-21 6-62l32-5c4 25 16 42 43 43 27 0 39-20 39-49v-147H72v-28h81" id="al"/><g id="k"><use transform="matrix(0.05,0,0,0.05,0,0)" xlink:href="#X"/><use transform="matrix(0.05,0,0,0.05,5,0)" xlink:href="#Y"/><use transform="matrix(0.05,0,0,0.05,15,0)" xlink:href="#ak"/><use transform="matrix(0.05,0,0,0.05,24,0)" xlink:href="#al"/><use transform="matrix(0.05,0,0,0.05,33,0)" xlink:href="#P"/><use transform="matrix(0.05,0,0,0.05,43,0)" xlink:href="#Q"/><use transform="matrix(0.05,0,0,0.05,48,0)" xlink:href="#ai"/><use transform="matrix(0.05,0,0,0.05,60,0)" xlink:href="#T"/><use transform="matrix(0.05,0,0,0.05,65.95,0)" xlink:href="#ah"/><use transform="matrix(0.05,0,0,0.05,69.9,0)" xlink:href="#Y"/><use transform="matrix(0.05,0,0,0.05,79.9,0)" xlink:href="#Q"/><use transform="matrix(0.05,0,0,0.05,84.9,0)" xlink:href="#P"/><use transform="matrix(0.05,0,0,0.05,94.9,0)" xlink:href="#T"/></g><g id="l"><use transform="matrix(0.05,0,0,0.05,0,0)" xlink:href="#I"/><use transform="matrix(0.05,0,0,0.05,10.5,0)" xlink:href="#I"/><use transform="matrix(0.05,0,0,0.05,21,0)" xlink:href="#A"/><use transform="matrix(0.05,0,0,0.05,26,0)" xlink:href="#H"/><use transform="matrix(0.05,0,0,0.05,36.95,0)" xlink:href="#G"/><use transform="matrix(0.05,0,0,0.05,42.900000000000006,0)" xlink:href="#D"/><use transform="matrix(0.05,0,0,0.05,52.900000000000006,0)" xlink:href="#z"/><use transform="matrix(0.05,0,0,0.05,59.900000000000006,0)" xlink:href="#J"/><use transform="matrix(0.05,0,0,0.05,65.85000000000001,0)" xlink:href="#F"/><use transform="matrix(0.05,0,0,0.05,75.85000000000001,0)" xlink:href="#K"/><use transform="matrix(0.05,0,0,0.05,85.85000000000001,0)" xlink:href="#D"/><use transform="matrix(0.05,0,0,0.05,95.85000000000001,0)" xlink:href="#L"/><use transform="matrix(0.05,0,0,0.05,106.35000000000001,0)" xlink:href="#L"/></g><path d="M76-208v77h127v40H76V0H24v-248h183v40H76" id="am"/><path d="M110-194c64 0 96 36 96 99 0 64-35 99-97 99-61 0-95-36-95-99 0-62 34-99 96-99zm-1 164c35 0 45-28 45-65 0-40-10-65-43-65-34 0-45 26-45 65 0 36 10 65 43 65" id="an"/><path d="M220-157c-53 9-28 100-34 157h-49v-107c1-27-5-49-29-50C55-147 81-57 75 0H25l-1-190h47c2 12-1 28 3 38 10-53 101-56 108 0 13-22 24-43 59-42 82 1 51 116 57 194h-49v-107c-1-25-5-48-29-50" id="ao"/><g id="m"><use transform="matrix(0.05,0,0,0.05,0,0)" xlink:href="#M"/><use transform="matrix(0.05,0,0,0.05,5,0)" xlink:href="#am"/><use transform="matrix(0.05,0,0,0.05,15.950000000000001,0)" xlink:href="#an"/><use transform="matrix(0.05,0,0,0.05,26.900000000000002,0)" xlink:href="#z"/><use transform="matrix(0.05,0,0,0.05,33.900000000000006,0)" xlink:href="#ao"/><use transform="matrix(0.05,0,0,0.05,49.900000000000006,0)" xlink:href="#F"/><use transform="matrix(0.05,0,0,0.05,59.900000000000006,0)" xlink:href="#G"/><use transform="matrix(0.05,0,0,0.05,65.85000000000001,0)" xlink:href="#G"/><use transform="matrix(0.05,0,0,0.05,71.80000000000001,0)" xlink:href="#D"/><use transform="matrix(0.05,0,0,0.05,81.80000000000001,0)" xlink:href="#z"/><use transform="matrix(0.05,0,0,0.05,88.80000000000001,0)" xlink:href="#M"/><use transform="matrix(0.05,0,0,0.05,93.80000000000001,0)" xlink:href="#H"/><use transform="matrix(0.05,0,0,0.05,104.75,0)" xlink:href="#G"/><use transform="matrix(0.05,0,0,0.05,110.7,0)" xlink:href="#D"/><use transform="matrix(0.05,0,0,0.05,120.7,0)" xlink:href="#z"/><use transform="matrix(0.05,0,0,0.05,127.7,0)" xlink:href="#J"/><use transform="matrix(0.05,0,0,0.05,133.65,0)" xlink:href="#F"/><use transform="matrix(0.05,0,0,0.05,143.65,0)" xlink:href="#K"/><use transform="matrix(0.05,0,0,0.05,153.65,0)" xlink:href="#D"/></g><g id="n"><use transform="matrix(0.05,0,0,0.05,0,0)" xlink:href="#Z"/><use transform="matrix(0.05,0,0,0.05,5,0)" xlink:href="#S"/><use transform="matrix(0.05,0,0,0.05,15,0)" xlink:href="#T"/><use transform="matrix(0.05,0,0,0.05,20.95,0)" xlink:href="#U"/><use transform="matrix(0.05,0,0,0.05,35.9,0)" xlink:href="#V"/><use transform="matrix(0.05,0,0,0.05,45.9,0)" xlink:href="#Q"/><use transform="matrix(0.05,0,0,0.05,50.9,0)" xlink:href="#W"/><use transform="matrix(0.05,0,0,0.05,56.85,0)" xlink:href="#ad"/><use transform="matrix(0.05,0,0,0.05,66.85,0)" xlink:href="#Q"/><use transform="matrix(0.05,0,0,0.05,71.85,0)" xlink:href="#P"/><use transform="matrix(0.05,0,0,0.05,81.85,0)" xlink:href="#ae"/><use transform="matrix(0.05,0,0,0.05,90.85,0)" xlink:href="#Q"/><use transform="matrix(0.05,0,0,0.05,95.85,0)" xlink:href="#ab"/></g><path d="M24 0v-261h32V0H24" id="ap"/><path d="M127-220V0H93v-220H8v-28h204v28h-85" id="aq"/><g id="o"><use transform="matrix(0.05,0,0,0.05,0,0)" xlink:href="#ai"/><use transform="matrix(0.05,0,0,0.05,12,0)" xlink:href="#ap"/><use transform="matrix(0.05,0,0,0.05,15.949999999999998,0)" xlink:href="#V"/><use transform="matrix(0.05,0,0,0.05,25.950000000000003,0)" xlink:href="#ah"/><use transform="matrix(0.05,0,0,0.05,29.899999999999995,0)" xlink:href="#Y"/><use transform="matrix(0.05,0,0,0.05,39.9,0)" xlink:href="#aq"/><use transform="matrix(0.05,0,0,0.05,48.85,0)" xlink:href="#P"/><use transform="matrix(0.05,0,0,0.05,58.85,0)" xlink:href="#ae"/><use transform="matrix(0.05,0,0,0.05,67.85,0)" xlink:href="#Q"/></g><path d="M197 0v-115H63V0H30v-248h33v105h134v-105h34V0h-34" id="ar"/><g id="p"><use transform="matrix(0.05,0,0,0.05,0,0)" xlink:href="#ar"/><use transform="matrix(0.05,0,0,0.05,12.950000000000001,0)" xlink:href="#Q"/><use transform="matrix(0.05,0,0,0.05,17.950000000000003,0)" xlink:href="#U"/><use transform="matrix(0.05,0,0,0.05,32.900000000000006,0)" xlink:href="#ap"/><use transform="matrix(0.05,0,0,0.05,36.85000000000001,0)" xlink:href="#aq"/><use transform="matrix(0.05,0,0,0.05,45.80000000000001,0)" xlink:href="#P"/><use transform="matrix(0.05,0,0,0.05,55.80000000000001,0)" xlink:href="#ae"/><use transform="matrix(0.05,0,0,0.05,64.80000000000001,0)" xlink:href="#Q"/></g><path d="M30 0v-248h187v28H63v79h144v27H63v87h162V0H30" id="as"/><path d="M85-194c31 0 48 13 60 33l-1-100h32l1 261h-30c-2-10 0-23-3-31C134-8 116 4 85 4 32 4 16-35 15-94c0-66 23-100 70-100zm9 24c-40 0-46 34-46 75 0 40 6 74 45 74 42 0 51-32 51-76 0-42-9-74-50-73" id="at"/><g id="q"><use transform="matrix(0.05,0,0,0.05,0,0)" xlink:href="#as"/><use transform="matrix(0.05,0,0,0.05,12,0)" xlink:href="#at"/><use transform="matrix(0.05,0,0,0.05,22,0)" xlink:href="#ah"/><use transform="matrix(0.05,0,0,0.05,25.950000000000003,0)" xlink:href="#aq"/><use transform="matrix(0.05,0,0,0.05,34.9,0)" xlink:href="#P"/><use transform="matrix(0.05,0,0,0.05,44.9,0)" xlink:href="#ae"/><use transform="matrix(0.05,0,0,0.05,53.900000000000006,0)" xlink:href="#Q"/></g><path d="M212-179c-10-28-35-45-73-45-59 0-87 40-87 99 0 60 29 101 89 101 43 0 62-24 78-52l27 14C228-24 195 4 139 4 59 4 22-46 18-125c-6-104 99-153 187-111 19 9 31 26 39 46" id="au"/><path d="M108 0H70L1-190h34L89-25l56-165h34" id="av"/><g id="r"><use transform="matrix(0.05,0,0,0.05,0,0)" xlink:href="#au"/><use transform="matrix(0.05,0,0,0.05,12.950000000000001,0)" xlink:href="#O"/><use transform="matrix(0.05,0,0,0.05,21.950000000000003,0)" xlink:href="#av"/><use transform="matrix(0.05,0,0,0.05,30.950000000000003,0)" xlink:href="#aq"/><use transform="matrix(0.05,0,0,0.05,39.900000000000006,0)" xlink:href="#P"/><use transform="matrix(0.05,0,0,0.05,49.900000000000006,0)" xlink:href="#ae"/><use transform="matrix(0.05,0,0,0.05,58.900000000000006,0)" xlink:href="#Q"/></g><path d="M266 0h-40l-56-210L115 0H75L2-248h35L96-30l15-64 43-154h32l59 218 59-218h35" id="aw"/><g id="s"><use transform="matrix(0.05,0,0,0.05,0,0)" xlink:href="#aw"/><use transform="matrix(0.05,0,0,0.05,16.599999999999998,0)" xlink:href="#P"/></g><g id="t"><use transform="matrix(0.05,0,0,0.05,0,0)" xlink:href="#V"/><use transform="matrix(0.05,0,0,0.05,10,0)" xlink:href="#T"/><use transform="matrix(0.05,0,0,0.05,15.949999999999998,0)" xlink:href="#P"/></g><path d="M115-194c53 0 69 39 70 98 0 66-23 100-70 100C84 3 66-7 56-30L54 0H23l1-261h32v101c10-23 28-34 59-34zm-8 174c40 0 45-34 45-75 0-40-5-75-45-74-42 0-51 32-51 76 0 43 10 73 51 73" id="ax"/><g id="u"><use transform="matrix(0.05,0,0,0.05,0,0)" xlink:href="#ax"/><use transform="matrix(0.05,0,0,0.05,10,0)" xlink:href="#T"/><use transform="matrix(0.05,0,0,0.05,15.949999999999998,0)" xlink:href="#ah"/><use transform="matrix(0.05,0,0,0.05,19.9,0)" xlink:href="#at"/><use transform="matrix(0.05,0,0,0.05,29.899999999999995,0)" xlink:href="#ac"/><use transform="matrix(0.05,0,0,0.05,39.9,0)" xlink:href="#ah"/><use transform="matrix(0.05,0,0,0.05,43.85,0)" xlink:href="#Y"/><use transform="matrix(0.05,0,0,0.05,53.85,0)" xlink:href="#ac"/></g><path d="M206 0h-36l-40-164L89 0H53L-1-190h32L70-26l43-164h34l41 164 42-164h31" id="ay"/><g id="v"><use transform="matrix(0.05,0,0,0.05,0,0)" xlink:href="#Q"/><use transform="matrix(0.05,0,0,0.05,5,0)" xlink:href="#ay"/><use transform="matrix(0.05,0,0,0.05,17.950000000000003,0)" xlink:href="#S"/></g><g id="w"><use transform="matrix(0.05,0,0,0.05,0,0)" xlink:href="#V"/><use transform="matrix(0.05,0,0,0.05,10,0)" xlink:href="#ax"/><use transform="matrix(0.05,0,0,0.05,20,0)" xlink:href="#O"/><use transform="matrix(0.05,0,0,0.05,29,0)" xlink:href="#Q"/><use transform="matrix(0.05,0,0,0.05,34,0)" xlink:href="#T"/><use transform="matrix(0.05,0,0,0.05,39.95,0)" xlink:href="#V"/><use transform="matrix(0.05,0,0,0.05,49.95,0)" xlink:href="#aa"/><use transform="matrix(0.05,0,0,0.05,58.95,0)" xlink:href="#Q"/><use transform="matrix(0.05,0,0,0.05,63.95,0)" xlink:href="#ah"/><use transform="matrix(0.05,0,0,0.05,67.9,0)" xlink:href="#S"/><use transform="matrix(0.05,0,0,0.05,77.9,0)" xlink:href="#Y"/><use transform="matrix(0.05,0,0,0.05,87.9,0)" xlink:href="#O"/></g><path d="M106-169C34-169 62-67 57 0H25v-261h32l-1 103c12-21 28-36 61-36 89 0 53 116 60 194h-32v-121c2-32-8-49-39-48" id="az"/><g id="x"><use transform="matrix(0.05,0,0,0.05,0,0)" xlink:href="#Q"/><use transform="matrix(0.05,0,0,0.05,5,0)" xlink:href="#S"/><use transform="matrix(0.05,0,0,0.05,15,0)" xlink:href="#ac"/><use transform="matrix(0.05,0,0,0.05,25,0)" xlink:href="#P"/><use transform="matrix(0.05,0,0,0.05,35,0)" xlink:href="#V"/><use transform="matrix(0.05,0,0,0.05,45,0)" xlink:href="#Q"/><use transform="matrix(0.05,0,0,0.05,50,0)" xlink:href="#az"/><use transform="matrix(0.05,0,0,0.05,60,0)" xlink:href="#P"/><use transform="matrix(0.05,0,0,0.05,70,0)" xlink:href="#T"/></g></defs></g></svg>