<svg xmlns="http://www.w3.org/2000/svg" xmlns:xlink="http://www.w3.org/1999/xlink" xmlns:lucid="lucid" width="840" height="900"><g transform="translate(-40 -20)" lucid:page-tab-id="0_0"><path d="M0 0h1760v1360H0z" fill="#fff"/><path d="M350 45c0-2.76 2.24-5 5-5h210c2.76 0 5 2.24 5 5v70c0 2.76-2.24 5-5 5H355c-2.76 0-5-2.24-5-5z" stroke="#000" stroke-width="2" fill="#fff"/><use xlink:href="#a" transform="matrix(1,0,0,1,350,40) translate(72.555 44.4)"/><use xlink:href="#b" transform="matrix(1,0,0,1,350,40) translate(109.555 44.4)"/><path d="M280 205c0-2.76 2.24-5 5-5h350c2.76 0 5 2.24 5 5v230c0 2.76-2.24 5-5 5H285c-2.76 0-5-2.24-5-5z" stroke="#000" stroke-width="2" fill="#fff"/><path d="M280 238h360m-360 64h360" stroke="#000" stroke-width="2" fill="none"/><use xlink:href="#c" transform="matrix(1,0,0,1,288,200) translate(79.125 22.6)"/><use xlink:href="#d" transform="matrix(1,0,0,1,288,200) translate(150.075 22.6)"/><use xlink:href="#e" transform="matrix(1,0,0,1,292,245.6) translate(0 28.1)"/><use xlink:href="#f" transform="matrix(1,0,0,1,292,245.6) translate(15 28.1)"/><use xlink:href="#g" transform="matrix(1,0,0,1,292,309.87567567567567) translate(0 43.5)"/><use xlink:href="#h" transform="matrix(1,0,0,1,292,309.87567567567567) translate(15.5 43.5)"/><use xlink:href="#g" transform="matrix(1,0,0,1,292,309.87567567567567) translate(0 65.10000000000001)"/><use xlink:href="#i" transform="matrix(1,0,0,1,292,309.87567567567567) translate(15.5 65.10000000000001)"/><use xlink:href="#g" transform="matrix(1,0,0,1,292,309.87567567567567) translate(0 86.70000000000002)"/><use xlink:href="#j" transform="matrix(1,0,0,1,292,309.87567567567567) translate(15.5 86.70000000000002)"/><path d="M60 545c0-2.76 2.24-5 5-5h230c2.76 0 5 2.24 5 5v170c0 2.76-2.24 5-5 5H65c-2.76 0-5-2.24-5-5z" stroke="#000" stroke-width="2" fill="#fff"/><path d="M60 578h240M60 654h240" stroke="#000" stroke-width="2" fill="none"/><use xlink:href="#k" transform="matrix(1,0,0,1,68,540) translate(88.575 22.6)"/><use xlink:href="#g" transform="matrix(1,0,0,1,72,661.5) translate(0 29.1)"/><use xlink:href="#l" transform="matrix(1,0,0,1,72,661.5) translate(15.5 29.1)"/><path d="M340 545c0-2.76 2.24-5 5-5h230c2.76 0 5 2.24 5 5v170c0 2.76-2.24 5-5 5H345c-2.76 0-5-2.24-5-5z" stroke="#000" stroke-width="2" fill="#fff"/><path d="M340 578h240m-240 71h240" stroke="#000" stroke-width="2" fill="none"/><use xlink:href="#m" transform="matrix(1,0,0,1,348,540) translate(88.025 22.6)"/><use xlink:href="#g" transform="matrix(1,0,0,1,352,656.8000000000001) translate(0 31.6)"/><use xlink:href="#l" transform="matrix(1,0,0,1,352,656.8000000000001) translate(15.5 31.6)"/><path d="M620 545c0-2.76 2.24-5 5-5h230c2.76 0 5 2.24 5 5v170c0 2.76-2.24 5-5 5H625c-2.76 0-5-2.24-5-5z" stroke="#000" stroke-width="2" fill="#fff"/><path d="M620 578h240m-240 71h240" stroke="#000" stroke-width="2" fill="none"/><use xlink:href="#n" transform="matrix(1,0,0,1,628,540) translate(88.5 22.6)"/><use xlink:href="#g" transform="matrix(1,0,0,1,632,656.8000000000001) translate(0 31.6)"/><use xlink:href="#l" transform="matrix(1,0,0,1,632,656.8000000000001) translate(15.5 31.6)"/><path d="M180 539v-44c0-2.76 2.24-5 5-5h270c2.76 0 5-2.24 5-5v-25.76" stroke="#000" stroke-width="2" fill="none"/><path d="M181 540h-2v-1h2zM464.64 458.5h-9.28l4.64-14.26z"/><path d="M466 459.5h-12l6-18.5zm-9.26-2h6.52L460 447.47z"/><path d="M460 539v-79.76" stroke="#000" stroke-width="2" fill="none"/><path d="M461 540h-2v-1h2zM464.64 458.5h-9.28l4.64-14.26z"/><path d="M466 459.5h-12l6-18.5zm-9.26-2h6.52L460 447.47z"/><path d="M740 539v-44c0-2.76-2.24-5-5-5H465c-2.76 0-5-2.24-5-5v-25.76" stroke="#000" stroke-width="2" fill="none"/><path d="M741 540h-2v-1h2zM464.64 458.5h-9.28l4.64-14.26z"/><path d="M466 459.5h-12l6-18.5zm-9.26-2h6.52L460 447.47z"/><path d="M460 121v59.76" stroke="#000" stroke-width="2" fill="none"/><path d="M461 121h-2v-1h2zM460 195.76l-4.64-14.26h9.28z"/><path d="M460 199l-6-18.5h12zm-3.26-16.5l3.26 10.03 3.26-10.03z"/><path d="M250 845c0-2.76 2.24-5 5-5h398c2.76 0 6.58 1.58 8.54 3.54l4.92 4.92c1.96 1.96 3.54 5.78 3.54 8.54v38c0 2.76-2.24 5-5 5H255c-2.76 0-5-2.24-5-5z" stroke="#000" stroke-width="2" fill="#fff"/><path d="M659.2 844.8c-.66-2.65.37-3.23 2.3-1.3l5 5c1.93 1.93 1.35 2.96-1.3 2.3-2.65-.66-5.34-3.35-6-6z" stroke="#000" stroke-width="2" fill="#b3b3b3"/><use xlink:href="#o" transform="matrix(1,0,0,1,250,840) translate(5.01 33.15)"/><use xlink:href="#p" transform="matrix(1,0,0,1,250,840) translate(41.01 33.15)"/><use xlink:href="#q" transform="matrix(1,0,0,1,250,840) translate(160.81 33.15)"/><use xlink:href="#r" transform="matrix(1,0,0,1,250,840) translate(206.76 33.15)"/><use xlink:href="#s" transform="matrix(1,0,0,1,250,840) translate(240.76 33.15)"/><use xlink:href="#t" transform="matrix(1,0,0,1,250,840) translate(290.71 33.15)"/><use xlink:href="#u" transform="matrix(1,0,0,1,250,840) translate(320.71 33.15)"/><path d="M460 839v-54c0-2.76 2.24-5 5-5h180c2.76 0 5-2.24 5-5v-35.76" stroke="#000" stroke-width="2" fill="none"/><path d="M461 840h-2v-1h2zM654.64 738.5h-9.28l4.64-14.26z"/><path d="M656 739.5h-12l6-18.5zm-9.26-2h6.52L650 727.47z"/><path d="M460 839v-99.76" stroke="#000" stroke-width="2" fill="none"/><path d="M461 840h-2v-1h2zM464.64 738.5h-9.28l4.64-14.26z"/><path d="M466 739.5h-12l6-18.5zm-9.26-2h6.52L460 727.47z"/><path d="M460 839v-54c0-2.76-2.24-5-5-5H185c-2.76 0-5-2.24-5-5v-35.76" stroke="#000" stroke-width="2" fill="none"/><path d="M461 840h-2v-1h2zM184.64 738.5h-9.28l4.64-14.26z"/><path d="M186 739.5h-12l6-18.5zm-9.26-2h6.52L180 727.47z"/><defs><path d="M30 0v-248h187v28H63v79h144v27H63v87h162V0H30" id="v"/><path d="M117-194c89-4 53 116 60 194h-32v-121c0-31-8-49-39-48C34-167 62-67 57 0H25l-1-190h30c1 10-1 24 2 32 11-22 29-35 61-36" id="w"/><path d="M85-194c31 0 48 13 60 33l-1-100h32l1 261h-30c-2-10 0-23-3-31C134-8 116 4 85 4 32 4 16-35 15-94c0-66 23-100 70-100zm9 24c-40 0-46 34-46 75 0 40 6 74 45 74 42 0 51-32 51-76 0-42-9-74-50-73" id="x"/><g id="a"><use transform="matrix(0.05,0,0,0.05,0,0)" xlink:href="#v"/><use transform="matrix(0.05,0,0,0.05,12,0)" xlink:href="#w"/><use transform="matrix(0.05,0,0,0.05,22,0)" xlink:href="#x"/></g><path d="M232-93c-1 65-40 97-104 97C67 4 28-28 28-90v-158h33c8 89-33 224 67 224 102 0 64-133 71-224h33v155" id="y"/><path d="M135-143c-3-34-86-38-87 0 15 53 115 12 119 90S17 21 10-45l28-5c4 36 97 45 98 0-10-56-113-15-118-90-4-57 82-63 122-42 12 7 21 19 24 35" id="z"/><path d="M100-194c63 0 86 42 84 106H49c0 40 14 67 53 68 26 1 43-12 49-29l28 8c-11 28-37 45-77 45C44 4 14-33 15-96c1-61 26-98 85-98zm52 81c6-60-76-77-97-28-3 7-6 17-6 28h103" id="A"/><path d="M114-163C36-179 61-72 57 0H25l-1-190h30c1 12-1 29 2 39 6-27 23-49 58-41v29" id="B"/><g id="b"><use transform="matrix(0.05,0,0,0.05,0,0)" xlink:href="#y"/><use transform="matrix(0.05,0,0,0.05,12.950000000000001,0)" xlink:href="#z"/><use transform="matrix(0.05,0,0,0.05,21.950000000000003,0)" xlink:href="#A"/><use transform="matrix(0.05,0,0,0.05,31.950000000000003,0)" xlink:href="#B"/></g><path d="M187 0l-14-72H61L19 0h-37l149-248h38L221 0h-34zm-19-99l-22-123L76-99h92" id="C"/><path d="M68-162c25-46 127-43 121 31C183-60 169 1 98 4 69 5 53-11 43-31L36 0H5l52-261h31zm88 36c2-27-9-43-34-43-55 0-70 51-70 103 0 29 15 45 43 46 52 0 58-58 61-106" id="D"/><path d="M55-144c13 50 104 24 104 88C159 21 15 23 1-39l26-10c6 40 102 42 102-4-13-50-104-23-104-87 0-71 143-71 148-8l-29 4c-5-35-85-37-89 0" id="E"/><path d="M51-54c-9 22 5 41 31 30L79-1C43 14 10-4 19-52l22-115H19l5-23h22l19-43h21l-9 43h35l-4 23H73" id="F"/><path d="M66-151c12-25 30-51 66-40l-6 26C45-176 58-65 38 0H6l36-190h30" id="G"/><path d="M165-48c-4 18 1 34 23 27l-3 20c-29 8-62 0-52-35h-2C116-14 99 4 63 4 30 4 8-16 8-49c0-68 71-67 138-67 10-26 0-56-31-54-26 1-42 9-47 31l-32-5c8-67 160-71 144 15-5 28-9 54-15 81zM42-50c3 52 80 24 89-6 7-12 7-24 11-38-47 1-103-4-100 44" id="H"/><path d="M44-68c0 29 11 47 38 47 30 0 42-19 51-41l28 9C148-21 126 4 82 4 31 4 10-29 12-85c3-77 74-140 146-93 12 8 15 23 18 40l-31 5c-1-22-13-36-36-36-52 0-65 49-65 101" id="I"/><g id="c"><use transform="matrix(0.05,0,0,0.05,0,0)" xlink:href="#C"/><use transform="matrix(0.05,0,0,0.05,12,0)" xlink:href="#D"/><use transform="matrix(0.05,0,0,0.05,22,0)" xlink:href="#E"/><use transform="matrix(0.05,0,0,0.05,31,0)" xlink:href="#F"/><use transform="matrix(0.05,0,0,0.05,36,0)" xlink:href="#G"/><use transform="matrix(0.05,0,0,0.05,41.95,0)" xlink:href="#H"/><use transform="matrix(0.05,0,0,0.05,51.95,0)" xlink:href="#I"/><use transform="matrix(0.05,0,0,0.05,60.95,0)" xlink:href="#F"/></g><path d="M179 0l23-115H67L45 0H11l48-248h34L72-143h135l21-105h32L212 0h-33" id="J"/><path d="M30-147c31-64 166-65 159 27C183-49 158 1 86 4 9 8 1-88 30-147zM88-20c53 0 68-48 68-100 0-31-11-51-44-50-52 1-68 46-68 97 0 32 13 53 44 53" id="K"/><path d="M248-111c6-24 9-61-24-58-72 9-57 108-77 169h-31l26-142c3-37-50-30-64-10C52-115 50-51 37 0H6l36-190h30c-1 10-6 24-4 32 13-43 101-52 105 5 13-22 29-41 61-41 90 0 28 129 23 194h-31" id="L"/><path d="M111-194c62-3 86 47 72 106H45c-7 38 6 69 45 68 27-1 43-14 53-32l24 11C152-15 129 4 87 4 38 3 12-23 12-71c0-70 32-119 99-123zm44 81c14-66-71-72-95-28-4 8-8 17-11 28h106" id="M"/><path d="M125-24c46 0 70-25 89-51l25 16C214-24 183 4 123 4 8 4-5-146 60-208c32-50 158-61 191-5 5 7 9 14 11 22l-32 10c-9-28-33-43-69-43-74 0-108 51-108 125 0 46 24 75 72 75" id="N"/><path d="M67-158c15-20 31-36 64-36 94 0 33 127 27 194h-32l25-140c3-38-53-32-70-12C52-117 51-51 37 0H6l51-261h31" id="O"/><path d="M127 0L80-88 50-66 37 0H6l51-261h31L57-100l99-90h39l-93 82L161 0h-34" id="P"/><g id="d"><use transform="matrix(0.05,0,0,0.05,0,0)" xlink:href="#J"/><use transform="matrix(0.05,0,0,0.05,12.950000000000001,0)" xlink:href="#K"/><use transform="matrix(0.05,0,0,0.05,22.950000000000003,0)" xlink:href="#L"/><use transform="matrix(0.05,0,0,0.05,37.900000000000006,0)" xlink:href="#M"/><use transform="matrix(0.05,0,0,0.05,47.900000000000006,0)" xlink:href="#N"/><use transform="matrix(0.05,0,0,0.05,60.85,0)" xlink:href="#O"/><use transform="matrix(0.05,0,0,0.05,70.85000000000001,0)" xlink:href="#M"/><use transform="matrix(0.05,0,0,0.05,80.85000000000001,0)" xlink:href="#I"/><use transform="matrix(0.05,0,0,0.05,89.85000000000001,0)" xlink:href="#P"/><use transform="matrix(0.05,0,0,0.05,98.85000000000001,0)" xlink:href="#M"/><use transform="matrix(0.05,0,0,0.05,108.85000000000001,0)" xlink:href="#G"/></g><path d="M158-156l-14 65h45v19h-49L124 0h-19l15-72H56L41 0H22l15-72H2v-19h39l14-65H11v-19h48l15-71h20l-16 71h64l16-71h19l-16 71h37v19h-40zm-83 0L61-91h63l14-65H75" id="Q"/><use transform="matrix(0.05,0,0,0.05,0,0)" xlink:href="#Q" id="e"/><path d="M194-70c0 46-34 64-81 66v29H91V-4C42-5 12-27 4-67l30-6c5 28 25 41 57 43v-87c-38-9-76-20-76-67 1-42 33-58 76-59v-23h22v23c45 0 67 20 76 56l-31 6c-5-23-18-35-45-37v78c41 10 81 20 81 70zm-81 41c51 7 71-66 19-77-6-2-12-4-19-6v83zM91-219c-47-6-63 57-18 69 6 2 12 3 18 5v-74" id="R"/><path d="M84 4C-5 8 30-112 23-190h32v120c0 31 7 50 39 49 72-2 45-101 50-169h31l1 190h-30c-1-10 1-25-2-33-11 22-28 36-60 37" id="S"/><path d="M96-169c-40 0-48 33-48 73s9 75 48 75c24 0 41-14 43-38l32 2c-6 37-31 61-74 61-59 0-76-41-82-99-10-93 101-131 147-64 4 7 5 14 7 22l-32 3c-4-21-16-35-41-35" id="T"/><path d="M100-194c62-1 85 37 85 99 1 63-27 99-86 99S16-35 15-95c0-66 28-99 85-99zM99-20c44 1 53-31 53-75 0-43-8-75-51-75s-53 32-53 75 10 74 51 75" id="U"/><g id="f"><use transform="matrix(0.05,0,0,0.05,0,0)" xlink:href="#R"/><use transform="matrix(0.05,0,0,0.05,10,0)" xlink:href="#z"/><use transform="matrix(0.05,0,0,0.05,19,0)" xlink:href="#S"/><use transform="matrix(0.05,0,0,0.05,29,0)" xlink:href="#T"/><use transform="matrix(0.05,0,0,0.05,38,0)" xlink:href="#T"/><use transform="matrix(0.05,0,0,0.05,47,0)" xlink:href="#A"/><use transform="matrix(0.05,0,0,0.05,57,0)" xlink:href="#z"/><use transform="matrix(0.05,0,0,0.05,66,0)" xlink:href="#z"/><use transform="matrix(0.05,0,0,0.05,75,0)" xlink:href="#U"/><use transform="matrix(0.05,0,0,0.05,85,0)" xlink:href="#B"/></g><path d="M118-107v75H92v-75H18v-26h74v-75h26v75h74v26h-74" id="V"/><use transform="matrix(0.05,0,0,0.05,0,0)" xlink:href="#V" id="g"/><path d="M106-169C34-169 62-67 57 0H25v-261h32l-1 103c12-21 28-36 61-36 89 0 53 116 60 194h-32v-121c2-32-8-49-39-48" id="W"/><path d="M143 0L79-87 56-68V0H24v-261h32v163l83-92h37l-77 82L181 0h-38" id="X"/><path d="M87 75C49 33 22-17 22-94c0-76 28-126 65-167h31c-38 41-64 92-64 168S80 34 118 75H87" id="Y"/><path d="M240 0l2-218c-23 76-54 145-80 218h-23L58-218 59 0H30v-248h44l77 211c21-75 51-140 76-211h43V0h-30" id="Z"/><path d="M179-190L93 31C79 59 56 82 12 73V49c39 6 53-20 64-50L1-190h34L92-34l54-156h33" id="aa"/><path d="M197 0v-115H63V0H30v-248h33v105h134v-105h34V0h-34" id="ab"/><path d="M210-169c-67 3-38 105-44 169h-31v-121c0-29-5-50-35-48C34-165 62-65 56 0H25l-1-190h30c1 10-1 24 2 32 10-44 99-50 107 0 11-21 27-35 58-36 85-2 47 119 55 194h-31v-121c0-29-5-49-35-48" id="ac"/><path d="M185-189c-5-48-123-54-124 2 14 75 158 14 163 119 3 78-121 87-175 55-17-10-28-26-33-46l33-7c5 56 141 63 141-1 0-78-155-14-162-118-5-82 145-84 179-34 5 7 8 16 11 25" id="ad"/><path d="M59-47c-2 24 18 29 38 22v24C64 9 27 4 27-40v-127H5v-23h24l9-43h21v43h35v23H59v120" id="ae"/><path d="M141-36C126-15 110 5 73 4 37 3 15-17 15-53c-1-64 63-63 125-63 3-35-9-54-41-54-24 1-41 7-42 31l-33-3c5-37 33-52 76-52 45 0 72 20 72 64v82c-1 20 7 32 28 27v20c-31 9-61-2-59-35zM48-53c0 20 12 33 32 33 41-3 63-29 60-74-43 2-92-5-92 41" id="af"/><path d="M33-261c38 41 65 92 65 168S71 34 33 75H2C39 34 66-17 66-93S39-220 2-261h31" id="ag"/><g id="h"><use transform="matrix(0.05,0,0,0.05,0,0)" xlink:href="#T"/><use transform="matrix(0.05,0,0,0.05,9,0)" xlink:href="#W"/><use transform="matrix(0.05,0,0,0.05,19,0)" xlink:href="#A"/><use transform="matrix(0.05,0,0,0.05,29,0)" xlink:href="#T"/><use transform="matrix(0.05,0,0,0.05,38,0)" xlink:href="#X"/><use transform="matrix(0.05,0,0,0.05,47,0)" xlink:href="#Y"/><use transform="matrix(0.05,0,0,0.05,52.95,0)" xlink:href="#Z"/><use transform="matrix(0.05,0,0,0.05,67.9,0)" xlink:href="#aa"/><use transform="matrix(0.05,0,0,0.05,76.9,0)" xlink:href="#ab"/><use transform="matrix(0.05,0,0,0.05,89.85000000000001,0)" xlink:href="#U"/><use transform="matrix(0.05,0,0,0.05,99.85000000000001,0)" xlink:href="#ac"/><use transform="matrix(0.05,0,0,0.05,114.80000000000001,0)" xlink:href="#A"/><use transform="matrix(0.05,0,0,0.05,124.80000000000001,0)" xlink:href="#ad"/><use transform="matrix(0.05,0,0,0.05,136.8,0)" xlink:href="#ae"/><use transform="matrix(0.05,0,0,0.05,141.8,0)" xlink:href="#af"/><use transform="matrix(0.05,0,0,0.05,151.8,0)" xlink:href="#ae"/><use transform="matrix(0.05,0,0,0.05,156.8,0)" xlink:href="#S"/><use transform="matrix(0.05,0,0,0.05,166.8,0)" xlink:href="#z"/><use transform="matrix(0.05,0,0,0.05,175.8,0)" xlink:href="#ag"/></g><path d="M212-179c-10-28-35-45-73-45-59 0-87 40-87 99 0 60 29 101 89 101 43 0 62-24 78-52l27 14C228-24 195 4 139 4 59 4 22-46 18-125c-6-104 99-153 187-111 19 9 31 26 39 46" id="ah"/><g id="i"><use transform="matrix(0.05,0,0,0.05,0,0)" xlink:href="#z"/><use transform="matrix(0.05,0,0,0.05,9,0)" xlink:href="#A"/><use transform="matrix(0.05,0,0,0.05,19,0)" xlink:href="#ae"/><use transform="matrix(0.05,0,0,0.05,24,0)" xlink:href="#ad"/><use transform="matrix(0.05,0,0,0.05,36,0)" xlink:href="#S"/><use transform="matrix(0.05,0,0,0.05,46,0)" xlink:href="#T"/><use transform="matrix(0.05,0,0,0.05,55,0)" xlink:href="#T"/><use transform="matrix(0.05,0,0,0.05,64,0)" xlink:href="#A"/><use transform="matrix(0.05,0,0,0.05,74,0)" xlink:href="#z"/><use transform="matrix(0.05,0,0,0.05,83,0)" xlink:href="#z"/><use transform="matrix(0.05,0,0,0.05,92,0)" xlink:href="#U"/><use transform="matrix(0.05,0,0,0.05,102,0)" xlink:href="#B"/><use transform="matrix(0.05,0,0,0.05,107.95,0)" xlink:href="#Y"/><use transform="matrix(0.05,0,0,0.05,113.9,0)" xlink:href="#ab"/><use transform="matrix(0.05,0,0,0.05,126.85000000000001,0)" xlink:href="#U"/><use transform="matrix(0.05,0,0,0.05,136.85000000000002,0)" xlink:href="#ac"/><use transform="matrix(0.05,0,0,0.05,151.8,0)" xlink:href="#A"/><use transform="matrix(0.05,0,0,0.05,161.8,0)" xlink:href="#ah"/><use transform="matrix(0.05,0,0,0.05,174.75,0)" xlink:href="#W"/><use transform="matrix(0.05,0,0,0.05,184.75,0)" xlink:href="#A"/><use transform="matrix(0.05,0,0,0.05,194.75,0)" xlink:href="#T"/><use transform="matrix(0.05,0,0,0.05,203.75,0)" xlink:href="#X"/><use transform="matrix(0.05,0,0,0.05,212.75,0)" xlink:href="#A"/><use transform="matrix(0.05,0,0,0.05,222.75,0)" xlink:href="#B"/><use transform="matrix(0.05,0,0,0.05,228.69999999999996,0)" xlink:href="#ag"/></g><path d="M141 0L90-78 38 0H4l68-98-65-92h35l48 74 47-74h35l-64 92 68 98h-35" id="ai"/><g id="j"><use transform="matrix(0.05,0,0,0.05,0,0)" xlink:href="#w"/><use transform="matrix(0.05,0,0,0.05,10,0)" xlink:href="#A"/><use transform="matrix(0.05,0,0,0.05,20,0)" xlink:href="#ai"/><use transform="matrix(0.05,0,0,0.05,29,0)" xlink:href="#ae"/><use transform="matrix(0.05,0,0,0.05,34,0)" xlink:href="#Y"/><use transform="matrix(0.05,0,0,0.05,39.95,0)" xlink:href="#Z"/><use transform="matrix(0.05,0,0,0.05,54.900000000000006,0)" xlink:href="#aa"/><use transform="matrix(0.05,0,0,0.05,63.900000000000006,0)" xlink:href="#ab"/><use transform="matrix(0.05,0,0,0.05,76.85000000000001,0)" xlink:href="#U"/><use transform="matrix(0.05,0,0,0.05,86.85000000000001,0)" xlink:href="#ac"/><use transform="matrix(0.05,0,0,0.05,101.80000000000001,0)" xlink:href="#A"/><use transform="matrix(0.05,0,0,0.05,111.80000000000001,0)" xlink:href="#ad"/><use transform="matrix(0.05,0,0,0.05,123.80000000000001,0)" xlink:href="#ae"/><use transform="matrix(0.05,0,0,0.05,128.8,0)" xlink:href="#af"/><use transform="matrix(0.05,0,0,0.05,138.8,0)" xlink:href="#ae"/><use transform="matrix(0.05,0,0,0.05,143.8,0)" xlink:href="#S"/><use transform="matrix(0.05,0,0,0.05,153.8,0)" xlink:href="#z"/><use transform="matrix(0.05,0,0,0.05,162.8,0)" xlink:href="#ag"/></g><path d="M205 0l-28-72H64L36 0H1l101-248h38L239 0h-34zm-38-99l-47-123c-12 45-31 82-46 123h93" id="aj"/><path d="M24 0v-261h32V0H24" id="ak"/><g id="k"><use transform="matrix(0.05,0,0,0.05,0,0)" xlink:href="#aj"/><use transform="matrix(0.05,0,0,0.05,12,0)" xlink:href="#ak"/><use transform="matrix(0.05,0,0,0.05,15.949999999999998,0)" xlink:href="#af"/><use transform="matrix(0.05,0,0,0.05,25.950000000000003,0)" xlink:href="#B"/><use transform="matrix(0.05,0,0,0.05,31.899999999999995,0)" xlink:href="#ac"/></g><g id="l"><use transform="matrix(0.05,0,0,0.05,0,0)" xlink:href="#T"/><use transform="matrix(0.05,0,0,0.05,9,0)" xlink:href="#W"/><use transform="matrix(0.05,0,0,0.05,19,0)" xlink:href="#A"/><use transform="matrix(0.05,0,0,0.05,29,0)" xlink:href="#T"/><use transform="matrix(0.05,0,0,0.05,38,0)" xlink:href="#X"/><use transform="matrix(0.05,0,0,0.05,47,0)" xlink:href="#Y"/><use transform="matrix(0.05,0,0,0.05,52.95,0)" xlink:href="#Z"/><use transform="matrix(0.05,0,0,0.05,67.9,0)" xlink:href="#aa"/><use transform="matrix(0.05,0,0,0.05,76.9,0)" xlink:href="#ab"/><use transform="matrix(0.05,0,0,0.05,89.85000000000001,0)" xlink:href="#U"/><use transform="matrix(0.05,0,0,0.05,99.85000000000001,0)" xlink:href="#ac"/><use transform="matrix(0.05,0,0,0.05,114.80000000000001,0)" xlink:href="#A"/><use transform="matrix(0.05,0,0,0.05,124.80000000000001,0)" xlink:href="#ad"/><use transform="matrix(0.05,0,0,0.05,136.8,0)" xlink:href="#ae"/><use transform="matrix(0.05,0,0,0.05,141.8,0)" xlink:href="#af"/><use transform="matrix(0.05,0,0,0.05,151.8,0)" xlink:href="#ae"/><use transform="matrix(0.05,0,0,0.05,156.8,0)" xlink:href="#S"/><use transform="matrix(0.05,0,0,0.05,166.8,0)" xlink:href="#z"/><use transform="matrix(0.05,0,0,0.05,175.8,0)" xlink:href="#ag"/></g><path d="M30 0v-248h33v221h125V0H30" id="al"/><path d="M24-231v-30h32v30H24zM24 0v-190h32V0H24" id="am"/><path d="M177-190C167-65 218 103 67 71c-23-6-38-20-44-43l32-5c15 47 100 32 89-28v-30C133-14 115 1 83 1 29 1 15-40 15-95c0-56 16-97 71-98 29-1 48 16 59 35 1-10 0-23 2-32h30zM94-22c36 0 50-32 50-73 0-42-14-75-50-75-39 0-46 34-46 75s6 73 46 73" id="an"/><g id="m"><use transform="matrix(0.05,0,0,0.05,0,0)" xlink:href="#al"/><use transform="matrix(0.05,0,0,0.05,10,0)" xlink:href="#am"/><use transform="matrix(0.05,0,0,0.05,13.949999999999998,0)" xlink:href="#an"/><use transform="matrix(0.05,0,0,0.05,23.95,0)" xlink:href="#W"/><use transform="matrix(0.05,0,0,0.05,33.95,0)" xlink:href="#ae"/><use transform="matrix(0.05,0,0,0.05,38.95,0)" xlink:href="#z"/></g><g id="n"><use transform="matrix(0.05,0,0,0.05,0,0)" xlink:href="#al"/><use transform="matrix(0.05,0,0,0.05,10,0)" xlink:href="#U"/><use transform="matrix(0.05,0,0,0.05,20,0)" xlink:href="#T"/><use transform="matrix(0.05,0,0,0.05,29,0)" xlink:href="#X"/><use transform="matrix(0.05,0,0,0.05,38,0)" xlink:href="#z"/></g><g id="o"><use transform="matrix(0.05,0,0,0.05,0,0)" xlink:href="#aj"/><use transform="matrix(0.05,0,0,0.05,12,0)" xlink:href="#w"/><use transform="matrix(0.05,0,0,0.05,22,0)" xlink:href="#aa"/></g><g id="p"><use transform="matrix(0.05,0,0,0.05,0,0)" xlink:href="#ab"/><use transform="matrix(0.05,0,0,0.05,12.950000000000001,0)" xlink:href="#U"/><use transform="matrix(0.05,0,0,0.05,22.950000000000003,0)" xlink:href="#ac"/><use transform="matrix(0.05,0,0,0.05,37.900000000000006,0)" xlink:href="#A"/><use transform="matrix(0.05,0,0,0.05,47.900000000000006,0)" xlink:href="#ah"/><use transform="matrix(0.05,0,0,0.05,60.85,0)" xlink:href="#W"/><use transform="matrix(0.05,0,0,0.05,70.85000000000001,0)" xlink:href="#A"/><use transform="matrix(0.05,0,0,0.05,80.85000000000001,0)" xlink:href="#T"/><use transform="matrix(0.05,0,0,0.05,89.85000000000001,0)" xlink:href="#X"/><use transform="matrix(0.05,0,0,0.05,98.85000000000001,0)" xlink:href="#A"/><use transform="matrix(0.05,0,0,0.05,108.85000000000001,0)" xlink:href="#B"/></g><g id="q"><use transform="matrix(0.05,0,0,0.05,0,0)" xlink:href="#T"/><use transform="matrix(0.05,0,0,0.05,9,0)" xlink:href="#ak"/><use transform="matrix(0.05,0,0,0.05,12.949999999999998,0)" xlink:href="#af"/><use transform="matrix(0.05,0,0,0.05,22.95,0)" xlink:href="#z"/><use transform="matrix(0.05,0,0,0.05,31.950000000000003,0)" xlink:href="#z"/></g><g id="r"><use transform="matrix(0.05,0,0,0.05,0,0)" xlink:href="#T"/><use transform="matrix(0.05,0,0,0.05,9,0)" xlink:href="#af"/><use transform="matrix(0.05,0,0,0.05,19,0)" xlink:href="#w"/></g><path d="M115-194c53 0 69 39 70 98 0 66-23 100-70 100C84 3 66-7 56-30L54 0H23l1-261h32v101c10-23 28-34 59-34zm-8 174c40 0 45-34 45-75 0-40-5-75-45-74-42 0-51 32-51 76 0 43 10 73 51 73" id="ao"/><g id="s"><use transform="matrix(0.05,0,0,0.05,0,0)" xlink:href="#ao"/><use transform="matrix(0.05,0,0,0.05,10,0)" xlink:href="#B"/><use transform="matrix(0.05,0,0,0.05,15.949999999999998,0)" xlink:href="#A"/><use transform="matrix(0.05,0,0,0.05,25.950000000000003,0)" xlink:href="#af"/><use transform="matrix(0.05,0,0,0.05,35.95,0)" xlink:href="#X"/></g><g id="t"><use transform="matrix(0.05,0,0,0.05,0,0)" xlink:href="#ae"/><use transform="matrix(0.05,0,0,0.05,5,0)" xlink:href="#W"/><use transform="matrix(0.05,0,0,0.05,15,0)" xlink:href="#A"/></g><g id="u"><use transform="matrix(0.05,0,0,0.05,0,0)" xlink:href="#T"/><use transform="matrix(0.05,0,0,0.05,9,0)" xlink:href="#W"/><use transform="matrix(0.05,0,0,0.05,19,0)" xlink:href="#af"/><use transform="matrix(0.05,0,0,0.05,29,0)" xlink:href="#am"/><use transform="matrix(0.05,0,0,0.05,32.95,0)" xlink:href="#w"/></g></defs></g></svg>